<svg xmlns="http://www.w3.org/2000/svg" viewBox="0 0 466.86 484"><defs><style>.cls-1{fill:#e6ac84;}.cls-2{fill:#f2ba8b;}.cls-3{fill:#fbc69a;}.cls-4,.cls-6{fill:#8bc543;}.cls-4{stroke:#006738;stroke-miterlimit:10;stroke-width:10.53px;}.cls-5{fill:#006738;}.cls-7{fill:#d0d2d3;}.cls-8{fill:#f0f1f1;}.cls-11,.cls-9{fill:#221f1f;}.cls-10{fill:#403f41;}.cls-11{opacity:0.4;}.cls-12{fill:#744c29;}.cls-13{fill:#8a5d3b;}.cls-14{fill:#5f3813;}.cls-15{fill:#e8af2e;}.cls-16{fill:#f9ca35;}.cls-17{fill:#c38728;}.cls-18{fill:#fff;}</style></defs><title>creditimg</title><g id="Layer_2" data-name="Layer 2"><g id="Capa_1" data-name="Capa 1"><path class="cls-1" d="M260.12,38.6,239.38,11.8S237,5.11,224.15,5.74c-9.67.47-40.84.39-55.16,1.56-7.09.57-7.68-.27-15.55,10.45-9.91,13.49-32.12,49.61-32.12,49.61s13.51,9.94,26.73-5.19c9-10.32,15.79-19,19.58-24.77,3.21-4.93,26.23,1.73,26.23,1.73s28.56,1.53,32.93,9.93c9.29,17.86,51.35,31.58,51.35,31.58C280.93,76.54,279.28,52.7,260.12,38.6Z"/><path class="cls-2" d="M263.25,23.86,231,5.16s-5.22-5.78-18,0c-9.66,4.35-41.45,16.74-55.56,23.64-7,3.42-7.93,2.81-11.51,16.75-4.5,17.55-12.16,62.82-12.16,62.82s17.87,4.61,25.07-15.91c4.92-14,8.23-25.43,9.69-32.8,1.23-6.25,27.43-8.75,27.43-8.75s29.73-9.88,37.67-3.16C250.47,62,275.28,90.25,275.28,90.25,276.43,85,288.59,30.39,263.25,23.86Z"/><path class="cls-3" d="M263.85,11.47l-37-10.39s-6.7-4.43-18,4.63c-8.54,6.84-37.1,27.41-49.42,37.94-6.1,5.22-7.2,4.85-7.19,19.71,0,18.7,4,65.91,4,65.91s19.05,0,21-22.37c1.3-15.27,1.67-27.53,1.23-35.26-.38-6.57,25.16-15.82,25.16-15.82a24.17,24.17,0,0,1,18.21,1.25C242.31,67,243,94.37,243,94.37l50-19.66C292.79,69.17,290.87,11.47,263.85,11.47Z"/><rect class="cls-4" x="107.41" y="145.92" width="173.74" height="83.49" transform="translate(-69.03 247.92) rotate(-56.9)"/><path class="cls-5" d="M212.59,159.59A33.52,33.52,0,1,0,222.36,206,33.51,33.51,0,0,0,212.59,159.59Z"/><path class="cls-5" d="M264.58,156.29,276.7,137.7l-18.59-12.12A22.19,22.19,0,0,0,264.58,156.29Z"/><path class="cls-6" d="M209.77,179.66a8.89,8.89,0,0,0-7.4-1.19q-4,1-8.83,6.07t-6.82,6a3.76,3.76,0,0,1-3.89-.31q-4.34-2.84-.16-9.24,4.46-6.85,10.16-4.26l4.07-7.49q-11.07-4.65-19.47,8.26a21.27,21.27,0,0,0-3.67,11.12,9.48,9.48,0,0,0,4.45,8.8,10.19,10.19,0,0,0,8.13,1.62q4.17-1,8.81-5.79a45.65,45.65,0,0,1,6.67-6.11,3.34,3.34,0,0,1,3.87-.07q3,2-.68,7.62c-2.45,3.77-4.8,5-7,3.84l-4.44,7.37q8.59,4.76,16.68-7.64c2.73-4.17,4-7.91,3.67-11.19A9.15,9.15,0,0,0,209.77,179.66Z"/><rect class="cls-6" x="208.37" y="196.4" width="8.1" height="7.37" transform="matrix(0.55, -0.84, 0.84, 0.55, -71.21, 268.73)"/><rect class="cls-6" x="171.55" y="172.4" width="8.1" height="7.37" transform="matrix(0.55, -0.84, 0.84, 0.55, -67.8, 227.03)"/><path class="cls-5" d="M195.75,111.41a22.19,22.19,0,0,0,30.71-6.47L207.88,92.82Z"/><path class="cls-5" d="M125.1,219.77,113,238.36l18.59,12.12A22.2,22.2,0,0,0,125.1,219.77Z"/><path class="cls-5" d="M163.22,271.12l18.59,12.12,12.11-18.59A22.18,22.18,0,0,0,163.22,271.12Z"/><path class="cls-5" d="M228.82,134.7a7.57,7.57,0,1,0,2.2,10.48A7.57,7.57,0,0,0,228.82,134.7Z"/><path class="cls-5" d="M168,228a7.57,7.57,0,1,0,2.2,10.47A7.57,7.57,0,0,0,168,228Z"/><rect class="cls-4" x="88.58" y="131.15" width="173.75" height="83.49" transform="translate(-70.3 189.59) rotate(-48.47)"/><path class="cls-5" d="M197.68,147.8a33.52,33.52,0,1,0,2.86,47.32A33.53,33.53,0,0,0,197.68,147.8Z"/><path class="cls-5" d="M249.59,152.15l14.72-16.6L247.7,120.83A22.18,22.18,0,0,0,249.59,152.15Z"/><path class="cls-6" d="M192,167.25a8.83,8.83,0,0,0-7.14-2.27c-2.72.3-5.93,1.88-9.64,4.7s-6.24,4.47-7.61,4.89a3.71,3.71,0,0,1-3.8-.88q-3.88-3.44,1.19-9.16,5.42-6.12,10.68-2.72l5.12-6.81q-10.26-6.23-20.47,5.31A21.37,21.37,0,0,0,155,170.78a9.48,9.48,0,0,0,3.11,9.35,10.22,10.22,0,0,0,7.81,2.79q4.26-.34,9.56-4.43a46,46,0,0,1,7.49-5.06,3.33,3.33,0,0,1,3.84.49q2.7,2.4-1.78,7.45t-7.54,2.76L172,190.77q7.8,6,17.62-5.12,5-5.58,5.27-10.53A9.13,9.13,0,0,0,192,167.25Z"/><rect class="cls-6" x="187.52" y="184.15" width="8.1" height="7.36" transform="translate(-76.07 206.51) rotate(-48.43)"/><rect class="cls-6" x="154.62" y="155.01" width="8.1" height="7.37" transform="translate(-65.32 172.3) rotate(-48.48)"/><path class="cls-5" d="M188.09,97.67a22.2,22.2,0,0,0,31.33-1.89L202.81,81.06Z"/><path class="cls-5" d="M102.31,194.5,87.6,211.12l16.61,14.71A22.21,22.21,0,0,0,102.31,194.5Z"/><path class="cls-5" d="M132.49,250.89,149.1,265.6,163.81,249A22.18,22.18,0,0,0,132.49,250.89Z"/><path class="cls-5" d="M217.38,125.57a7.56,7.56,0,1,0,.65,10.68A7.55,7.55,0,0,0,217.38,125.57Z"/><path class="cls-5" d="M143.56,208.89a7.57,7.57,0,1,0,.65,10.69A7.56,7.56,0,0,0,143.56,208.89Z"/><rect class="cls-4" x="70.91" y="112" width="173.75" height="83.49" transform="translate(-61.83 136.31) rotate(-39.72)"/><path class="cls-5" d="M136.36,128a33.52,33.52,0,1,0,47.2,4.36A33.53,33.53,0,0,0,136.36,128Z"/><path class="cls-5" d="M234.21,144.52l17.07-14.18L237.1,113.28A22.17,22.17,0,0,0,234.21,144.52Z"/><path class="cls-6" d="M168.22,147.35c-2.73-.12-6.14,1-10.23,3.18s-6.85,3.46-8.28,3.68a3.73,3.73,0,0,1-3.61-1.45q-3.32-4,2.57-8.88,6.27-5.2,11-1.06l6.1-6q-9.19-7.7-21,2.14a21.24,21.24,0,0,0-6.78,9.55,9.49,9.49,0,0,0,1.65,9.72,10.17,10.17,0,0,0,7.29,3.94q4.26.31,10.12-2.93a45.18,45.18,0,0,1,8.17-3.85,3.31,3.31,0,0,1,3.72,1.06q2.29,2.77-2.9,7.09t-7.86,1.58l-6.42,5.73q6.81,7.1,18.19-2.37,5.74-4.77,6.82-9.62a9.16,9.16,0,0,0-1.75-8.23A8.87,8.87,0,0,0,168.22,147.35Z"/><rect class="cls-6" x="167.39" y="167.28" width="8.1" height="7.37" transform="translate(-69.68 149) rotate(-39.72)"/><rect class="cls-6" x="139.3" y="133.48" width="8.1" height="7.36" transform="translate(-54.57 123.43) rotate(-39.77)"/><path class="cls-5" d="M181.71,81.32A22.18,22.18,0,0,0,213,84.21L198.77,67.14Z"/><path class="cls-5" d="M65.13,178.16l14.18,17.08A22.21,22.21,0,0,0,82.2,164Z"/><path class="cls-5" d="M103.45,224.3l14.18,17.07,17.07-14.18A22.19,22.19,0,0,0,103.45,224.3Z"/><path class="cls-5" d="M195.76,112.36a7.57,7.57,0,1,0,10.65,1A7.56,7.56,0,0,0,195.76,112.36Z"/><path class="cls-5" d="M110.13,183.49a7.57,7.57,0,1,0,10.65,1A7.57,7.57,0,0,0,110.13,183.49Z"/><path class="cls-3" d="M342.34,22.71s-27.85-10.35-38.95-11.53C290.27,9.8,222.6,0,222.6,0l38.85,78.69s-41.91,30.47-46.36,42.66-3.43,27.4.13,26.31S275,112.86,293,105.87C303.08,102,339.08,87.7,339.08,87.7h29.33v-65Z"/><polygon class="cls-7" points="355.15 104.43 378.76 104.25 380.25 11.48 356.64 11.66 355.15 104.43"/><polygon class="cls-8" points="355.85 57.95 379.46 57.77 380.2 11.64 356.59 11.81 355.85 57.95"/><polygon class="cls-9" points="374.18 108.22 466.86 108.46 466.86 7.18 375.78 6.95 374.18 108.22"/><path class="cls-8" d="M394.3,90a4.63,4.63,0,1,0,3.49,5.54A4.64,4.64,0,0,0,394.3,90Z"/><path class="cls-8" d="M410.15,89.88a4.63,4.63,0,1,0,3.49,5.55A4.64,4.64,0,0,0,410.15,89.88Z"/><path class="cls-8" d="M426,89.75a4.63,4.63,0,1,0,3.49,5.55A4.64,4.64,0,0,0,426,89.75Z"/><polygon class="cls-10" points="374.99 57.59 466.86 57.82 466.86 7.18 375.78 6.95 374.99 57.59"/><path class="cls-11" d="M151.46,457.51C63.12,457.51,0,463.45,0,470.76S63.12,484,151.46,484s168.48-5.93,168.48-13.24S239.82,457.51,151.46,457.51Z"/><path class="cls-12" d="M76.62,296.69H273.7a8.69,8.69,0,0,1,8.69,8.69v159a8.69,8.69,0,0,1-8.69,8.69H76.62a8.68,8.68,0,0,1-8.68-8.68v-159A8.69,8.69,0,0,1,76.62,296.69Z"/><path class="cls-13" d="M67.93,305.37v159a8.69,8.69,0,0,0,8.69,8.68h98.54V296.69H76.62A8.69,8.69,0,0,0,67.93,305.37Z"/><path class="cls-8" d="M148.91,313.32H134.42a1.53,1.53,0,1,0,0,3.06h14.49a1.53,1.53,0,1,0,0-3.06Z"/><path class="cls-8" d="M172.19,453.39H157.7a1.54,1.54,0,1,0,0,3.07h14.49a1.54,1.54,0,1,0,0-3.07Z"/><path class="cls-8" d="M173.07,313.32H158.58a1.53,1.53,0,1,0,0,3.06h14.49a1.53,1.53,0,1,0,0-3.06Z"/><path class="cls-8" d="M196.35,453.39h-14.5a1.54,1.54,0,1,0,0,3.07h14.5a1.54,1.54,0,1,0,0-3.07Z"/><path class="cls-8" d="M99.72,453.39H85.23a1.53,1.53,0,1,0-.11,3.06l.53,0H99.72a1.54,1.54,0,1,0,0-3.07Z"/><path class="cls-8" d="M148,453.39H133.54a1.54,1.54,0,1,0,0,3.07H148a1.54,1.54,0,1,0,0-3.07Z"/><path class="cls-8" d="M197.23,313.32H182.74a1.53,1.53,0,1,0,0,3.06h14.49a1.53,1.53,0,1,0,0-3.06Z"/><path class="cls-8" d="M100.6,313.32H86.1a1.53,1.53,0,1,0,0,3.06h14.5a1.53,1.53,0,1,0,0-3.06Z"/><path class="cls-8" d="M124.76,313.32H110.27a1.53,1.53,0,1,0,0,3.06h14.49a1.53,1.53,0,1,0,0-3.06Z"/><path class="cls-8" d="M123.88,453.39h-14.5a1.54,1.54,0,1,0,0,3.07h14.5a1.54,1.54,0,1,0,0-3.07Z"/><path class="cls-8" d="M264.8,423.2a1.56,1.56,0,0,0-1.59,1.53v13.93a1.6,1.6,0,0,0,3.19,0V424.73A1.57,1.57,0,0,0,264.8,423.2Z"/><path class="cls-8" d="M264.8,376.77a1.56,1.56,0,0,0-1.59,1.53v13.93a1.6,1.6,0,0,0,3.19,0V378.3A1.57,1.57,0,0,0,264.8,376.77Z"/><path class="cls-8" d="M220.51,453.39H206a1.54,1.54,0,1,0,0,3.07h14.5a1.54,1.54,0,1,0,0-3.07Z"/><path class="cls-8" d="M264.8,400a1.56,1.56,0,0,0-1.59,1.53v13.92a1.6,1.6,0,0,0,3.19,0V401.52A1.57,1.57,0,0,0,264.8,400Z"/><path class="cls-8" d="M264.8,330.35a1.56,1.56,0,0,0-1.59,1.53v13.93a1.6,1.6,0,0,0,3.19,0V331.88A1.57,1.57,0,0,0,264.8,330.35Z"/><path class="cls-8" d="M257.24,313.32h-2a1.53,1.53,0,1,0,0,3.06h2c3.29,0,6,2.41,6,5.37v.84a1.6,1.6,0,0,0,3.19,0v-.84C266.4,317.1,262.28,313.32,257.24,313.32Z"/><path class="cls-8" d="M264.8,353.56a1.56,1.56,0,0,0-1.59,1.54V369a1.6,1.6,0,0,0,3.19,0V355.1A1.57,1.57,0,0,0,264.8,353.56Z"/><path class="cls-8" d="M244.66,453.39H230.17a1.54,1.54,0,1,0,0,3.07h14.49a1.54,1.54,0,1,0,0-3.07Z"/><path class="cls-8" d="M221.39,313.32h-14.5a1.53,1.53,0,1,0,0,3.06h14.5a1.53,1.53,0,1,0,0-3.06Z"/><path class="cls-8" d="M264.8,446.45a1.6,1.6,0,0,0-1.59,1.57c0,3-2.68,5.37-6,5.37h-2.91a1.54,1.54,0,1,0,0,3.07h2.91c5,0,9.16-3.79,9.16-8.44v-.08A1.53,1.53,0,0,0,264.8,446.45Z"/><path class="cls-8" d="M245.54,313.32H231.05a1.53,1.53,0,1,0,0,3.06h14.49a1.53,1.53,0,1,0,0-3.06Z"/><path class="cls-14" d="M290.84,350.66H203.77a6.78,6.78,0,0,0-6.78,6.76v54.93a6.78,6.78,0,0,0,6.78,6.77h87.07a6.78,6.78,0,0,0,6.78-6.77V357.42A6.78,6.78,0,0,0,290.84,350.66Z"/><path class="cls-8" d="M231,371.74a13.15,13.15,0,1,0,13.14,13.15A13.15,13.15,0,0,0,231,371.74Z"/><path class="cls-15" d="M54.9,399.74a38.4,38.4,0,1,0,25.93,47.73A38.41,38.41,0,0,0,54.9,399.74Z"/><path class="cls-16" d="M52.94,406.39A31.47,31.47,0,1,0,74.17,445.5,31.46,31.46,0,0,0,52.94,406.39Z"/><path class="cls-17" d="M49.43,419q-6.88-2.06-11.36-.34a8.85,8.85,0,0,0-5.67,5.8,8.56,8.56,0,0,0,.91,7.16q2.05,3.39,8,6.52t7.36,4.69a3.59,3.59,0,0,1,.77,3.67q-1.44,4.8-8.5,2.68-7.55-2.26-6.7-8.24l-8-1.72q-1.29,11.49,12.94,15.75a20.52,20.52,0,0,0,11.28.36,9.13,9.13,0,0,0,6.93-6.52,9.82,9.82,0,0,0-.72-7.95c-1.35-2.39-3.94-4.57-7.75-6.57a43.58,43.58,0,0,1-7.46-4.5,3.22,3.22,0,0,1-1.13-3.56q1-3.31,7.24-1.45T53,430.22l8,2.1Q63.1,423.08,49.43,419Z"/><rect class="cls-17" x="47.01" y="412.51" width="7.1" height="7.81" transform="translate(-362.81 345.15) rotate(-73.3)"/><rect class="cls-17" x="34.84" y="453.1" width="7.1" height="7.81" transform="translate(-410.35 362.41) rotate(-73.29)"/><path class="cls-18" d="M17.3,402c0,3.09-1.17,7.43-2.48,8.75s-5.51,2.18-8.45,2.18c3,0,7.47,1.19,8.6,2.32s2.33,5.59,2.33,8.6c0-3,1.33-7.6,2.32-8.6s5.58-2.32,8.6-2.32c-3,0-7.45-1.18-8.6-2.33S17.3,405,17.3,402Z"/><path class="cls-18" d="M24.59,417.73a5.72,5.72,0,0,1-.88,3.11,5.39,5.39,0,0,1-3,.78,5.88,5.88,0,0,1,3.06.83,5.85,5.85,0,0,1,.83,3.06,6.2,6.2,0,0,1,.83-3.06,6.31,6.31,0,0,1,3.06-.83,5.88,5.88,0,0,1-3.06-.83A5.78,5.78,0,0,1,24.59,417.73Z"/><path class="cls-18" d="M10.36,422.94a7.83,7.83,0,0,1-1.23,4.32c-.67.67-2.72,1.08-4.17,1.08a8.29,8.29,0,0,1,4.25,1.15,8.22,8.22,0,0,1,1.15,4.24,8.73,8.73,0,0,1,1.14-4.24,8.73,8.73,0,0,1,4.25-1.15,8.29,8.29,0,0,1-4.25-1.15C10.91,426.59,10.36,424.43,10.36,422.94Z"/></g></g></svg>