<svg xmlns="http://www.w3.org/2000/svg" viewBox="0 0 1562.19 1147.91"><defs><style>.cls-1{fill:#070242;}.cls-2{fill:#d91111;}.cls-3{fill:#0c0376;}.cls-4{fill:#f71126;}.cls-5{fill:#fff;}.cls-6{fill:#2aa2f3;}.cls-7{fill:#21a8ed;}.cls-8{fill:#187bad;}.cls-9{fill:#3a273b;}.cls-10{fill:#674569;}.cls-11{fill:#231824;}.cls-12{fill:#e6a906;}.cls-13{fill:#ecf500;}.cls-14{fill:#b1b1c6;}.cls-15{fill:#b21036;}.cls-16{fill:#ff4758;}.cls-17{fill:#1777a8;}.cls-18{fill:#b1b1d0;}.cls-19{fill:#7158a6;}</style></defs><title>rocket</title><g id="Layer_2" data-name="Layer 2"><g id="Layer_1-2" data-name="Layer 1"><path class="cls-1" d="M1365,799.68C1247,856.05,1096.54,907.91,972.29,935c-19,4.14-38.11,7.82-57,11-49.79,98.65-152.35,173.31-275.24,200.09l-1,.22a72.4,72.4,0,0,1-14.41,1.62c-14,.11-26.1-4.33-32.74-12.49-8.21-10.15-5.68-23.2,6.62-34.08,45.38-40.09,78.09-88.63,95-140.64-13.14-.75-26-1.82-38.33-3.26-27.37-3.23-47.55-16.54-54.17-35.21L583.69,926a71.23,71.23,0,0,1-14.79,1.68c-17.66.14-33.14-6.51-40.08-17.6l-43.38,16.13a56.44,56.44,0,0,1-19.06,3.54,46.92,46.92,0,0,1-14.3-2c-1-.31-1.88-.66-2.8-1-1.94,7.82-7.25,15.21-15.28,20.75-34.35,23.63-81.67,42.83-133.29,54.09-42.67,9.3-94.5,14.61-142.94,15-14.64.11-29-.23-42.62-1C46.32,1011.4,5.61,996.16.54,972.57c-11.09-51.43,150.9-127.25,261.33-151.32,51.6-11.24,102.59-13.47,143.6-6.24,9.58,1.68,17.45,6.21,22.47,12.53.67-.71,1.35-1.41,2.11-2.09,7.91-7.06,19.21-11.61,31-12.48l46.2-3.4c2.26-16.53,20-32.25,43.34-37.33l17.26-3.76c-1.65-19.79,11.29-40.32,34.88-54.64q12.12-7.35,25.17-14.46c-42.33-41.06-98.28-70.09-162.31-84-16.57-3.6-26-13.62-24.52-26.15,1.54-13.18,14.75-25.44,33.65-31.23,12-3.66,24.35-6.89,36.62-9.55C609.77,527,709.05,539,788.82,580.13A328.46,328.46,0,0,1,844.15,616q27.76-7.41,56.47-13.68c17-3.7,34.63-7.19,52.75-10.44,42.07-7.55,86.73-13.84,132-18.69,70.13-7.51,141.7-11.54,207.35-11.35q10.65,0,21.08.2c87.12,1.48,235.09,12.6,247.56,70.47S1443.7,762.07,1365,799.68Z"/><path class="cls-2" d="M429.44,936.21a26.71,26.71,0,0,1-4.71,4.17c-32.33,22.25-77.14,40.39-126.18,51.08-53.82,11.72-122.78,16.89-180,13.5-61.71-3.68-99.44-16.63-103.51-35.57-8.72-40.47,135.18-113.27,249-138.07a419.52,419.52,0,0,1,85-9.91,280.89,280.89,0,0,1,50.85,3.89,18.25,18.25,0,0,1,6.11,1.85C432.21,842.51,439.81,924.59,429.44,936.21Z"/><path class="cls-3" d="M513.47,558.52c-11.69,2.56-23.44,5.62-34.91,9.12-15.63,4.78-22.05,13.89-22.87,20.82-.93,8.11,5.07,14.38,16.06,16.76,66.71,14.49,124.9,44.7,168.77,87.43,54.07-28.1,118.33-52.81,187.8-72.34C745.92,556.46,629,533.35,513.47,558.52Z"/><path class="cls-3" d="M868.38,783.48c-.75-3.58-3.48-6.5-7.66-8.22a22.27,22.27,0,0,0-8.75-1.6,27.25,27.25,0,0,0-5.7.66L588.42,830.49,530,843.22a24.67,24.67,0,0,0-12.78,6.88,13.83,13.83,0,0,0-3.61,6.61,9.92,9.92,0,0,0,0,4.06c1.59,7.35,11.51,11.46,22.11,9.15l58.43-12.73L852,801a24.67,24.67,0,0,0,12.78-6.87C867.87,790.83,869.14,787,868.38,783.48Z"/><path class="cls-3" d="M569.65,778.62l-16.9,3.69c-18.65,4.07-32.29,17.59-31.08,30.8.08.69.2,1.41.35,2.13l4,18.37c.63-.16,1.22-.32,1.86-.47L579,822Z"/><path class="cls-3" d="M520.89,880.6a36.25,36.25,0,0,1-8.33-2.26c-7.33-3-12.13-8.15-13.45-14.41s.87-12.9,6.3-18.73a36.81,36.81,0,0,1,6.66-5.53L507.83,820l-47.59,3.5a33.16,33.16,0,0,0-19.33,7.8c-4.93,4.4-7.16,9.83-6.07,14.87l.25,1.07,1.76,8.18,9.09,42.22v0l1.77,8.16v0l.22,1.08c1.09,5,5.34,9.05,11.65,11a33,33,0,0,0,20.81-1l44.74-16.63Z"/><path class="cls-3" d="M589.09,868.85,537.92,880c-.63.13-1.23.24-1.86.35l4,18.38a16.24,16.24,0,0,0,.57,2.07c4.3,12.53,22.3,19.16,40.95,15.1l16.9-3.69Z"/><path class="cls-3" d="M744.3,961.9q-18.67.14-36.48-.53c-17.45,53.87-51.38,104.19-98.5,145.83-8.07,7.15-9.74,15.34-4.43,21.89,5.87,7.23,18.45,10,32,7.12l1-.22c115.55-25.19,212.5-94.91,261.2-187.33C845.55,957,793,961.51,744.3,961.9Z"/><path class="cls-3" d="M1281.59,693.44c-9.14-42.46-12.77-84.16-10.58-121-120.44,1.17-257.93,15.91-368.24,39.94q-30.25,6.6-59.59,14.54a2.35,2.35,0,0,1-.46.12,1116.69,1116.69,0,0,0-107.06,34.69,843,843,0,0,0-93.52,42.14h0q-16.17,8.61-31,17.59c-15.51,9.43-25.42,22.11-28,35.12a33.35,33.35,0,0,0,.05,13.82l10.43,48.42,250.57-54.59c9-2,18-1.39,25.36,1.65s12.11,8.15,13.46,14.42S882,793.22,876.6,799s-13.38,10.09-22.41,12.06l-250.58,54.6,10.44,48.41c3.75,17.42,21.22,30,45.61,32.9,14.14,1.64,29.05,2.85,44.27,3.54,62,2.9,133.06-2,205.61-14,20-3.31,40.4-7.21,60.57-11.61,110.28-24,241.53-67.84,351.65-116.91C1304.59,775.37,1290.73,735.9,1281.59,693.44Z"/><path class="cls-3" d="M1546.82,635.65c-8.1-37.67-94-60.67-235.62-63.08q-12.63-.21-25.59-.2c-2,35.9,1.59,76.51,10.51,117.92s22.37,79.86,39,111.67q11.79-5.36,23.18-10.81C1486.23,730,1554.93,673.33,1546.82,635.65Z"/><path class="cls-4" d="M899.08,948.66a315.44,315.44,0,0,1-18.49,30.67C828,1056.4,740.27,1113.67,637.88,1136l-1,.22c-13.56,2.92-26.14.11-32-7.12-5.31-6.55-3.64-14.74,4.43-21.89,39.35-34.77,69.51-75.6,88.54-119.52q5.63-13,10-26.31,17.8.66,36.48.53C793,961.51,845.55,957,899.08,948.66Z"/><path class="cls-5" d="M1321.76,808c-110.12,49.07-241.37,92.88-351.65,116.92-20.17,4.39-40.55,8.29-60.57,11.6-72.55,12.08-143.65,17-205.61,14-15.22-.69-30.13-1.89-44.27-3.54-24.39-2.87-41.86-15.48-45.61-32.89l-10.44-48.42,77.13-16.81,173.45-37.79c9-2,17-6.25,22.41-12.06s7.66-12.47,6.31-18.72-6.13-11.38-13.46-14.42-16.35-3.62-25.36-1.65l-170.5,37.13-80.07,17.46-10.43-48.41A33.35,33.35,0,0,1,583,756.6c2.62-13,12.52-25.7,28-35.13q14.85-9,31-17.59h0c18.52-9.84,38.36-19.29,59.25-28.23q16.68-7.17,34.27-13.91c22.24-8.51,45.47-16.49,69.46-23.83q18.51-5.7,37.6-10.86a2.56,2.56,0,0,0,.46-.12c5.27-1.41,10.53-2.81,15.86-4.17,14.39-3.68,29-7.15,43.73-10.36,23.18-5.06,47.56-9.7,72.74-13.89,32-5.32,65.21-9.91,98.89-13.69q11.67-1.32,23.4-2.5c58.46-5.9,117.65-9.32,173.21-9.87-.43,7.28-.64,14.76-.62,22.39.08,31,3.87,64.54,11.2,98.6,3.24,15,7.07,29.66,11.42,43.75A414.69,414.69,0,0,0,1321.76,808Z"/><path class="cls-6" d="M589.09,868.85,537.92,880c-.63.13-1.23.24-1.86.35l4,18.38a16.24,16.24,0,0,0,.57,2.07c4.3,12.53,22.3,19.16,40.95,15.1l16.9-3.69Z"/><path class="cls-4" d="M868.38,783.48c-.75-3.58-3.48-6.5-7.66-8.22a22.27,22.27,0,0,0-8.75-1.6,27.25,27.25,0,0,0-5.7.66L588.42,830.49,530,843.22a24.67,24.67,0,0,0-12.78,6.88,13.83,13.83,0,0,0-3.61,6.61,9.92,9.92,0,0,0,0,4.06c1.59,7.35,11.51,11.46,22.11,9.15l58.43-12.73L852,801a24.67,24.67,0,0,0,12.78-6.87C867.87,790.83,869.14,787,868.38,783.48Z"/><path class="cls-7" d="M569.65,778.62l-16.9,3.69c-18.65,4.07-32.29,17.59-31.08,30.8.08.69.2,1.41.35,2.13l4,18.37c.63-.16,1.22-.32,1.86-.47L579,822Z"/><polygon class="cls-8" points="598.41 912.22 584.82 915.19 575.96 871.71 589.09 868.85 598.41 912.22"/><polygon class="cls-8" points="578.97 822 565.46 824.93 556.57 781.47 569.63 778.63 578.97 822"/><path class="cls-9" d="M520.89,880.6a36.25,36.25,0,0,1-8.33-2.26c-7.33-3-12.13-8.15-13.45-14.41s.87-12.9,6.3-18.73a36.81,36.81,0,0,1,6.66-5.53L507.83,820l-47.59,3.5a33.16,33.16,0,0,0-19.33,7.8c-4.93,4.4-7.16,9.83-6.07,14.87l.25,1.07,1.76,8.18,9.09,42.22v0l1.77,8.16v0l.22,1.08c1.09,5,5.34,9.05,11.65,11a33,33,0,0,0,20.81-1l44.74-16.63Z"/><path class="cls-10" d="M507.83,820l1.64,7.62-48.75,3.35c-7.91.56-15.42,3.39-20.69,7.81a19.22,19.22,0,0,0-5.3,6.64c-.75-4.82,1.49-9.93,6.18-14.12a33.16,33.16,0,0,1,19.33-7.8Z"/><path class="cls-11" d="M525.12,900.31l-44.74,16.63a33,33,0,0,1-20.81,1c-6.31-2-10.56-6-11.65-11l-.22-1.08v0l-.29-1.34a21.52,21.52,0,0,0,9,4.84,38.23,38.23,0,0,0,22.43-1l44.66-15.49Z"/><path class="cls-4" d="M828.32,620.31Q804.67,627,781.86,634.4C730.18,651.25,682.3,671,640.52,692.65c-42-40.95-97.22-70.39-160.47-85.53q-4.12-1-8.3-1.9c-11-2.38-17-8.65-16.06-16.76.82-6.93,7.24-16,22.87-20.82,11.47-3.5,23.22-6.56,34.91-9.12C629,533.35,745.92,556.46,828.32,620.31Z"/><path class="cls-4" d="M1358.27,791.15q-11.37,5.43-23.18,10.81c-16.6-31.81-30-70.28-39-111.67-8.1-37.55-11.78-74.45-10.9-107.77,0-.62,0-.95,0-.95.06-3.1.2-6.18.37-9.2q13,0,25.59.2c124.51,2.12,205.93,20.14,229.31,50.06a32,32,0,0,1,6.31,13C1554.93,673.33,1486.23,730,1358.27,791.15Z"/><path class="cls-12" d="M429.58,920.15a19.35,19.35,0,0,1-3.5,3.09c-24,16.54-57.32,30-93.76,38-40,8.72-91.24,12.55-133.75,10-45.85-2.74-73.89-12.36-76.92-26.43-6.47-30.08,100.46-84.18,185-102.61a312.26,312.26,0,0,1,63.19-7.37,210.13,210.13,0,0,1,37.79,2.9,13.6,13.6,0,0,1,4.54,1.37C431.64,850.51,437.29,911.51,429.58,920.15Z"/><path class="cls-13" d="M429.59,906.64a13.6,13.6,0,0,1-2.46,2.18c-16.9,11.63-40.32,21.11-66,26.7-28.13,6.13-64.18,8.83-94.07,7.06-32.26-1.93-52-8.69-54.11-18.59-4.55-21.16,70.67-59.21,130.15-72.18a220,220,0,0,1,44.45-5.18,147.36,147.36,0,0,1,26.58,2,9.44,9.44,0,0,1,3.19,1C431,857.66,435,900.57,429.59,906.64Z"/><path class="cls-14" d="M673.59,801.37l-80.07,17.46-10.43-48.42a33.35,33.35,0,0,1-.05-13.82c2.62-13,12.53-25.69,28-35.12q14.85-9,31-17.59h0c18.53-9.84,38.36-19.29,59.25-28.23-16.28,27-33.4,64.6-30.2,99.42C672,784.15,672.77,792.94,673.59,801.37Z"/><path class="cls-14" d="M1321.76,808c-110.12,49.07-241.37,92.88-351.65,116.91-20.17,4.4-40.55,8.3-60.57,11.61-72.55,12.08-143.65,16.94-205.61,14-15.22-.69-30.13-1.9-44.27-3.54-24.39-2.87-41.86-15.48-45.61-32.9l-10.44-48.41,77.13-16.81c6.67,26.39,18.89,44.9,45.52,51.19,47.3,11.17,445.13-30.57,526.75-99.47,18-15.24,30.91-37.69,40-63.41A415,415,0,0,0,1321.76,808Z"/><path class="cls-15" d="M1358.27,791.15q-11.37,5.43-23.18,10.81c-16.6-31.81-30-70.28-39-111.67-8.1-37.55-11.78-74.45-10.9-107.77-.07,9.46.44,86.85,35.57,145.78,37.48,62.85,148.43-28.22,173.25-55.33,12.06-13.16,30.86-30,46.47-50.34a32,32,0,0,1,6.31,13C1554.93,673.33,1486.23,730,1358.27,791.15Z"/><path class="cls-15" d="M899.08,948.66a315.44,315.44,0,0,1-18.49,30.67c-58.58,11.58-130.82,11-182.73,8.35q5.63-13,10-26.31,17.8.66,36.48.53C793,961.51,845.55,957,899.08,948.66Z"/><path class="cls-16" d="M828.32,620.31Q804.67,627,781.86,634.4S695.46,585.5,588,588c-51.82,1.2-86.22,10.17-107.94,19.15q-4.12-1-8.3-1.9c-11-2.38-17-8.65-16.06-16.76.82-6.93,7.24-16,22.87-20.82,11.47-3.5,23.22-6.56,34.91-9.12C629,533.35,745.92,556.46,828.32,620.31Z"/><path class="cls-14" d="M1088.24,861.87a116.17,116.17,0,0,1-83-14.72c-24.86-15.1-42.08-38.31-48.52-65.34a96.64,96.64,0,0,1,14.42-77.73c15.74-23.08,40.21-38.91,68.91-44.56a117.17,117.17,0,0,1,32.07-1.79c47.16,3.89,88.63,36.22,99.5,81.86C1184.87,795.37,1147.5,850.23,1088.24,861.87Z"/><path class="cls-3" d="M1162.29,719.52c-11-50.71-60.85-83.09-111.12-72.18a92.3,92.3,0,0,0-58.65,40.92,94.62,94.62,0,0,0,28.22,130,92.14,92.14,0,0,0,70.31,13C1141.34,820.35,1173.3,770.24,1162.29,719.52Z"/><path class="cls-17" d="M1088.87,821.19a82.19,82.19,0,0,1-62.62-11.55,84.29,84.29,0,0,1-25.11-115.79,82.61,82.61,0,0,1,76.42-38,83.85,83.85,0,0,1,74.74,65.89C1162.1,766.85,1133.65,811.48,1088.87,821.19Z"/><path class="cls-3" d="M1182.29,715.19A114.5,114.5,0,0,0,1132.53,643a113.07,113.07,0,0,0-157.24,34.1,115.42,115.42,0,0,0,34.4,158.55,112.69,112.69,0,0,0,85.74,15.79C1156.74,838.11,1195.69,777,1182.29,715.19Zm-89,126.14c-55.8,12.11-111.1-23.82-123.32-80.09s23.27-111.88,79.06-124a102.38,102.38,0,0,1,30.18-2,104.51,104.51,0,0,1,93.14,82.09C1184.5,773.63,1149,829.24,1093.24,841.33Z"/><path class="cls-4" d="M1172.3,717.35a104.51,104.51,0,0,0-93.14-82.09,102.38,102.38,0,0,0-30.18,2c-55.79,12.09-91.26,67.71-79.06,124s67.52,92.2,123.32,80.09S1184.5,773.63,1172.3,717.35Zm-81.25,113.91a94.26,94.26,0,0,1-98.53-143,92.3,92.3,0,0,1,58.65-40.92c50.27-10.91,100.13,21.47,111.12,72.18S1141.34,820.35,1091.05,831.26Z"/><path class="cls-15" d="M1068.43,633c-.52,3.49-1.17,7-2,10.4a92.72,92.72,0,0,0-73.36,42.89,94,94,0,0,0-12.23,28.75,82,82,0,0,1-7.62-10.44,103.44,103.44,0,0,1,76.3-69.3A102.06,102.06,0,0,1,1068.43,633Z"/><path class="cls-14" d="M1271,572.45c-.43,7.28-.64,14.76-.62,22.39-30.83,8.7-101.74,24.69-145.38,2.87a266.52,266.52,0,0,1-27.21-15.39C1156.26,576.42,1215.45,573,1271,572.45Z"/><path class="cls-14" d="M998.94,605.55S916.52,654.71,837,648.71c-14.12-1.07-24.46-5-31.91-10.8q18.51-5.7,37.6-10.86a2.56,2.56,0,0,0,.46-.12c5.27-1.41,10.53-2.81,15.86-4.17,14.39-3.68,29-7.15,43.73-10.36,23.18-5.06,47.56-9.7,72.74-13.89Z"/><path class="cls-1" d="M1332.53,195.8c-.13-5.15-2.46-9.12-6.38-10.91-1.58-1.66-1.77-10.61-1.89-16-.26-11.58-.55-24.7-7.82-31.79-9.27-9-27.87,5.12-44.28,17.62l-2.59,2c2.71-11.85-1.14-22.41-7.37-27.42-6-4.86-13.89-4.5-20.51.93-3,2.46-16.78,10.77-75.44,38.83-5.41,2.57-11.14,5.3-17.11,8.12a149.43,149.43,0,0,0,1.24-21.79,45.92,45.92,0,0,0,5.17-11.46,62.34,62.34,0,0,0,1.93-8.7h0c2.77-9.16,2.79-20.33.06-31.44a64.88,64.88,0,0,0-9.93-22.24A68.06,68.06,0,0,0,1136.41,66c-8.66-8.82-18.34-12.87-27.55-11.62a172.21,172.21,0,0,0-68.58-44.06A190,190,0,0,0,950.69,2c-40,5.79-77.25,24.08-104.93,51.51-26.54,26.29-43.31,59.88-47.44,94.89-13.49,5.7-19.67,26.4-14.09,49.09,4.8,19.62,16.74,34.13,29.69,36.64a154.7,154.7,0,0,0,37.72,47.16c-16.2,12.93-26.42,26.88-29.64,40.54-3.47,14.7,1.17,29,13.42,41.26,11.78,11.82,27.61,17.6,45.26,19.06l9.94,55a22.62,22.62,0,0,0,6.42,12.2l-2,4.31c-4.57,9.65-10.25,21.66-14.59,34.6-6.8,20.29-8.72,38.24-5.84,54.69a116.38,116.38,0,0,0-17.48,4.22c-10.64,3.46-29.58,11.5-36.8,26.34-4.48,9.21-5.68,23.73,14,40.65,14.2,12.19,39.85,15.15,61.41,15.15a272.62,272.62,0,0,0,28.39-1.55c30.47-3.25,66-11.94,74.81-22.27,13.46-15.69,14.24-36.64,2-54.68a48.23,48.23,0,0,0-9.55-10.33c-3.92-3.32-4.85-4.1-3.82-11.42,2.24-15.86,25.06-31.33,63.51-43.56,24.73,7.18,60.23,25.5,81.73,54.47.66,5.56,3.89,25.3,17.27,41.26,15.65,18.63,56.66,19.46,59.42,19.5.68,0,3.32.13,7.35.13,17.86,0,62.76-2,82.22-21a30.14,30.14,0,0,0,9.57-22.9c-.3-14.65-5.51-26.23-15.49-34.43-14.78-12.14-37.48-14.6-57.59-13.75-10.7-22.45-27.43-51-36.71-66.48-8.85-14.76-18.23-29.76-26.08-41.72a23,23,0,0,0,2.31-14.84l-10.56-58.47c4.59-5.73,6.55-11.42,5.82-16.94a74.49,74.49,0,0,0-.3-14.5c48.71-18.6,107.49-46.38,127.39-56.5C1320.68,227.6,1332.86,208.13,1332.53,195.8Z"/><path class="cls-5" d="M1160.41,311.43c.68,3.95-2.3,8.25-4.94,11.17a63.33,63.33,0,0,1-11.6,9.72h0l0,0a89,89,0,0,1-8.58,4.88c-17.17,8.81-47.38,21-50.51,22.08a8.36,8.36,0,0,1-1.85.35c-.42,0-.83,0-1.19,0a8.93,8.93,0,0,1-8.41-8.23c-.41-5.31,4.45-9.67,9.23-11.08l0,0h0c22.27-7,41.3-15.08,55.3-23.43a103.2,103.2,0,0,0,13-9,57.39,57.39,0,0,0,6.1-5.73l0,0a5.3,5.3,0,0,0,.63-.54l.13-.14a4.53,4.53,0,0,0,.51-.63,0,0,0,0,0,0,0,3.3,3.3,0,0,0,.18-.32l.33-.4h0l1.5-.55a69.92,69.92,0,0,1,0,10.72s0,0,0,.08a4.69,4.69,0,0,0,0,.53,4,4,0,0,0,0,.5Z"/><path class="cls-5" d="M1082,369.67a13,13,0,0,1-10.65,12.59l-35.49,6.42L984.1,398A13,13,0,0,1,969.38,389a19.24,19.24,0,0,0,7-29.3c17.76-8.77,33.39-19.09,44.45-29.14,2.44-2.22,4.57-4.35,6.42-6.38.43-.47.84-.94,1.24-1.4l2-.35h0l15.89-2.87,13.18-2.38a12.94,12.94,0,0,1,15,10.45l.89,4.89c-7,3.63-12.83,10.81-12.15,19.72a19,19,0,0,0,17.88,17.45C1081.45,369.67,1081.7,369.67,1082,369.67Z"/><path class="cls-5" d="M1147.72,132.91a24.26,24.26,0,0,1-3.19,6.55,11.26,11.26,0,0,1-6.36,4.66C1129.53,146.24,1117,135,1112,115c-3.59-14.59-1.43-26.9,3.35-33.35a11.41,11.41,0,0,1,6.31-4.6,8.63,8.63,0,0,1,2.16-.26c4.8,0,10.4,3.52,15.18,9.91A80.7,80.7,0,0,1,1145.9,105,75.79,75.79,0,0,1,1147.72,132.91Z"/><path class="cls-5" d="M1140.21,165.29a136.94,136.94,0,0,1-2.45,19.5c-.16.83-.33,1.66-.52,2.49a144.2,144.2,0,0,1-13.56,37,156.87,156.87,0,0,1-23.5,33.2,168,168,0,0,1-31.51,26.7,177.47,177.47,0,0,1-30.45,16,15.43,15.43,0,0,0-3.15-7.61c.29-.47.76-1.1,1.11-1.56,1.74-2.3,4.36-5.77,3.09-10.3a14.4,14.4,0,0,0-.65-1.83,146.16,146.16,0,0,0,48.3-54.71,128.67,128.67,0,0,0,13.75-65.25q-.18-3.28-.54-6.57c8.16,10.11,18.16,16.1,28.1,16.1a24.07,24.07,0,0,0,12-3.16Z"/><path class="cls-5" d="M1032,271.3c-.31-.56-.35-1-.33-2.74l.2-.16.14-.11a0,0,0,0,0,0,0l0,0a135.18,135.18,0,0,0,23.88-25.4,1.89,1.89,0,0,0,.2-.27c18.62-25.94,26.45-57,22-87.33-10-68.83-79.39-115.94-154.72-105a147.11,147.11,0,0,0-65.19,26.18l-1.31,1c.52-.44,1-.89,1.57-1.32a149.35,149.35,0,0,1,74.15-32.48,152.28,152.28,0,0,1,44.52,0c56.11,8.39,102,48,111.75,101.4q.4,2.15.72,4.32C1096.5,196.38,1074.45,242.76,1032,271.3Z"/><path d="M866.17,271c-28.48-18.07-46.67-45.51-51.33-77.57C805.67,130.05,855,70.25,924.9,60.12s134.19,33.19,143.38,96.56c4,27.7-3.11,56-20.08,79.81l-.21.27a124.52,124.52,0,0,1-17.2,19.33c-.35-2-.82-4.24-1.46-6.8a10.72,10.72,0,0,0-6.12-7.43,13.53,13.53,0,0,0-3.81-1,2.63,2.63,0,0,0-.39-.06c-4.4-.48-9.78.62-15.7,2.66a3.89,3.89,0,0,0-.44.16l-.5.17c3.25-6.26,3.8-13.77-2.15-22.49-8.25-12.1-14.74-7.93-24.56-1.62-9.5,6.1-25.4,16.31-57.66,27.15A240.29,240.29,0,0,0,866.17,271Z"/><path class="cls-5" d="M1027.07,298.58c3.73,4.49-1.24,13.9-12.95,24.55-14.53,13.22-38.2,27.26-64,37-15.35-10.39-26.22-24.54-33.92-39.43-10.19-19.68-14.84-40.64-17-55.94,7-3.08,14.27-5.93,21.89-8.49,33.44-11.24,50-21.87,59.88-28.22,3.22-2.06,6.86-4.4,8.06-4.52.26.15,1.08.79,2.84,3.37,6.4,9.39,1.52,15.47-11.85,25.55-1.25.94-2.45,1.85-3.55,2.71-3.23,2.57-4,5.19-2.32,7.8.92,1.42,3.15,3.49,7.65,1.3.81-.39,2-1,3.35-1.71,19.32-10,28.14-12.27,32.11-12a6.42,6.42,0,0,0,.88.12,4.47,4.47,0,0,1,.87.27c.24.11.39.18.53.74,2.19,8.76,2.11,13,2,16.11,0,2.85-.11,5.54,1.88,8.85a15.42,15.42,0,0,0,5,5.25c.71.49.82.57,1,1.12a17.65,17.65,0,0,1-1.34,1.94c-1.48,2-4.61,6.1-2.82,10.78A10.44,10.44,0,0,0,1027.07,298.58Z"/><path class="cls-18" d="M966.56,364.27c2.36,1.29,3.68,3.57,3.92,6.79a8.89,8.89,0,0,1-5.29,8.84l-.2.08a8.56,8.56,0,0,1-2.08.58l-.57.06c-2,0-22.14-.64-39-2A231.64,231.64,0,0,0,966.56,364.27Z"/><path class="cls-5" d="M1205.06,270.92c-14.29,6.09-28.79,12-42.37,17.09l-7.23,2.66-1.22.44-.09,0-1.1.39-2.45.86c-1.34.48-2.68.95-4,1.4-3.95,1.36-7.68,2.57-11.16,3.64-6.33,1.95-11.86,3.42-16.51,4.41a5,5,0,0,0,1,9.89,4.54,4.54,0,0,0,1-.11c3.23-.68,6.86-1.59,10.82-2.7-12,7-28,13.94-46.79,20.13l-.59-3.24a22.93,22.93,0,0,0-26.65-18.51l-19,3.44a187.07,187.07,0,0,0,35.43-18.16,178.36,178.36,0,0,0,33.37-28.28,167.23,167.23,0,0,0,25-35.31,155.08,155.08,0,0,0,13.41-35c.39-1.57.75-3.15,1.09-4.73,6.78-3.19,13.28-6.27,19.41-9.19,10.07,17.06,24.63,44.26,33.63,72.47C1202,258.62,1203.73,264.79,1205.06,270.92Z"/><path class="cls-5" d="M1138.48,154.21a16.44,16.44,0,0,1-3.11,2.32,14.13,14.13,0,0,1-3.7,1.51c-13.93,3.42-31-15.09-37.2-40.42-3.17-12.92-3.2-25.71-.08-36,2.64-8.72,7.2-14.54,12.95-16.59a11.36,11.36,0,0,1,1.37-.42,14.23,14.23,0,0,1,3.39-.41,19.2,19.2,0,0,1,9.39,2.73,18.84,18.84,0,0,0-2.2.4c-15.48,3.8-23,25.79-17,50.05,5.37,21.86,19.54,37,33.63,37A18,18,0,0,0,1138.48,154.21Z"/><path class="cls-5" d="M952.12,11.9c55.49-8,109.73,9.24,146.54,46.34-6.2,4.08-11,11.09-13.84,20.45a69.62,69.62,0,0,0-2.72,21.08c-29-47.26-88-75.22-150.85-66.11-39.62,5.74-74.84,25.21-99.19,54.83-2.6,3.15-5,6.39-7.31,9.69C849,53.47,896.28,20,952.12,11.9Z"/><path class="cls-5" d="M793.94,195.12c-3.6-14.66-1.4-27,3.42-33.44a148.33,148.33,0,0,0,10,57.89C801.86,214.62,796.64,206.17,793.94,195.12Z"/><path class="cls-5" d="M938.7,364.15c-36.34,11.61-74.69,13.48-96.2-8.1a41,41,0,0,1-9.84-14.76,29.52,29.52,0,0,1-.93-17.15c4.43-18.81,26.56-39.2,58.1-54.92a191.35,191.35,0,0,0,13.53,47.7C910.94,334.11,922.15,351.14,938.7,364.15Z"/><path class="cls-18" d="M891.06,383.36c2.6.82,5.35,1.48,8.12,2.08,3.85,14.12,8.32,37.11,2.45,53.5a12.66,12.66,0,0,1-1.17-3.5Z"/><path class="cls-5" d="M991.35,599c-5.27,6.14-34,15.18-68.29,18.84-38.49,4.1-69.23-.1-82.22-11.25-12-10.24-15.84-19.89-11.56-28.68,9-18.42,50-30,74-25.21a5,5,0,1,0,1.95-9.81l-.25,0a80.93,80.93,0,0,0-20.5-1c-2.59-14.2-1.12-29.84,4.48-47.59,3.1-.56,6.46-1.11,10-1.62C925.21,489,963,487.72,993.14,503c-8.43,7.17-14.13,15.38-15.45,24.74-1.68,11.88,1.78,15.81,7.25,20.44a38,38,0,0,1,7.74,8.32C1002.25,570.62,1001.75,586.92,991.35,599Z"/><path class="cls-5" d="M1186.22,440.78c-30.51,4.06-56.94,19.05-76.38,33.8a230.43,230.43,0,0,0-19.57,16.65,186.85,186.85,0,0,0-22.43-10.52c1.54-.41,3.1-.81,4.68-1.21a75.84,75.84,0,0,0,41.25-26.9l0,0a5,5,0,0,0-7.93-6.09,65.92,65.92,0,0,1-35.79,23.34c-23.28,5.85-49.47,14.5-68,26.61-30.15-17.12-67.76-17.75-96-14.71-4.7.52-9.14,1.13-13.25,1.78,3.57-9.24,7.6-17.77,11.25-25.49,1.32-2.78,2.57-5.42,3.7-7.9.88-1.93,1.7-3.79,2.43-5.53,7.29-17.46,3.79-41.1-.18-57.23,4,.49,8.57.93,13.39,1.31,10.59.85,22.19,1.43,30.11,1.73,2.37.08,4.42.15,6,.19a22.9,22.9,0,0,0,22.26,17.67,23.15,23.15,0,0,0,4.13-.37l81.36-14.71,5.85-1.06a23,23,0,0,0,18.76-24.84c9.86-3.93,35.1-14.31,50-22.22.79,21.44,4,35.47,9.74,42.72,2.34,2.94,6.07,8.24,11.06,15.72C1169.62,414,1178,427.26,1186.22,440.78Z"/><path class="cls-5" d="M1298.66,557.25a20.2,20.2,0,0,1-6.55,15.53c-7.15,7-18.93,11.31-31.37,14-24,5.13-50.47,4.07-50.87,4h-.17c-10.82-.11-41.24-3.19-51.94-15.93-13.28-15.84-15.1-36.87-15.12-37.07a5,5,0,0,0-.93-2.55c-11.54-15.94-26.7-28.83-42.46-38.72,3.77-3.49,8.12-7.29,13-11.15,19.54-15.51,47.44-32.14,79.66-35.17,13.81,23.13,25.29,43.84,32.94,59.43-6.28.62-12.06,1.48-16.95,2.35a5,5,0,1,0,1.74,9.84c16.53-2.92,57.14-8,77.19,8.52C1294.55,536.69,1298.42,545.49,1298.66,557.25Z"/><path class="cls-5" d="M1165.45,389.77c-2.48-3.58-4.48-6.3-6-8.23-2.72-3.43-7.25-13.48-7.73-42.5,1.49-1.07,2.88-2.14,4.2-3.2l9.35,51.76A13.25,13.25,0,0,1,1165.45,389.77Z"/><path class="cls-5" d="M1322.54,196.07c.2,7.71-9.07,24-29.63,34.43-12.6,6.41-40.94,20-72.36,33.73l-6.14,2.68c-1.36-6-3-11.93-5-17.85-9.19-28.58-23.71-55.92-34-73.36l1-.48.73-.35.43-.2c61.89-29.75,68.23-35,70.37-36.71,4.45-3.65,7-1.57,7.9-.88,3.92,3.16,7.09,13,1.42,24.14-1.12,2.18-3.72,7.29.11,10.49s8.19.06,10.89-1.74,6-4.33,9.87-7.27c5-3.78,10.46-8,15.73-11.45,1.36-.89,2.7-1.74,4-2.52,9-5.38,11.47-4.44,11.5-4.44,4.35,4.24,4.6,15.67,4.8,24.85.26,11.61.48,21.64,7.73,24.85C1322.17,194.07,1322.5,194.75,1322.54,196.07Z"/><path class="cls-18" d="M1160.35,310.23s0,0,0,.08a4.69,4.69,0,0,0,0,.53,4,4,0,0,0,0,.5v.09c.68,3.95-2.3,8.25-4.94,11.17a63.33,63.33,0,0,1-11.6,9.72h0l0,0a89,89,0,0,1-8.58,4.88,57.8,57.8,0,0,0,2.65-20.32,103.2,103.2,0,0,0,13-9,57.39,57.39,0,0,0,6.1-5.73l0,0a5.3,5.3,0,0,0,.63-.54l.13-.14a4.53,4.53,0,0,0,.51-.63,0,0,0,0,0,0,0,3.3,3.3,0,0,0,.18-.32l.33-.4h0l1.5-.55A69.92,69.92,0,0,1,1160.35,310.23Z"/><path class="cls-18" d="M1200.07,252.5c2,6.12,3.66,12.29,5,18.42-14.29,6.09-28.79,12-42.37,17.09l-7.23,2.66-1.22.44-.09,0-1.1.39-2.45.86c-1.34.48-2.68.95-4,1.4-3.95,1.36-7.68,2.57-11.16,3.64,0-.41.11-.81.19-1.22.83-4.09,3.69-7.44,6.64-10.4C1158.26,269.79,1178.69,260.5,1200.07,252.5Z"/><path class="cls-18" d="M1109.84,474.58a230.43,230.43,0,0,0-19.57,16.65,186.85,186.85,0,0,0-22.43-10.52c1.54-.41,3.1-.81,4.68-1.21a75.84,75.84,0,0,0,41.25-26.9l0,0C1113.22,460,1109.82,467.12,1109.84,474.58Z"/><path class="cls-18" d="M1260.74,586.75c-24,5.13-50.47,4.07-50.87,4h-.17c-10.82-.11-41.24-3.19-51.94-15.93-13.28-15.84-15.1-36.87-15.12-37.07a5,5,0,0,0-.93-2.55c-11.54-15.94-26.7-28.83-42.46-38.72,3.77-3.49,8.12-7.29,13-11.15a50.08,50.08,0,0,0,6.78,11.06c4.88,6.22,10.63,11.78,14.92,18.42,11.9,18.39,12,43.87,28,58.8,13.72,12.78,34.45,13.42,53.2,13.33Z"/><path class="cls-18" d="M925.2,389.16c.25.69.49,1.39.73,2.1.25.32.53.62.77,1Z"/><path class="cls-18" d="M902.71,539.81a13.66,13.66,0,0,1,2.31,3.07,80.93,80.93,0,0,0-20.5-1c-2.59-14.2-1.12-29.84,4.48-47.59,3.1-.56,6.46-1.11,10-1.62-4.18,7.3-7.32,14.92-8,23.36-.48,6.22.68,12.89,4.8,17.57C897.91,535.9,900.56,537.6,902.71,539.81Z"/><path class="cls-18" d="M919.87,460.5c-4,7.31-9,14.22-13.83,21.21-4.7.52-9.14,1.13-13.25,1.78,3.57-9.24,7.6-17.77,11.25-25.49,1.32-2.78,2.57-5.42,3.7-7.9.88-1.93,1.7-3.79,2.43-5.53,7.29-17.46,3.79-41.1-.18-57.23,4,.49,8.57.93,13.39,1.31a19.66,19.66,0,0,1,2.55,2.61A88.43,88.43,0,0,1,919.87,460.5Z"/><path class="cls-18" d="M938.7,364.15c-36.34,11.61-74.69,13.48-96.2-8.1a41,41,0,0,1-9.84-14.76c17.21,15.79,42.42,23.12,65.16,17.23,2.87-.74,5.78-1.72,8-3.7,5-4.52,4.66-12.52,2.62-19-2-6.27-5.21-12.4-5.06-18.94C910.94,334.11,922.15,351.14,938.7,364.15Z"/><path class="cls-18" d="M1014.12,323.13c-14.53,13.22-38.2,27.26-64,37-15.35-10.39-26.22-24.54-33.92-39.43,6.45,2.35,9,10.7,14,15.75,9.4,9.45,25.37,5.81,37.38.05a163,163,0,0,0,44.23-31.17c4-3.92,8.21-8.29,13.49-9.57a10.44,10.44,0,0,0,1.69,2.81C1030.8,303.07,1025.83,312.48,1014.12,323.13Z"/><path class="cls-18" d="M1322,194c-7.25-3.21-7.47-13.24-7.73-24.85-.2-9.18-.45-20.61-4.8-24.85,0,0-2.46-.94-11.5,4.44-1.31.78-2.65,1.63-4,2.52,0,11.7,6,23.52,4.84,35.39-1.32,14.12-12.34,25.42-24.06,33.39-17.23,11.72-37.16,19-57.08,26.1-3.66-10.41-10-20.33-15.1-30.29-7.22-14.19-12.7-30.33-24.69-40.45l-1.36-.17-1,.48c10.25,17.44,24.77,44.78,34,73.36,1.91,5.92,3.59,11.9,5,17.85,33.82-14.66,65.08-29.58,78.5-36.41,20.56-10.45,29.83-26.72,29.63-34.43C1322.5,194.75,1322.17,194.07,1322,194Z"/><path class="cls-18" d="M1179.32,175.58l-4.11-2.26c.92.66,1.8,1.35,2.65,2.07Z"/><path class="cls-18" d="M987.32,379.91c-.31,2.58.16,5.61,2.35,7a8.61,8.61,0,0,0,4.59.86l41.48.08a4.87,4.87,0,0,1,.08.84L984.1,398A13,13,0,0,1,969.38,389a19.24,19.24,0,0,0,7-29.3c17.76-8.77,33.39-19.09,44.45-29.14,2.44-2.22,4.57-4.35,6.42-6.38,1-.62,2.12-1.21,3.2-1.75h0c5.17-2.61,10.59-4.18,15.89-2.87a15.15,15.15,0,0,1,1.78.55l-1.58,0a188.87,188.87,0,0,1-37.18,34.24C999.86,361,988.68,368.36,987.32,379.91Z"/><path class="cls-18" d="M1067.3,305.43c-1.11.51-2.23,1.05-3.34,1.6a23,23,0,0,0-6.19.27l-19,3.44a187.07,187.07,0,0,0,35.43-18.16,178.36,178.36,0,0,0,33.37-28.28,167.23,167.23,0,0,0,25-35.31,155.08,155.08,0,0,0,13.41-35C1144.44,254.45,1075.58,301.6,1067.3,305.43Z"/><path class="cls-18" d="M1067.24,393.16c-4.13,2.36-9,3.79-13.63,5C1029,404.82,1004,411.5,978.5,412.11c-4.56.1-9.33,0-13.35-2.19-6.63-3.56-9.39-11.46-11.6-18.65l-.06-.89c2.37.08,4.42.15,6,.19a22.9,22.9,0,0,0,22.26,17.67,23.15,23.15,0,0,0,4.13-.37Z"/><path class="cls-18" d="M1032,271.3c-.31-.56-.35-1-.33-2.74l.2-.16.14-.11a0,0,0,0,0,0,0l0,0a135.18,135.18,0,0,0,23.88-25.4,1.89,1.89,0,0,0,.2-.27c18.62-25.94,26.45-57,22-87.33-10-68.83-79.39-115.94-154.72-105a147.11,147.11,0,0,0-65.19,26.18l.26-.37a149.35,149.35,0,0,1,74.15-32.48,152.28,152.28,0,0,1,44.52,0c38.86,8.56,74.33,33.4,94,68.16,6.15,10.89,11,22.84,17.79,33.24q.4,2.15.72,4.32C1096.5,196.38,1074.45,242.76,1032,271.3Z"/><path class="cls-18" d="M1137.24,187.28a144.2,144.2,0,0,1-13.56,37,156.87,156.87,0,0,1-23.5,33.2,168,168,0,0,1-31.51,26.7,177.47,177.47,0,0,1-30.45,16,15.43,15.43,0,0,0-3.15-7.61c.29-.47.76-1.1,1.11-1.56,1.74-2.3,4.36-5.77,3.09-10.3a14.4,14.4,0,0,0-.65-1.83,146.16,146.16,0,0,0,48.3-54.71,128.67,128.67,0,0,0,13.75-65.25l.66.58C1112.88,169.32,1129.59,175.19,1137.24,187.28Z"/><path class="cls-18" d="M1107.62,65.66l-.12.11c.08.34.15.68.22,1Z"/><path class="cls-18" d="M1135.37,156.53a14.13,14.13,0,0,1-3.7,1.51c-13.93,3.42-31-15.09-37.2-40.42-3.17-12.92-3.2-25.71-.08-36,2.64-8.72,7.2-14.54,12.95-16.59.05.26.11.52.16.77-3.76,3.7-7.57,7.48-10,12.18-2.49,4.91-3.26,10.52-3.46,16-.64,17.72,4.52,35.77,15.25,49.89,3.6,4.74,8,9.17,13.61,11.2C1126.89,156.5,1131.15,156.63,1135.37,156.53Z"/><path class="cls-18" d="M1144.53,139.46a11.26,11.26,0,0,1-6.36,4.66C1129.53,146.24,1117,135,1112,115c-3.59-14.59-1.43-26.9,3.35-33.35a24.44,24.44,0,0,0-1,3.93c-2.37,13,.8,26.52,6.84,38.24,2.61,5.07,5.88,10,10.64,13.13A16.67,16.67,0,0,0,1144.53,139.46Z"/><ellipse class="cls-19" cx="986.94" cy="104.62" rx="12" ry="34" transform="translate(456.6 943.51) rotate(-63.75)"/><path class="cls-19" d="M900,88.73s-82.5,30-64.5,118.5C835.53,207.23,847.53,115.73,900,88.73Z"/></g></g></svg>