<svg xmlns="http://www.w3.org/2000/svg" viewBox="0 0 1697.06 1513.17"><defs><style>.cls-1{fill:#fbbd5a;}.cls-2{fill:#fed478;}.cls-3{fill:#ffd25d;}.cls-4{fill:#fab859;}.cls-5{fill:#ffe69e;}.cls-6{fill:#fed899;}.cls-7{fill:#ffe7b1;}.cls-8{fill:#fedb9a;}.cls-9{fill:#fff;}.cls-10{fill:#88a66c;}.cls-11{fill:#9fbc84;}.cls-12{fill:#cbd9b6;}</style></defs><title>sendtoken</title><g id="Layer_2" data-name="Layer 2"><g id="Capa_2" data-name="Capa 2"><path class="cls-1" d="M1389.55,745,1389,546c31,1.1,52.2,26.41,52.32,69.42s-20.89,92.69-51.77,129.56"/><polyline class="cls-1" points="1366.39 237.42 1369.55 239.25 1372.34 240.86 1374.82 242.27 1377.07 243.49 1379.12 244.56 1381.05 245.49 1382.91 246.31 1384.74 247.03 1386.61 247.69 1388.59 248.29 1390.71 248.88 1393.04 249.46 1395.64 250.08 1398.53 250.75 1401.8 251.53 1405.45 252.41 1401.8 251.53 1398.53 250.75 1395.64 250.08 1393.04 249.46 1390.71 248.88 1388.59 248.29 1386.61 247.69 1384.74 247.03 1382.91 246.31 1381.05 245.49 1379.12 244.56 1377.07 243.49 1374.82 242.27 1372.34 240.86 1369.55 239.25 1366.39 237.42"/><path class="cls-1" d="M1244.4,467.72c-.11-43,20.87-92.69,51.76-129.52l.57,199c-31-1.14-52.2-26.41-52.33-69.46"/><path class="cls-1" d="M1341.88,199.39c161.27-93.1,292.39-18.37,292.92,166.92s-129.75,411-291,504.06-292.39,18.38-292.93-166.92,129.77-411,291-504.06m130.4,398.2c-.17-63.13-34.85-97.21-83.4-90.57l-.63-222c31,1.11,52.2,26.4,52.32,69.43l31-17.89c-.17-63.12-34.85-97.2-83.41-90.56l-.13-47.17-31,17.9.1,38.42a153.38,153.38,0,0,0-15,7.63q-7.63,4.41-15.06,9.75l-.1-38.43-31,17.89.14,47.17c-48.44,49.35-82.8,123.29-82.62,186.43s34.85,97.23,83.4,90.59l.63,222c-31-1.13-52.21-26.4-52.33-69.45l-31,17.88c.16,63.15,34.85,97.24,83.39,90.59l.11,33.71,31-17.9-.06-25a166.75,166.75,0,0,0,15.05-7.64c5.09-2.95,10.09-6.24,15-9.74l.08,25,31-17.89-.11-33.71c48.43-49.35,82.82-123.29,82.63-186.45"/><path class="cls-2" d="M1472.27,597.59a140.08,140.08,0,0,0-3.64-32.46c-10.08-42-40.35-63.51-79.75-58.12l-.26-93.82L1388.23,285c31,1.11,52.22,26.41,52.35,69.41l31-17.87c-.17-63.13-34.85-97.2-83.41-90.56l-.13-47.17-31,17.88.11,38.43a152.39,152.39,0,0,0-15.05,7.64,174.47,174.47,0,0,0-15.07,9.75l-.1-38.44-31,17.91.12,47.17a290,290,0,0,0-33.81,41.73,305.6,305.6,0,0,0-39.52,83.57c-6,20.7-9.33,41.43-9.28,61.12.17,63.15,34.85,97.22,83.4,90.59l.16,55.58v0l.3,106.34.17,60c-31-1.14-52.21-26.41-52.32-69.47l-31,17.87c.19,63.16,34.84,97.26,83.41,90.62l.1,33.68,31-17.87-.06-24.95a165.75,165.75,0,0,0,15.05-7.66c5.09-2.95,10.09-6.23,15.06-9.73l.06,25,31-17.88-.06-26.76,0-7a302.71,302.71,0,0,0,50.82-70.21c19.89-37.61,31.91-78.82,31.8-116.24M1342.18,298.38a120.58,120.58,0,0,1,15-7.34l.28,104.36.32,106.37,0,14.41a156.89,156.89,0,0,0-15.06,7.63,116,116,0,0,1-15.06,7.34l-.14-46.65-.3-106.37-.19-69.71a145.42,145.42,0,0,1,15.06-10m-97.79,169.34a150.65,150.65,0,0,1,2.89-29.2c5.58-29.09,19-59.17,37.09-85,3.76-5.29,7.69-10.45,11.79-15.34l.06,22.13.32,106.37.22,70.47c-31-1.14-52.22-26.41-52.37-69.46m114.2,307.09a149.72,149.72,0,0,1-15,10,117.87,117.87,0,0,1-15.06,7.39l-.12-36.25-.29-106.37-.23-82.52a154.59,154.59,0,0,0,15.06-7.63A117.19,117.19,0,0,1,1358,552l.31,114.81.32,106.37v1.6m31-29.79-.19-60.39L1389,546c31,1.1,52.2,26.41,52.32,69.45.09,27.56-8.53,57.88-22.86,85.78A236.43,236.43,0,0,1,1389.55,745"/><path class="cls-3" d="M1341.69,127.85c-14,8.08-27.8,17-41.34,26.66-34.11,24.19-66.69,53.15-97.09,85.62-98.77,105.45-174.33,247.77-202.56,385.15-8,38.74-12.18,77.1-12.06,114.1,0,6.93.19,13.75.49,20.43,9.63,202.88,155.15,286,336.22,192.27h0c6.15-3.17,12.38-6.58,18.62-10.17,32-18.47,63-41.27,92.43-67.44,105.21-93.4,190.82-230,232.7-367.92,12.9-42.45,21.69-85,25.56-126.53q2.43-25.14,2.36-49.66c-.66-224.77-159.73-315.47-355.37-202.51m293.13,238.47c.11,36.38-4.84,74.36-14.13,112.56-33.8,140-125.27,283.26-237.08,365.36a427.06,427.06,0,0,1-39.85,26.13c-33.82,19.55-66.35,31.7-96.64,37C1163.32,922,1096.78,884,1067.33,804.52c-10.57-28.52-16.33-62.39-16.45-101.06a413.86,413.86,0,0,1,2.67-48c15.06-137.42,93.52-288.1,198.14-387.63,28.38-27,58.68-50.28,90.19-68.46,6.39-3.68,12.74-7.13,19-10.26,146.31-73.66,263.67-6.62,273.32,156.3q.55,10.21.61,20.9"/><path class="cls-1" d="M1327.85,567.06a164.29,164.29,0,0,0,15.06-7.64,118.3,118.3,0,0,1,15-7.38l.63,222.77a150.85,150.85,0,0,1-15,10,119.66,119.66,0,0,1-15,7.38l-.65-225.13"/><path class="cls-1" d="M1327.12,308.41a146.82,146.82,0,0,1,15.06-10,117.33,117.33,0,0,1,15-7.36l.65,225.14a158.18,158.18,0,0,0-15.06,7.64,116.12,116.12,0,0,1-15.06,7.35l-.63-222.75"/><path class="cls-4" d="M1457.32,23.91c-64.41-37.43-153.59-32.16-252,24.68-195.62,113-353.7,386.73-353.07,611.53C852.53,771.8,892,850.37,955.56,887.31L1092,966.59c-63.58-37-103-115.53-103.31-227.2C988,514.6,1146.06,240.81,1341.69,127.86c98.43-56.84,187.62-62.11,252-24.68q-68.19-39.65-136.41-79.27"/><path class="cls-5" d="M1051.26,684.5l-62.31,36v0l62.31-36v0m-50.56-59.22h0q-1.56,7.58-2.92,15.14l14.64-8.45-11.72-6.69"/><path class="cls-6" d="M989,720.47h0v0"/><path class="cls-5" d="M1383.61,844.24h0a427.06,427.06,0,0,1-39.85,26.13,361.53,361.53,0,0,1-32.2,16.58l-.59.27-.83.37-.24.1-.78.35-.22.1q-13.83,6.09-27.24,10.48l-.08,0-1.87.6-.39.13-.47.14a243,243,0,0,1-31.73,7.81l78.23,44.75h0c6.15-3.17,12.38-6.58,18.62-10.17,32-18.47,63-41.27,92.43-67.44l-52.83-30.23"/><path class="cls-5" d="M1300.35,154.51h0q-12.35,8.76-24.41,18.33l-.14.11-.11.08a672.88,672.88,0,0,0-68.79,63.24,0,0,0,0,1,0,0l-.19.2-3.42,3.63,48.43,27.71c28.38-27,58.68-50.28,90.19-68.46,6.39-3.68,12.74-7.13,19-10.26l-60.54-34.61"/><path class="cls-6" d="M1206.87,236.3a1.8,1.8,0,0,1-.19.2h0l.19-.2h0M1275.69,173a666.28,666.28,0,0,0-68.79,63.24h0A672.88,672.88,0,0,1,1275.69,173h0m.25-.19-.14.11h0l.14-.11h0"/><path class="cls-5" d="M1634.21,345.42q.55,10.21.61,20.9v.85a448.68,448.68,0,0,1-6.83,76.67q-3,17.45-7.3,35l48.45,27.67c12.9-42.45,21.69-85,25.56-126.53l-60.49-34.6"/><polyline class="cls-7" points="1328.15 678 1312.5 699.44 1297.26 720.3 1297.31 738.15 1328.36 755.94 1328.15 678"/><path class="cls-7" d="M1358.28,666.84l.18,62.81.13,43.56,31.1,17.79,0-7h0a302.71,302.71,0,0,0,50.82-70.21l-22-12.57h0a239.35,239.35,0,0,1-15.64,26.25l-.33.48-.17.25-.18.26q-5.6,8.06-11.77,15.53l-.17.21-.23.27-.42.51h0l-.19-60.39-31.08-17.79"/><polyline class="cls-8" points="1358.27 666.84 1358.46 729.65 1358.28 666.84 1358.27 666.84"/><path class="cls-7" d="M1262.24,340.92h0a312.11,312.11,0,0,0-31.62,60.38c0,.11-.09.22-.13.33l-.21.53s0,.07,0,.11q-4.26,11.06-7.52,22.22l24.56,14c5.58-29.09,19-59.17,37.09-85l-22.13-12.63"/><polyline class="cls-7" points="1296.22 360.34 1296.54 466.71 1327.61 484.5 1327.31 378.13 1296.22 360.34"/><path class="cls-9" d="M1468.45,564.4l.18.73h0l-.18-.73m-43.61-54c21,7.75,36.57,26.16,43.46,53.46-6.7-26.55-21.57-44.69-41.74-52.8l-.14-.06-.18-.07-.27-.11-.1,0-1-.38m-.32-.12.26.09-.26-.09m-.35-.13.15.06-.15-.06"/><path class="cls-8" d="M1426.42,511l.14.06-.14-.06m-.45-.18.27.11-.27-.11m-35.59-3.95h0m10.41-.63a70,70,0,0,1,23.38,3.91l.15.06.2.07.26.09.06,0,1,.38a69.44,69.44,0,0,0-25.08-4.54m-.2,0h0m-12-93h0l.26,93.82.68-.09-.68.09-.26-93.82"/><path class="cls-7" d="M1357.52,395.41l.31,106.36,44.66,25.54,30.89,6.53-5.74,7.85,41,23.44-.18-.73-.15-.59c-6.89-27.3-22.42-45.71-43.46-53.46l-.06,0-.26-.09-.2-.07-.15-.06a70,70,0,0,0-23.38-3.91h-.25a84.33,84.33,0,0,0-10.16.63h0l-.78.1-.68.09-.26-93.82-31.1-17.78"/><polyline class="cls-8" points="1357.51 395.4 1357.83 501.77 1357.52 395.41 1357.51 395.4"/><path class="cls-1" d="M537.34,1267.71l-.56-199c31,1.1,52.2,26.4,52.32,69.43s-20.89,92.69-51.76,129.55"/><polyline class="cls-1" points="514.18 760.11 517.33 761.94 520.12 763.55 522.61 764.96 524.86 766.18 526.91 767.25 528.83 768.18 530.69 769 532.53 769.72 534.4 770.37 536.38 770.98 538.5 771.56 540.83 772.15 543.42 772.77 546.31 773.44 549.58 774.21 553.23 775.1 549.58 774.21 546.31 773.44 543.42 772.77 540.83 772.15 538.5 771.56 536.38 770.98 534.4 770.37 532.53 769.72 530.69 769 528.83 768.18 526.91 767.25 524.86 766.18 522.61 764.96 520.12 763.55 517.33 761.94 514.18 760.11"/><path class="cls-1" d="M392.19,990.41c-.12-43,20.87-92.68,51.76-129.52l.56,199c-31-1.14-52.2-26.4-52.32-69.46"/><path class="cls-1" d="M489.68,722.08C650.93,629,782.06,703.71,782.58,889s-129.75,411-291,504.06-292.4,18.37-292.92-166.93,129.76-411,291-504.05m130.38,398.19c-.17-63.12-34.85-97.2-83.4-90.56l-.61-222c31,1.11,52.19,26.41,52.32,69.44l31-17.89c-.18-63.13-34.85-97.21-83.41-90.56l-.12-47.17-31,17.89.12,38.42a150.53,150.53,0,0,0-15.06,7.65c-5.09,2.93-10.1,6.19-15.06,9.73l-.1-38.42-31,17.9.13,47.16c-48.42,49.35-82.8,123.3-82.62,186.42s34.85,97.24,83.4,90.6l.64,222c-31-1.14-52.21-26.41-52.32-69.46l-31,17.87c.16,63.16,34.84,97.24,83.39,90.6l.1,33.71,31-17.89-.06-25a165.44,165.44,0,0,0,15.05-7.64c5.09-2.94,10.1-6.24,15-9.74l.06,25,31-17.9-.1-33.7c48.43-49.35,82.81-123.3,82.62-186.46"/><path class="cls-2" d="M620.06,1120.28a139.51,139.51,0,0,0-3.65-32.46c-10.08-42-40.35-63.51-79.75-58.12l-.26-93.83L536,807.72c31,1.12,52.22,26.42,52.35,69.43l31-17.88c-.17-63.13-34.85-97.21-83.4-90.56l-.13-47.17-31,17.88.13,38.43a152.52,152.52,0,0,0-15.06,7.64,175,175,0,0,0-15.05,9.75l-.12-38.44-31,17.91.12,47.17A290,290,0,0,0,410,863.61a305,305,0,0,0-39.52,83.56c-6,20.71-9.34,41.44-9.29,61.12.17,63.17,34.85,97.23,83.4,90.6l.17,55.58v0l.3,106.34.17,60c-31-1.13-52.21-26.41-52.32-69.48l-31,17.88c.2,63.16,34.85,97.26,83.43,90.62l.08,33.69,31-17.88-.06-25a159.54,159.54,0,0,0,15.05-7.66c5.1-2.94,10.1-6.23,15.06-9.72l0,25,31-17.89,0-26.75,0-7a302.49,302.49,0,0,0,50.82-70.2c19.9-37.63,31.91-78.83,31.8-116.25M490,821.06A121.15,121.15,0,0,1,505,813.73l.29,104.35.31,106.37.05,14.42a157,157,0,0,0-15.07,7.63,115.25,115.25,0,0,1-15,7.34l-.14-46.65-.29-106.38-.21-69.7A149.38,149.38,0,0,1,490,821.06M392.17,990.41a152.15,152.15,0,0,1,2.89-29.2c5.6-29.09,18.94-59.17,37.09-85,3.76-5.3,7.7-10.46,11.8-15.34L444,883l.32,106.37.19,70.46c-31-1.14-52.2-26.41-52.36-69.45m114.2,307.09a146.39,146.39,0,0,1-15.05,10,118.45,118.45,0,0,1-15.05,7.39l-.12-36.25-.29-106.37-.23-82.53a152.11,152.11,0,0,0,15.05-7.62,118,118,0,0,1,15.07-7.4l.31,114.82.31,106.36v1.61m31-29.79-.17-60.39-.38-138.61c31,1.11,52.22,26.42,52.32,69.45.09,27.58-8.52,57.89-22.85,85.79a235.81,235.81,0,0,1-28.92,43.76"/><path class="cls-3" d="M489.47,650.53q-21,12.13-41.33,26.67c-34.11,24.19-66.7,53.14-97.08,85.62C252.27,868.26,176.71,1010.59,148.5,1148c-8,38.74-12.2,77.1-12.07,114.11,0,6.93.19,13.74.5,20.43,9.63,202.87,155.13,286,336.2,192.27h0c6.16-3.18,12.39-6.59,18.63-10.18,32-18.46,63-41.26,92.42-67.43,105.21-93.4,190.83-230,232.72-367.91,12.89-42.47,21.68-85,25.54-126.53q2.43-25.15,2.37-49.68c-.66-224.77-159.74-315.46-355.38-202.51M782.6,889c.11,36.38-4.83,74.36-14.12,112.56-33.8,140-125.25,283.26-237.09,365.36a428.11,428.11,0,0,1-39.83,26.13c-33.81,19.54-66.36,31.7-96.65,37-83.8,14.63-150.34-23.38-179.79-102.81-10.57-28.53-16.34-62.39-16.46-101.07a421,421,0,0,1,2.68-48c15-137.4,93.51-288.1,198.14-387.62,28.38-27,58.67-50.28,90.19-68.47,6.39-3.68,12.72-7.12,19-10.25C655,638.14,772.34,705.19,782,868.11q.56,10.21.6,20.9"/><path class="cls-1" d="M475.64,1089.74a159.38,159.38,0,0,0,15.06-7.64,119,119,0,0,1,15.05-7.38l.64,222.78a149.15,149.15,0,0,1-15.05,10,120.55,120.55,0,0,1-15.06,7.39l-.64-225.14"/><path class="cls-1" d="M474.9,831.1a148.61,148.61,0,0,1,15.07-10,117.87,117.87,0,0,1,15-7.36l.66,225.13a160.7,160.7,0,0,0-15.07,7.64,116.23,116.23,0,0,1-15,7.37L474.9,831.1"/><path class="cls-4" d="M605.12,546.59c-64.41-37.42-153.6-32.15-252,24.69C157.44,684.22-.63,958,0,1182.81c.32,111.67,39.75,190.24,103.34,227.2l136.39,79.27c-63.57-37-103-115.54-103.32-227.2-.64-224.8,157.43-498.58,353.06-611.53,98.44-56.84,187.64-62.12,252-24.68l-136.4-79.28"/><path class="cls-5" d="M148.5,1148h0c-7.85,38.13-12.06,75.9-12.08,112.37,0,.58,0,1.16,0,1.74,0,6.93.19,13.74.5,20.43l78.19,44.71c-8.28-22.33-13.61-47.94-15.59-76.56,0-.21,0-.42-.05-.63a.76.76,0,0,0,0-.15q-.76-11.49-.81-23.61v-1.59a420.51,420.51,0,0,1,2.68-46.52L148.5,1148"/><path class="cls-5" d="M531.39,1366.93h0a428.11,428.11,0,0,1-39.83,26.13q-9.53,5.51-18.9,10.22l-1,.52-.74.38-.17.08a312.82,312.82,0,0,1-38,16l-.41.14-.37.13a248.36,248.36,0,0,1-37,9.53l78.22,44.75h0c6.16-3.18,12.39-6.59,18.63-10.18,32-18.46,63-41.26,92.42-67.43l-52.83-30.23"/><path class="cls-5" d="M448.14,677.2h0q-15.33,10.88-30.24,23a667.26,667.26,0,0,0-51,46.26q-8,8-15.79,16.36l48.42,27.71c28.38-27,58.67-50.28,90.19-68.47,6.39-3.68,12.72-7.12,19-10.25L448.14,677.2"/><path class="cls-6" d="M417.9,700.2a659.23,659.23,0,0,0-51,46.26h0a667.26,667.26,0,0,1,51-46.26h0"/><path class="cls-5" d="M781,926.91a480.9,480.9,0,0,1-6.87,48.88q-2.48,12.86-5.61,25.78l48.46,27.68a683.45,683.45,0,0,0,19.4-80.78l-8.27,4.77v0L781,926.91"/><polyline class="cls-7" points="444.79 1154.5 445.09 1260.84 476.15 1278.63 475.86 1172.26 444.79 1154.5"/><path class="cls-7" d="M506.08,1189.54l.3,106.36,31.1,17.79,0-7h0a302.49,302.49,0,0,0,50.82-70.2l-22-12.58h0a235.81,235.81,0,0,1-28.92,43.76l-.17-60.39-31.08-17.78"/><polyline class="cls-8" points="506.06 1189.53 506.37 1295.89 506.38 1295.9 506.08 1189.54 506.06 1189.53"/><path class="cls-7" d="M410,863.61h0a305,305,0,0,0-39.52,83.56l24.55,14c5.6-29.09,18.94-59.17,37.09-85L410,863.61"/><polyline class="cls-7" points="444.01 883.03 444.34 989.4 475.4 1007.19 475.2 934.51 475.1 900.82 444.01 883.03"/><polyline class="cls-8" points="475.1 900.82 475.2 934.51 475.11 900.82 475.1 900.82"/><path class="cls-9" d="M576.53,1034.62c19.39,8.66,33.59,26.91,39.88,53.2h0c-6-25.23-19.36-43-37.55-52.1l-.05,0-.26-.13-.27-.13-.06,0-1.69-.79m-.37-.16h0"/><path class="cls-8" d="M578.81,1035.7l.05,0-.05,0m-.53-.26.27.13-.27-.13m-29.52-6.56a68.53,68.53,0,0,1,27.4,5.58h0l.33.15,1.69.79a68,68,0,0,0-29.46-6.53m-.39,0h0m-11.72-2.45h0v3.27l.76-.11-.76.11v-3.27"/><path class="cls-7" d="M505.31,918.09l.3,106.36,110.8,63.37c-6.29-26.29-20.49-44.54-39.88-53.2l-.33-.15h0a68.53,68.53,0,0,0-27.4-5.58h-.44a87,87,0,0,0-10.9.71l-.76.11v-3.27l-.25-90.56-31.09-17.78"/><polyline class="cls-8" points="505.3 918.08 505.61 1024.45 505.31 918.09 505.3 918.08"/><polygon class="cls-10" points="1251.58 782.84 1119.32 705.98 1119.11 632.02 1251.37 708.88 1251.58 782.84"/><polygon class="cls-10" points="1250.76 495.24 1184.83 458.34 1367.45 496.93 1433.38 533.83 1250.76 495.24"/><polyline class="cls-10" points="1250.97 569.2 1185.04 532.3 1184.83 458.34 1250.77 495.24 1250.97 569.2"/><polyline class="cls-10" points="827.67 813.58 761.74 776.69 1185.04 532.3 1250.97 569.2 827.67 813.58"/><polyline class="cls-10" points="828.07 953.27 762.14 916.38 761.74 776.69 827.67 813.58 828.07 953.27"/><polyline class="cls-11" points="1433.38 533.84 1358.9 635.88 1312.5 699.44 1251.56 782.85 1251.37 708.87 932.91 892.71 854.49 937.97 828.05 953.25 827.96 922.81 827.71 832.52 827.65 813.59 1168.3 616.96 1246.67 571.69 1250.97 569.22 1250.77 495.24 1433.38 533.84"/><polyline class="cls-10" points="820.05 1108.28 767.15 1075.38 1190.45 830.99 1243.35 863.89 820.05 1108.28"/><polyline class="cls-10" points="638.04 1283.34 585.14 1250.43 766.94 1001.45 819.84 1034.35 638.04 1283.34"/><polyline class="cls-11" points="1243.76 1003.6 1185.54 1037.2 1107.17 1082.47 927.42 1186.2 849.01 1231.47 820.44 1247.97 820.65 1321.9 638.04 1283.36 726.89 1161.64 773.3 1098.09 819.85 1034.34 820.04 1108.27 985.35 1012.84 1063.78 967.58 1243.35 863.9 1243.76 1003.6"/><polyline class="cls-12" points="773.3 1098.09 773.3 1098.09 726.89 1161.64 849.01 1231.47 927.42 1186.2 773.3 1098.09"/><polyline class="cls-12" points="827.71 832.52 827.96 922.81 854.49 937.97 932.91 892.71 827.71 832.52"/><polyline class="cls-12" points="1063.78 967.58 1063.78 967.58 1009.22 999.07 985.35 1012.84 1107.17 1082.47 1185.54 1037.2 1063.78 967.58"/><polyline class="cls-12" points="1246.67 571.69 1246.67 571.69 1168.3 616.96 1312.5 699.44 1358.9 635.88 1246.67 571.69"/></g></g></svg>