<svg xmlns="http://www.w3.org/2000/svg" xmlns:xlink="http://www.w3.org/1999/xlink" viewBox="0 0 1898.75 562.62"><defs><style>.cls-1{fill:#da8c8d;}.cls-2{fill:#cad2ea;}.cls-3{fill:#eef2f8;}.cls-4{fill:#f4c54e;}.cls-5{fill:#f9dd89;}.cls-6{fill:#8296c9;}.cls-7{clip-path:url(#clip-path);}.cls-8{fill:#c17276;}.cls-9{fill:#fff;}.cls-10{fill:#343766;}.cls-11{clip-path:url(#clip-path-2);}.cls-12{clip-path:url(#clip-path-3);}.cls-13{clip-path:url(#clip-path-4);}</style><clipPath id="clip-path"><path class="cls-1" d="M1359.43,96.62s1.66,34-4.88,65.61-21.29,60.85-54.1,51.35-54.89-35.6-64.55-64.68-6.89-61.12,10-82.57,45.6-36,69.89-34.2S1360,52.27,1359.43,96.62Z"/></clipPath><clipPath id="clip-path-2"><path class="cls-1" d="M475.91,549.42,456.6,435l-19.31-114.4s-12.18,29.94-25,64.55S386.09,459,383.62,477.7l-4.82-.23-4.82-.24-98.16-3.92-98.16-3.92.18,17.78L178,505s26.71,10.95,64.08,21.89,85.37,21.89,128,21.89H393.7l.2.51a1.52,1.52,0,0,0,.07.18h81.94Z"/></clipPath><clipPath id="clip-path-3"><path class="cls-1" d="M776,503.42l-20.61-50.94-20.62-50.93a114.25,114.25,0,0,0-51.27,26c-11,9.71-16.08,18.13-16.08,18.13l5,12.48,5,12.48c-34.56-3.47-73.07-3-105.54-1.35s-58.9,4.44-69.33,5.65c-3.21-.71-9.14-1.93-15.62-2.86s-13.53-1.58-19-1.12a15.67,15.67,0,0,0-7.14,3,53.89,53.89,0,0,0-20,61.45h43.46l8.68-7,8.68-7,103.68,14.05L709,549.42h36a33.46,33.46,0,0,0,31-46Z"/></clipPath><clipPath id="clip-path-4"><path class="cls-1" d="M437.48,133.05s-1.66,34,4.88,65.61,21.29,60.86,54.1,51.35,54.89-35.6,64.55-64.67,6.89-61.13-10-82.57-45.6-36-69.89-34.2S436.89,88.7,437.48,133.05Z"/></clipPath></defs><title>support</title><g id="Layer_2" data-name="Layer 2"><g id="Layer_1-2" data-name="Layer 1"><path class="cls-2" d="M232.6,216.07a107.75,107.75,0,1,1,76.07-31.56A107.3,107.3,0,0,1,232.6,216.07Z"/><path class="cls-3" d="M325.47,108.44a92.87,92.87,0,1,1-27.2-65.67A92.56,92.56,0,0,1,325.47,108.44Z"/><path class="cls-2" d="M231.45,191.15c-1,0-2-.05-3-.1s-2-.11-3-.2l.06-.78.07-.78c1,.09,1.94.15,2.91.2s2,.08,2.93.09v1.57Zm6-.13,0-.78-.05-.78c1-.06,1.95-.13,2.92-.22s1.94-.2,2.9-.33l.1.78.1.78c-1,.12-2,.23-3,.33S238.39,191,237.4,191Zm-17.82-.88c-1-.16-2-.33-2.93-.52s-2-.4-2.91-.62l.17-.77.18-.76c.95.22,1.9.43,2.86.61s1.92.36,2.88.51l-.12.77Zm29.63-.65-.15-.77-.16-.77c.94-.19,1.89-.4,2.84-.63s1.9-.48,2.84-.74l.21.75.21.76c-1,.27-1.92.52-2.89.75S250.18,189.29,249.21,189.49ZM208,187.43c-.94-.29-1.89-.6-2.83-.93s-1.88-.68-2.8-1.05l.29-.72.28-.73c.91.35,1.83.69,2.75,1s1.85.63,2.77.92l-.23.74Zm52.69-1.16-.27-.74-.26-.73c.9-.33,1.81-.68,2.72-1s1.8-.75,2.69-1.14l.32.71.32.72c-.91.4-1.82.79-2.75,1.16S261.6,185.94,260.68,186.27Zm-63.79-3.2c-.9-.43-1.79-.88-2.67-1.34s-1.75-.94-2.61-1.43l.39-.68.39-.68c.84.48,1.69.95,2.56,1.4s1.74.9,2.62,1.32l-.34.71Zm74.66-1.64-.37-.69-.37-.69c.85-.45,1.7-.93,2.54-1.42s1.68-1,2.51-1.52l.42.67.41.66c-.84.53-1.69,1-2.55,1.55S272.41,181,271.55,181.43Zm-85-4.27c-.82-.55-1.64-1.12-2.44-1.7s-1.61-1.19-2.39-1.8l.48-.62.48-.61c.77.6,1.55,1.19,2.35,1.76s1.59,1.13,2.39,1.67l-.44.65Zm95.06-2.08-.46-.63-.47-.63c.79-.58,1.56-1.17,2.33-1.78s1.52-1.23,2.25-1.85l.51.59.51.6c-.75.64-1.52,1.27-2.3,1.89S282.41,174.49,281.61,175.08Zm-104.45-5.25c-.74-.67-1.46-1.35-2.18-2s-1.41-1.4-2.1-2.12l.57-.54.56-.54c.67.7,1.36,1.39,2.06,2.07s1.42,1.35,2.14,2l-.53.58Zm113.51-2.48-.55-.56-.55-.55c.69-.68,1.37-1.38,2-2.09s1.33-1.44,2-2.17l.59.52.59.52c-.66.74-1.33,1.48-2,2.2S291.37,166.66,290.67,167.35Zm-121.75-6.12c-.63-.76-1.26-1.54-1.86-2.33s-1.21-1.58-1.78-2.39l.64-.45.63-.46c.57.79,1.15,1.57,1.75,2.35s1.2,1.53,1.82,2.28l-.6.5Zm129.61-2.83-.62-.47-.63-.47c.59-.78,1.17-1.57,1.73-2.37s1.11-1.6,1.64-2.42l.66.43.65.43c-.54.83-1.1,1.65-1.67,2.46S299.13,157.61,298.53,158.4ZM162,151.55c-.52-.85-1-1.71-1.51-2.58s-1-1.74-1.41-2.61l.69-.36.7-.36c.44.86.91,1.71,1.39,2.56s1,1.7,1.48,2.53l-.67.41Zm143-3.13-.68-.38-.69-.38c.47-.85.93-1.72,1.37-2.59s.87-1.75,1.28-2.63l.71.33.71.33c-.42.9-.85,1.79-1.3,2.68S305.51,147.55,305,148.42ZM156.53,141c-.39-.9-.76-1.82-1.12-2.75s-.7-1.86-1-2.8l.74-.25.74-.26c.31.92.65,1.84,1,2.75s.72,1.81,1.1,2.7l-.72.31ZM310,137.6l-.73-.28-.73-.27c.34-.91.67-1.84,1-2.76s.6-1.86.88-2.78l.75.22.75.22c-.28,1-.58,1.89-.9,2.84S310.38,136.67,310,137.6Zm-157.38-7.88c-.25-.95-.49-1.91-.71-2.89s-.42-1.94-.61-2.92l.77-.14.77-.15c.18,1,.38,1.92.6,2.87s.45,1.9.69,2.83l-.75.2Zm160.76-3.54-.76-.17-.77-.17c.21-1,.4-1.9.57-2.86s.33-1.93.47-2.89l.78.11.77.12c-.14,1-.3,2-.48,2.93S313.62,125.21,313.41,126.18Zm-163-8.16c-.11-1-.21-2-.29-3s-.13-2-.18-3l.79,0,.78,0c0,1,.1,1.94.18,2.91s.17,1.95.28,2.91l-.78.09Zm164.68-3.63-.78,0-.79-.06c.07-1,.13-1.94.16-2.92s.05-2,.05-2.92h1.57c0,1,0,2-.05,3S315.18,113.41,315.11,114.39Zm-1.37-7.25c0-1-.05-2-.1-2.92s-.11-2-.2-2.92l.78-.06.78-.07q.13,1.47.21,3c.05,1,.08,2,.1,3h-1.57Zm-162.26-1-.78,0-.78,0c0-1,.07-2,.13-3s.15-2,.24-3l.78.08.78.08c-.09,1-.17,1.93-.23,2.9S151.51,105.19,151.48,106.17ZM312.73,95.5c-.16-1-.33-1.92-.52-2.87s-.39-1.92-.62-2.86l.77-.18.76-.18c.22,1,.43,1.94.63,2.91s.37,2,.52,2.94l-.77.12Zm-160.1-1-.77-.14-.77-.13c.17-1,.36-2,.56-2.93s.43-1.94.67-2.9l.76.19.76.19c-.24.94-.45,1.89-.66,2.84S152.8,93.59,152.63,94.55ZM310.05,84.13c-.29-.92-.6-1.85-.93-2.77s-.66-1.83-1-2.74l.73-.28.73-.29c.36.92.71,1.85,1,2.79s.65,1.88.94,2.82l-.74.24Zm-154.6-.92-.74-.24-.75-.25c.31-.94.64-1.88,1-2.82s.71-1.86,1.08-2.78l.73.3.72.3c-.37.89-.72,1.8-1.06,2.72S155.75,82.28,155.45,83.21Zm150.31-9.93c-.42-.88-.87-1.75-1.32-2.62s-.92-1.71-1.4-2.55l.67-.39.68-.39c.49.85,1,1.72,1.44,2.6s.91,1.77,1.34,2.67l-.71.34Zm-145.88-.89-.7-.35-.7-.35c.44-.89.9-1.77,1.37-2.65s1-1.74,1.47-2.59l.68.4.67.39c-.49.84-1,1.69-1.44,2.55S160.31,71.52,159.88,72.39ZM300,63.15c-.54-.81-1.1-1.6-1.68-2.39s-1.16-1.57-1.76-2.34l.62-.48.61-.48c.61.78,1.21,1.57,1.8,2.38s1.15,1.61,1.7,2.43l-.64.44Zm-134.13-.83-.64-.45-.64-.44q.84-1.23,1.74-2.43c.6-.8,1.21-1.58,1.82-2.35l.61.49.61.49c-.6.76-1.2,1.53-1.79,2.31S166.38,61.52,165.82,62.32ZM292.74,54c-.65-.72-1.32-1.43-2-2.13s-1.38-1.39-2.08-2.06l.54-.57.54-.56c.72.68,1.43,1.38,2.12,2.1s1.38,1.43,2,2.16l-.58.53Zm-119.59-.75-.58-.53-.57-.54c.67-.72,1.37-1.44,2.07-2.15s1.42-1.39,2.14-2.06l.53.57.54.57c-.71.66-1.41,1.34-2.1,2S173.81,52.5,173.15,53.21Zm111.14-7.33c-.74-.62-1.51-1.23-2.28-1.82s-1.56-1.18-2.35-1.74l.45-.64.46-.64c.8.58,1.6,1.17,2.39,1.78s1.57,1.22,2.33,1.86l-.5.6Zm-102.6-.64-.49-.61-.49-.61c.77-.62,1.56-1.23,2.36-1.83s1.6-1.18,2.41-1.74l.44.65.45.64c-.79.55-1.58,1.12-2.37,1.7S182.45,44.63,181.69,45.24Zm93.09-6.14c-.84-.51-1.68-1-2.53-1.48s-1.72-.94-2.58-1.39l.36-.69.36-.7c.88.45,1.75.92,2.62,1.41s1.73,1,2.58,1.51l-.41.67Zm-83.49-.52-.4-.67-.4-.68c.85-.5,1.72-1,2.59-1.47s1.76-.94,2.64-1.38l.34.7.35.7q-1.29.66-2.58,1.35C193,37.6,192.12,38.08,191.29,38.58Zm73.09-4.83c-.9-.38-1.8-.75-2.72-1.1s-1.83-.68-2.75-1l.26-.74.25-.74c.94.32,1.87.66,2.8,1s1.86.73,2.77,1.12l-.3.72Zm-62.65-.38-.3-.73-.3-.72c.91-.37,1.83-.73,2.77-1.08s1.87-.67,2.82-1l.24.75.25.74c-.93.31-1.85.63-2.77,1S202.62,33,201.73,33.37ZM253.32,30c-.94-.25-1.89-.48-2.84-.69s-1.91-.42-2.86-.59l.14-.77.15-.77c1,.18,1.94.38,2.91.6s1.94.45,2.9.7l-.2.76Zm-40.49-.24-.19-.76-.2-.76c1-.24,1.93-.47,2.91-.67s2-.4,2.92-.57l.14.77.13.77c-.95.17-1.91.36-2.87.56S213.77,29.48,212.83,29.72Zm29-1.91c-1-.11-1.94-.2-2.91-.28s-2-.13-2.92-.17l0-.78,0-.78c1,0,2,.1,3,.17s2,.17,3,.28l-.08.78Zm-17.51-.1-.08-.78-.08-.78c1-.1,2-.18,3-.25s2-.11,3-.14l0,.78,0,.79c-1,0-2,.07-2.93.14S225.29,27.61,224.33,27.71Z"/><path class="cls-2" d="M255.83,143.15A1.7,1.7,0,0,1,255,143a1.68,1.68,0,0,1-.64-.55L242.63,125.7,230.86,109V40.53a1.74,1.74,0,0,1,1.74-1.75,1.74,1.74,0,0,1,1.75,1.75v67.36l11.45,16.25,11.46,16.26a1.7,1.7,0,0,1,.29,1.3,1.77,1.77,0,0,1-.71,1.13,1.71,1.71,0,0,1-.49.24A1.53,1.53,0,0,1,255.83,143.15Z"/><path class="cls-2" d="M774.91,319.23a13.2,13.2,0,1,1-3.86-9.32A13.15,13.15,0,0,1,774.91,319.23Z"/><path class="cls-2" d="M837.36,319.23a13.2,13.2,0,1,1-3.86-9.32A13.15,13.15,0,0,1,837.36,319.23Z"/><path class="cls-2" d="M899.81,319.23a13.2,13.2,0,1,1-3.86-9.32A13.15,13.15,0,0,1,899.81,319.23Z"/><path class="cls-2" d="M962.26,319.23a13.2,13.2,0,1,1-3.86-9.32A13.15,13.15,0,0,1,962.26,319.23Z"/><path class="cls-2" d="M1024.71,319.23a13.2,13.2,0,1,1-3.86-9.32A13.15,13.15,0,0,1,1024.71,319.23Z"/><path class="cls-2" d="M1087.16,319.23a13.2,13.2,0,1,1-3.86-9.32A13.15,13.15,0,0,1,1087.16,319.23Z"/><path class="cls-2" d="M1149.61,319.23a13.2,13.2,0,1,1-3.86-9.32A13.15,13.15,0,0,1,1149.61,319.23Z"/><path class="cls-2" d="M1812.5,122.77h-9.66a77.42,77.42,0,0,0-3.8-11.85,75.45,75.45,0,0,0-5.76-11.24l3.42-3.41,3.41-3.42a4.39,4.39,0,0,0,0-6.2l-9.45-9.44-9.44-9.45a4.39,4.39,0,0,0-6.2,0l-3.41,3.42-3.42,3.41A77.8,77.8,0,0,0,1757,68.83,78.66,78.66,0,0,0,1745.1,65V55.37a4.37,4.37,0,0,0-4.38-4.38H1714a4.37,4.37,0,0,0-4.38,4.38V65a78.66,78.66,0,0,0-11.86,3.8,77.8,77.8,0,0,0-11.23,5.76l-3.42-3.41-3.41-3.42a4.39,4.39,0,0,0-6.2,0l-9.44,9.45-9.45,9.44a4.39,4.39,0,0,0,0,6.2l3.41,3.42,3.42,3.41a75.45,75.45,0,0,0-5.76,11.24,77.42,77.42,0,0,0-3.8,11.85h-9.66a4.4,4.4,0,0,0-4.39,4.39v26.71a4.39,4.39,0,0,0,4.39,4.38h9.66a76.8,76.8,0,0,0,9.56,23.1l-3.42,3.41-3.41,3.41a4.39,4.39,0,0,0,0,6.2l9.45,9.45,9.44,9.44a4.37,4.37,0,0,0,6.2,0l3.41-3.41,3.42-3.41a76.75,76.75,0,0,0,11.23,5.75,77.54,77.54,0,0,0,11.86,3.8v9.66A4.39,4.39,0,0,0,1714,230h26.72a4.39,4.39,0,0,0,4.38-4.39V216a77.54,77.54,0,0,0,11.86-3.8,76.75,76.75,0,0,0,11.23-5.75l3.42,3.41,3.41,3.41a4.37,4.37,0,0,0,6.2,0l9.44-9.44,9.45-9.45a4.39,4.39,0,0,0,0-6.2l-3.41-3.41-3.42-3.41a76.8,76.8,0,0,0,9.56-23.1h9.66a4.37,4.37,0,0,0,4.38-4.38V127.16a4.39,4.39,0,0,0-4.38-4.39ZM1747,160.19a27.84,27.84,0,1,1,8.15-19.68A27.73,27.73,0,0,1,1747,160.19Z"/><path class="cls-2" d="M1896.33,198.37H1891a43.38,43.38,0,0,0-2.09-6.52,42,42,0,0,0-3.17-6.19l1.88-1.87,1.88-1.88a2.43,2.43,0,0,0,0-3.41l-5.2-5.2-5.2-5.19a2.4,2.4,0,0,0-3.41,0l-1.88,1.87-1.87,1.88a42.36,42.36,0,0,0-12.71-5.26v-5.31a2.42,2.42,0,0,0-2.41-2.42h-14.7a2.4,2.4,0,0,0-1.71.71,2.44,2.44,0,0,0-.7,1.71v5.31a42.36,42.36,0,0,0-12.71,5.26l-1.88-1.88-1.87-1.87a2.4,2.4,0,0,0-3.41,0l-5.2,5.19-5.2,5.2a2.43,2.43,0,0,0,0,3.41l1.88,1.88,1.88,1.87a42,42,0,0,0-3.17,6.19,43.38,43.38,0,0,0-2.09,6.52h-5.32a2.42,2.42,0,0,0-2.41,2.41v14.7a2.41,2.41,0,0,0,2.41,2.41H1808a43.5,43.5,0,0,0,2.09,6.53,42.43,42.43,0,0,0,3.17,6.18l-1.88,1.88-1.88,1.87a2.44,2.44,0,0,0,0,3.42l5.2,5.19,5.2,5.2a2.4,2.4,0,0,0,3.41,0l1.87-1.88,1.88-1.88a42.36,42.36,0,0,0,12.71,5.26V255a2.41,2.41,0,0,0,2.41,2.41h14.7a2.42,2.42,0,0,0,2.41-2.41v-5.32A42.36,42.36,0,0,0,1872,244.4l1.87,1.88,1.88,1.88a2.4,2.4,0,0,0,3.41,0l5.2-5.2,5.2-5.19a2.44,2.44,0,0,0,0-3.42l-1.88-1.87-1.88-1.88a42.43,42.43,0,0,0,3.17-6.18,43.5,43.5,0,0,0,2.09-6.53h5.31a2.44,2.44,0,0,0,1.71-.7,2.4,2.4,0,0,0,.71-1.71v-14.7a2.42,2.42,0,0,0-2.42-2.41Zm-36,20.59a15.33,15.33,0,1,1,4.48-10.83A15.26,15.26,0,0,1,1860.32,219Z"/><polygon class="cls-4" points="1357.63 295.53 1383.18 385.13 1408.74 474.73 1457.3 489.98 1505.86 505.23 1496.28 526.95 1486.69 548.66 1385.31 548.66 1283.93 548.66 1320.78 422.1 1357.63 295.53"/><path class="cls-5" d="M1331.29,548H1085.92s1.6-11.12,3.89-28.89,5.28-42.22,8.07-68.88c3.21-30.66.45-64.13-1.14-92.73s-2-52.33,5.84-63.49c22.36-31.72,63.19-47.58,98.43-55.51a329.28,329.28,0,0,1,64.89-7.94,343.78,343.78,0,0,1,41.64,19.2c21.53,11.81,44.46,28.06,50.09,45.79l1,18.16,1,18.17a546.1,546.1,0,0,1-14.46,158.7l-7,28.71-7,28.71"/><path class="cls-6" d="M1287,548.66h421v-14H1287a3.12,3.12,0,0,0-3.11,3.11v7.82a3.11,3.11,0,0,0,3.11,3.1Z"/><path class="cls-2" d="M1443.81,548.66h266.32a9,9,0,0,0,5.1-1.81,10.17,10.17,0,0,0,3.55-4.38l37.84-95.57,37.83-95.56a4.9,4.9,0,0,0-.08-4.39,4.06,4.06,0,0,0-3.66-1.81H1524.39a9,9,0,0,0-5.1,1.81,10.16,10.16,0,0,0-3.56,4.39L1477.9,446.9l-37.84,95.57a5,5,0,0,0,.08,4.38A4.08,4.08,0,0,0,1443.81,548.66Z"/><path class="cls-6" d="M1608,440.05a33.9,33.9,0,0,0-1.44,20.27c1.58,5.91,5.1,10.51,10.17,12.4s10.74.72,15.81-2.72a35.94,35.94,0,0,0,13.62-36.52c-1.58-5.91-5.1-10.51-10.17-12.4s-10.74-.72-15.8,2.72A33.84,33.84,0,0,0,1608,440.05Z"/><path class="cls-1" d="M1019.17,502.07l20.49-50.64,20.49-50.64a114.35,114.35,0,0,1,51.27,26c11,9.72,16.08,18.13,16.08,18.13l-5.73,16.1-5.73,16.1c60.08,1.84,98.73,1.9,125,1.8s40.06-.36,50.48.85c3.21-.71,8.52-2.19,14.39-3.38s12.28-2.09,17.73-1.63c2.19.18,7.1,2.73,12.26,5.73s10.55,6.45,13.69,8.44a142.32,142.32,0,0,1,29,24.19c6.09,6.86,7.94,11.25,3.66,9.37l-27.29-7.52-27.28-7.51-6.13,4-6.13,4q-2.6,1.68-5.32,3.09a61,61,0,0,1-5.59,2.54,27.07,27.07,0,0,1-13.07,1.71,28.15,28.15,0,0,1-12.41-4.57h0l-96.54,15.24-96.54,15.23h-36a33.46,33.46,0,0,1-33.21-29.36,32.52,32.52,0,0,1,.11-8.76A36.84,36.84,0,0,1,1019.17,502.07Z"/><path class="cls-1" d="M1359.43,96.62s1.66,34-4.88,65.61-21.29,60.85-54.1,51.35-54.89-35.6-64.55-64.68-6.89-61.12,10-82.57,45.6-36,69.89-34.2S1360,52.27,1359.43,96.62Z"/><g class="cls-7"><path class="cls-3" d="M1333.21,185a38.31,38.31,0,0,1-11.48,2.66,35.74,35.74,0,0,1-24.27-6.58,36.64,36.64,0,0,0,5.17,7.82c3.39,3.9,8.38,7.78,14.79,7.67a16.06,16.06,0,0,0,12.7-5.86A16.9,16.9,0,0,0,1333.21,185Z"/><path class="cls-8" d="M1263.57,85s3.5,9.19,17.83,16.54,39.5,12.86,82.86,5.51L1363.9,90l-.37-17.08L1315.39,72l-48.14-.92-1.84,7Z"/></g><path class="cls-1" d="M1229.56,103.06s2.86,15.84,2.71,39.75S1229,198.72,1216.92,231a221.8,221.8,0,0,0,21.23,29.24c12.7,14.67,29.56,29.45,46.2,29.85s17.3-35.51,13.8-71.52S1287,146.46,1287,146.46l-28.71-21.7Z"/><path class="cls-8" d="M1297.53,212.68a112.13,112.13,0,0,1-19.22-8.63c-10.29-5.83-22-14.68-27.44-26.78a102,102,0,0,0,10.66,23.78c7.58,12.36,19.65,25.68,37.61,29.5,0,0-.3-3.54-.65-7.55S1297.74,214.52,1297.53,212.68Z"/><polygon class="cls-9" points="1217.52 229.38 1207.45 231.61 1197.38 233.83 1215.88 276.28 1234.37 318.73 1254.69 303.6 1275.01 288.47 1246.26 258.93 1217.52 229.38"/><polygon class="cls-9" points="1290.38 288.28 1304.68 301.05 1318.98 313.83 1317.82 280.15 1316.65 246.47 1307.89 242.19 1299.14 237.9 1294.76 263.09 1290.38 288.28"/><path class="cls-10" d="M1358.86,82.57H1275a11.55,11.55,0,0,1,2.14,4.19c1,3.11,2,8.23,1.86,16.3s-3,13.22-5.69,16.36a16.64,16.64,0,0,1-5.41,4.27,76.06,76.06,0,0,0-1.76-14.37c-1.66-7.13-4.9-14.18-11.19-13.81s-10,8.23-10.26,16.65,2.87,17.39,10.26,20l-11.91,17.19-11.91,17.2s-8.42-17.45-16.05-37.79-14.48-43.57-11.34-55.15c3-11,10.28-18,16.83-22.19a46.39,46.39,0,0,1,12.34-5.69,40.3,40.3,0,0,1,2.48-17.89c3.62-9.65,12-20.68,31.07-26.23S1306.7,6,1325.05,16.13s33.87,20.52,41.63,15.85,13,5.2,12.72,17.63S1373.26,77,1358.86,82.57Z"/><path class="cls-5" d="M1253.44,92.54c3.69-36.06,18.61-56.73,32.6-68.38s27.07-14.28,27.07-14.28l2.9,1.41,2.9,1.42c-28.88,11.76-42.59,32.37-49.08,50a90.8,90.8,0,0,0-5.76,32.39H1264a23.26,23.26,0,0,1,9,8.34,23.07,23.07,0,1,1-19.6-10.91Z"/><path class="cls-10" d="M1256.13,131.8l2-.29,2-.28s1.68,8.3,8.48,18.42,18.71,22.08,39.17,29.37a11.49,11.49,0,0,1,6.43-2.51,24.47,24.47,0,0,1,9.11.83,22.86,22.86,0,0,1,9.85,5.32c2.28,2.24,3.37,4.77,2.74,7.06s-2.86,3.9-6,4.66a24.9,24.9,0,0,1-20.89-5.67c-2.27-2.19-3.42-4.66-2.92-6.93A82.78,82.78,0,0,1,1282,168.32,81,81,0,0,1,1256.13,131.8Z"/><path class="cls-5" d="M1102.58,294s-25,49-50.07,100.2-50.08,104.51-50.08,113.14a36.52,36.52,0,0,0,3.09,13.37,87.2,87.2,0,0,0,6.86,13.12,31.49,31.49,0,0,0,26.71,14.84h57.71l76-7.9,76-7.9V462.11l-61.61,1.22-61.61,1.22,19.4-44.65,19.41-44.65a341.39,341.39,0,0,0-19.69-42C1133.06,312.43,1117.59,292.12,1102.58,294Z"/><path class="cls-4" d="M1219.88,462.68l-50.06,1.18L1119.76,465,1146,412.28l26.28-52.77L1161.89,405l-10.43,45.46s13,.49,28.12,2.27S1211.76,457.54,1219.88,462.68Z"/><polygon class="cls-4" points="1248.88 532.86 1172.84 540.76 1096.8 548.66 1159.29 548.66 1221.78 548.66 1235.33 540.76 1248.88 532.86"/><path class="cls-1" d="M1310.52,498.22c1.42,1.57,14.13,8.82,25.57,15.57s21.61,13,18,12.63-15.92-2.89-27.27-5.31-21.79-4.72-21.79-4.72l2.77-9.08Z"/><path class="cls-1" d="M475.91,549.42,456.6,435l-19.31-114.4s-12.18,29.94-25,64.55S386.09,459,383.62,477.7l-4.82-.23-4.82-.24-98.16-3.92-98.16-3.92.18,17.78L178,505s26.71,10.95,64.08,21.89,85.37,21.89,128,21.89H393.7l.2.51a1.52,1.52,0,0,0,.07.18h81.94Z"/><g class="cls-11"><path class="cls-8" d="M385.25,435A138.3,138.3,0,0,0,384,480.15c3.47,24.52,15.09,53,47.74,68.58l24.48,11.72-24.48-11.72h76.12l-31-88.54-31-88.55L425.45,370,405,368.45l-9.88,33.28Z"/></g><path class="cls-5" d="M463.63,548.73H709s-1.59-10-3.89-26.1-5.27-38.15-8.07-62.24c-3.21-27.71-.45-57.95,1.14-83.8s2-47.27-5.84-57.36c-22.36-28.67-63.19-43-98.43-50.16A363.29,363.29,0,0,0,529,261.9a362.94,362.94,0,0,0-41.64,17.34c-21.53,10.68-44.46,25.36-50.09,41.38a403,403,0,0,0-13.73,48.23c-4.77,22-8.47,48.65-7.25,75.91,1,22.31,12.83,48.3,24.41,68.72A344.55,344.55,0,0,0,463.63,548.73Z"/><path class="cls-6" d="M507.88,549.42h-421v-14h421A3.11,3.11,0,0,1,511,538.5v7.81a3.11,3.11,0,0,1-3.11,3.11Z"/><path class="cls-2" d="M351.11,549.42H84.79a9.07,9.07,0,0,1-5.1-1.82,10.17,10.17,0,0,1-3.55-4.38L38.3,447.65.47,352.09a4.89,4.89,0,0,1,.08-4.38,4,4,0,0,1,3.66-1.82H270.53a9,9,0,0,1,5.11,1.82,10.24,10.24,0,0,1,3.55,4.38L317,447.65l37.84,95.57a5,5,0,0,1-.08,4.38A4.08,4.08,0,0,1,351.11,549.42Z"/><path class="cls-6" d="M187,440.8a33.9,33.9,0,0,1,1.43,20.27c-1.58,5.91-5.1,10.52-10.17,12.41s-10.74.71-15.8-2.72a36,36,0,0,1-13.63-36.52c1.58-5.92,5.1-10.52,10.17-12.41s10.74-.71,15.81,2.72A33.9,33.9,0,0,1,187,440.8Z"/><path class="cls-5" d="M692.34,319.23l25.72,40.25,25.73,40.25s-12.24,1-26.15,9.12-29.5,23.5-36.21,52.28a205.23,205.23,0,0,1-15.28-52.93C662,378.73,664.7,343.26,692.34,319.23Z"/><path class="cls-5" d="M416.64,417.07l-12.08-10.82-12.08-10.83s6.76-14.78,16.74-33.1,23.16-40.16,36-54.28l-14.29,54.52Z"/><path class="cls-4" d="M416.64,417.07s2-13.2,5.73-30.07,9.09-37.41,15.81-52.07c0,0-7.23,11.45-15,26.1s-16.19,32.5-18.51,45.28l6,5.38Z"/><path class="cls-4" d="M667.42,445.65,664,452.22l-3.42,6.58-15.06-41.4L630.46,376l5.5,46.17,5.51,46.17s7.8.41,16.59.94,18.55,1.18,22.47,1.65L674,458.29Z"/><path class="cls-1" d="M776,503.42l-20.61-50.94-20.62-50.93a114.25,114.25,0,0,0-51.27,26c-11,9.71-16.08,18.13-16.08,18.13l5,12.48,5,12.48c-34.56-3.47-73.07-3-105.54-1.35s-58.9,4.44-69.33,5.65c-3.21-.71-9.14-1.93-15.62-2.86s-13.53-1.58-19-1.12a15.67,15.67,0,0,0-7.14,3,53.89,53.89,0,0,0-20,61.45h43.46l8.68-7,8.68-7,103.68,14.05L709,549.42h36a33.46,33.46,0,0,0,31-46Z"/><g class="cls-12"><path class="cls-8" d="M671,466.53s7.42-6.88,22.21-14,36.95-14.58,66.43-15.65l-11.84-24.67L736,387.52s-16.67,8-34.26,18.37-36.09,23-39.74,32.25l4.51,14.2Z"/></g><path class="cls-1" d="M437.48,133.05s-1.66,34,4.88,65.61,21.29,60.86,54.1,51.35,54.89-35.6,64.55-64.67,6.89-61.13-10-82.57-45.6-36-69.89-34.2S436.89,88.7,437.48,133.05Z"/><g class="cls-13"><path class="cls-3" d="M463.7,221.41a38.29,38.29,0,0,0,11.47,2.66,35.76,35.76,0,0,0,24.28-6.59,36.39,36.39,0,0,1-5.18,7.83c-3.38,3.9-8.37,7.77-14.78,7.66a16,16,0,0,1-12.7-5.86A16.81,16.81,0,0,1,463.7,221.41Z"/><path class="cls-8" d="M422.3,160.12c.13-.27,19.72-1.32,45.64-7.84s58.16-18.5,83.59-40.64L570.6,95l-19.07,16.6L536.72,98.39,521.9,85.13,477,100.06,432,115l-4.87,22.56-4.87,22.56"/></g><path class="cls-1" d="M567.35,139.49s-2.86,15.84-2.71,39.76,3.31,55.9,15.35,88.2a221.8,221.8,0,0,1-21.23,29.24c-12.7,14.68-29.56,29.45-46.2,29.85S495.26,291,498.76,255s11.17-72.13,11.17-72.13l28.71-21.7Z"/><path class="cls-8" d="M499.38,249.11a112.13,112.13,0,0,0,19.22-8.63c10.29-5.83,22-14.68,27.44-26.78a102,102,0,0,1-10.66,23.78c-7.58,12.36-19.65,25.68-37.61,29.5,0,0,.3-3.54.65-7.55S499.17,251,499.38,249.11Z"/><path class="cls-10" d="M437.48,133.05a146.9,146.9,0,0,1,26.67-17.57c15.93-8.2,37-15.21,57.75-10.51,0,0,1.1,8.77,3.05,18.79s4.77,21.3,8.19,26.33l2.69,3.76,2.69,3.76a63.6,63.6,0,0,1,0-11.77c.63-5.91,2.51-11.85,7.53-12s8.91,2.91,11.46,6.92a21,21,0,0,1,3.33,12.52c-.4,3.56-3.76,9.78-6.92,15.42s-6.13,10.68-5.74,11.86,5,8.68,9.49,15.87,8.89,14.09,8.89,14.09a270,270,0,0,0,16.52-36.88c7.46-20.78,13.35-46.27,7-65.05S568.44,76.93,554.7,68.78a122.25,122.25,0,0,0-25.91-11.62s-2.27-3-11.37-5.54-25-4.74-52.3-3.16-48.24,20-62.38,38A170.52,170.52,0,0,0,381.29,122s7.41-5.24,16.66-12.21,20.31-15.68,27.63-22.6A172.83,172.83,0,0,0,405.36,106c-10.43,11.32-21.5,26.54-24.07,42.17,0,0,10.67-9.2,22.39-19.23S428.15,108,432.3,104.61c0,0-5.93,5.34-10.68,16.17s-8.3,27.14-3.56,49.09c0,0,1.7-4.47,5-11.31A211.19,211.19,0,0,1,437.48,133.05Z"/><path class="cls-5" d="M549.16,129.21c-3.69-36.06-18.1-56.38-31.58-67.69s-26-13.6-26-13.6H480.26c28.89,11.76,43.46,32.73,50.8,50.76a99.36,99.36,0,0,1,7.46,33.12h.08a23.22,23.22,0,0,0-9.05,8.34,23.08,23.08,0,1,0,19.61-10.91Z"/><path class="cls-10" d="M546.47,168.47l-2-.28-2-.29s-1.68,8.3-8.48,18.42-18.7,22.08-39.16,29.38a11.53,11.53,0,0,0-6.44-2.52,24.47,24.47,0,0,0-9.11.83,22.82,22.82,0,0,0-9.84,5.32c-2.28,2.24-3.38,4.77-2.75,7.06s2.87,3.9,6,4.66a24.9,24.9,0,0,0,20.89-5.67c2.28-2.19,3.42-4.66,2.93-6.92A83.16,83.16,0,0,0,520.62,205,81.09,81.09,0,0,0,546.47,168.47Z"/><polygon class="cls-9" points="579.39 265.82 589.46 268.04 599.53 270.26 581.03 312.72 562.54 355.17 542.22 340.03 521.9 324.9 550.65 295.36 579.39 265.82"/><polygon class="cls-9" points="506.53 324.71 492.23 337.49 477.93 350.26 479.1 316.58 480.26 282.9 489.01 278.62 497.77 274.33 502.15 299.52 506.53 324.71"/></g></g></svg>