<svg xmlns="http://www.w3.org/2000/svg" viewBox="0 0 2878.7 1756.62"><defs><style>.cls-1{fill:#f4fbfe;}.cls-2{fill:#ecaf12;}.cls-3{fill:#f9be15;}.cls-4{fill:#ffd800;}.cls-5{fill:#ffc515;}.cls-6{fill:#c9840a;}.cls-7{fill:#efa90c;}.cls-8{fill:#ffe755;}.cls-9{fill:#fff;}</style></defs><title>tokenimg</title><g id="Layer_2" data-name="Layer 2"><g id="Shine"><ellipse class="cls-1" cx="1464.26" cy="1418.86" rx="1414.48" ry="337.63" transform="translate(-9.8 10.18) rotate(-0.4)"/><path class="cls-2" d="M862.17,1433.26v205.51c-46.25,3.34-94.18,5.1-143.3,5.1A1919.49,1919.49,0,0,1,480,1629.36V1423.84c74.49,9.4,154.92,14.51,238.83,14.51C768,1438.35,815.92,1436.6,862.17,1433.26Z"/><path class="cls-2" d="M1415.35,1403.39c0,53.9-51.36,103.66-138.11,143.77V1341.72c80.58-37.2,130.68-82.72,137.54-132.15v184A87.15,87.15,0,0,1,1415.35,1403.39Z"/><path class="cls-3" d="M480,1423.84v205.52c-267-33.65-457.66-122.13-457.66-226v-195h.42C35.15,1307.65,221.92,1391.34,480,1423.84Z"/><path class="cls-3" d="M1119.12,1394.73v205.49c-75.9,18.43-162.94,31.76-256.95,38.55V1433.26C956.17,1426.47,1043.21,1413.16,1119.12,1394.73Z"/><path class="cls-4" d="M1277.24,1341.72v205.44c-44.22,20.44-97.63,38.37-158.12,53.06V1394.73C1179.6,1380.06,1233,1362.15,1277.24,1341.72Z"/><path class="cls-5" d="M1282.14,1251.1l73.14,44.79a340.51,340.51,0,0,1-37.51,24.93L1244.55,1276c-77.43,42.48-208.92,74.59-366.22,87.72l94.88,58.11q-34.5,4.68-70.7,8.09l-100.3-61.43c-27.23,1.15-55.06,1.75-83.34,1.75-90.36,0-176.06-6.07-252.93-16.94L599,1434.8c-321.81-19.25-567.92-114.7-576.66-230.55,2.37-31.32,22.08-61.15,56-88.38l53.54,32.79c24.95-35,82.91-66.29,163.46-90.65l-42.62-26.1q27.54-8.57,57.64-16.1l43.5,26.65c101.17-23.58,227.71-37.6,365-37.6q43.85,0,86.08,1.86l-59.42-36.39q42.06.54,82.76,2.78l64.54,39.53c49.72,4.57,96.72,11.05,140.07,19.15l-77.39-47.4c262.81,32.74,452.2,118.49,459.84,219.86-1.29,17.22-7.83,34-19.07,50.1l-79.66-48.8C1311.51,1221.42,1299.73,1236.68,1282.14,1251.1Z"/><path class="cls-6" d="M1319.51,1187.54a57.56,57.56,0,0,1-2,14.84c-12.18-42.74-80.44-81-184-108.94-46.57-12.56-100.26-23-159.2-30.86-30.17-4-61.71-7.33-94.37-9.9-51.28-4-105.31-6.17-161.12-6.17-116.27,0-224.83,9.33-316.79,25.49-22,3.87-43.1,8.13-63.1,12.75-85.2,19.67-150.91,45.83-187.72,75.79-16.3,13.27-26.93,27.3-31.07,41.84a57.56,57.56,0,0,1-2-14.84c0-13.34,4.7-26.35,13.64-38.88,24.95-35,82.91-66.29,163.46-90.65,18.37-5.56,37.92-10.75,58.52-15.55,101.17-23.58,227.71-37.6,365-37.6q43.85,0,86.08,1.86c30.07,1.32,59.42,3.3,87.88,5.92,49.72,4.57,96.72,11.05,140.07,19.15C1204.84,1063.93,1319.51,1121.66,1319.51,1187.54Z"/><path class="cls-7" d="M1317.55,1202.38c-.28,1.07-.6,2.12-.93,3.17-5.11,15.87-16.89,31.13-34.48,45.55a246.74,246.74,0,0,1-37.59,24.88c-77.43,42.48-208.92,74.59-366.22,87.72q-37.16,3.12-76.12,4.77c-27.23,1.15-55.06,1.75-83.34,1.75-90.36,0-176.06-6.07-252.93-16.94-191.37-27.07-328-83.88-345.75-150.9,4.14-14.54,14.77-28.57,31.07-41.84,36.81-30,102.52-56.12,187.72-75.79,20-4.62,41.08-8.88,63.1-12.75,92-16.16,200.52-25.49,316.79-25.49,55.81,0,109.84,2.15,161.12,6.17,32.66,2.57,64.2,5.89,94.36,9.9h0c58.94,7.84,112.63,18.3,159.19,30.86h0C1237.11,1121.36,1305.37,1159.64,1317.55,1202.38Z"/><path class="cls-8" d="M1415.6,1210.64c0,132.81-311.94,240.47-696.73,240.47S22.14,1343.45,22.14,1210.64c0-2.14.08-4.26.24-6.39,9.8,129.87,317.88,234.1,696.49,234.1s686.69-104.23,696.48-234.1C1415.52,1206.38,1415.6,1208.5,1415.6,1210.64Z"/><path class="cls-8" d="M1032.9,1031.79c-43.35-8.1-90.35-14.58-140.07-19.15l-64.54-39.53c43.91,2.39,86.45,6.2,127.22,11.28Z"/><path class="cls-8" d="M1396.28,1254.35c-10,14.4-23.83,28.28-41,41.54l-73.14-44.79c17.59-14.42,29.37-29.68,34.48-45.55Z"/><path class="cls-5" d="M524.46,1147l-10.27,0L496,1170.93c-1.8,2.37-3.44,4.69-4.94,7l119.16,73q16,.48,33.91.46h1.64l-5.13,18.17L703.45,1308h29.34l2.42-32Z"/><path class="cls-6" d="M746.59,1173.23q19.11,2,28.25,5.85,7.32,3.11,9.89,8.21a13.3,13.3,0,0,0,2.9-9.26l-1.57-33.51c-.28-6-4.06-10.4-11.22-13.45q-9.12-3.88-28.25-5.85l-5.59,74c1.25-.08,2.46-.17,3.65-.27Z"/><path class="cls-6" d="M680.09,1053.22c-5.87,1.45-9.45,3.72-10.72,6.86l-5,12.4c-1.52,3.77.37,6.76,5.79,8.91q7.08,2.82,22.48,3.9l9.76-34.58Q687.61,1051.36,680.09,1053.22Z"/><path class="cls-6" d="M581.3,1104c-9-3.48-13.68-8-14.37-13.39l0,0V1136c-.41,4.06,1.23,7.66,5,10.77l62.57-.22-11.55,28.6c-3.33,8.25-1.81,14.33,4.78,18a31.9,31.9,0,0,0,6.32,2.52l.45-1.11H633l1.42-.14v-32q15.69,1.92,35.36,3.63l13.25-46.92C630.35,1115.06,596.66,1110,581.3,1104Z"/><path class="cls-6" d="M780.22,1060.67c-.14-3.59-2.72-6.11-7.69-7.62q-6.33-1.93-20.3-2.57l-3,39.54c51.94,4.19,88.2,9.23,108,15.22a101.81,101.81,0,0,1,15.05,5.79v-39l-91.67.47Z"/><path class="cls-6" d="M645.76,1251.33h-1.64c-78.38.1-128.64-6.95-149.93-20.47-8.53-5.43-13.1-12.34-14-20.53l-.17-.09v46h0c.26,9.14,4.86,16.78,14.13,22.66,20.19,12.83,66.46,19.83,138,20.43Z"/><path class="cls-6" d="M915.44,1189.51c0,16-9.39,29.21-29,39-27.78,13.85-78,21.62-149.34,22.64l-4.3,56.85h-103v48h103l4.3-56.85c71.33-1,121.56-8.79,149.34-22.64,19.13-9.53,28.52-22.37,29-37.81h0v-49.18Z"/><path class="cls-8" d="M805,1006.72q-42.16-1.85-86.08-1.86c-137.31,0-263.85,14-365,37.6l-43.5-26.65c114.78-28.72,255.92-45.65,408.52-45.65q13.39,0,26.66.17Z"/><path class="cls-8" d="M1317.77,1320.82c-78.7,45.58-199.83,81.41-344.56,101l-94.88-58.11c157.3-13.13,288.79-45.24,366.22-87.72Z"/><path class="cls-8" d="M911.42,1170.05l-12.89-32.92c-5.9-15-19.76-25.41-41.23-31.89-19.85-6-56.11-11-108-15.22l3-39.53c9.31.42,16.08,1.26,20.3,2.56,5,1.51,7.55,4,7.69,7.62l.46,11.81,91.68-.47-4-10.14c-4.74-12.17-15.27-19.59-31.53-23-15.23-3.21-43-4.8-83.41-4.86l.84-11-4.25,0-35.4.22-4.51,0-3.12,11c-37.88.79-65.72,3.11-83.83,7.06-19.47,4.25-33.38,11.71-41.76,23l-10,13.44c-8.4,11.32-5.48,20.24,9.84,26.19s49.05,11.08,101.77,15.21l-22.67,80.29q-24-1.44-32.72-6.32c-6.58-3.67-8.1-9.75-4.76-18l11.54-28.6-110,.4L735.21,1276l1.88-24.9c71.33-1,121.56-8.79,149.34-22.63C913.55,1215,921.11,1194.82,911.42,1170.05Zm-218.78-84.77q-15.39-1.07-22.48-3.89c-5.42-2.15-7.32-5.14-5.79-8.91l5-12.4c1.27-3.14,4.85-5.41,10.72-6.86q7.51-1.86,22.31-2.51Zm83.56,107.94q-10.55,4.37-35.19,6l5.58-74q19.11,2,28.25,5.85c7.16,3,10.94,7.5,11.22,13.45l1.57,33.51C788,1184.8,784.17,1189.91,776.2,1193.22Z"/><path class="cls-8" d="M295.33,1058c-80.55,24.36-138.51,55.63-163.46,90.65l-53.54-32.79c40.07-32.24,100-60.83,174.38-84Z"/><path class="cls-8" d="M902.51,1429.9c-58.5,5.51-120.08,8.45-183.64,8.45-40.86,0-80.9-1.21-119.83-3.55l-133.1-81.52c76.87,10.87,162.57,16.94,252.93,16.94,28.28,0,56.11-.6,83.34-1.75Z"/><path class="cls-8" d="M610.21,1250.87c-59.13-1.75-98-8.55-116-20s-18.43-29.82-3.14-53Z"/><polygon class="cls-8" points="703.45 1307.98 629.77 1307.98 640.63 1269.5 703.45 1307.98"/><path class="cls-2" d="M1128.24,1188v205.51c-46.24,3.34-94.17,5.1-143.3,5.1a1919.55,1919.55,0,0,1-238.83-14.52V1178.6a1919.61,1919.61,0,0,0,238.83,14.51C1034.07,1193.11,1082,1191.35,1128.24,1188Z"/><path class="cls-2" d="M1681.43,1158.15c0,53.9-51.37,103.66-138.11,143.77V1096.48c80.57-37.2,130.67-82.72,137.53-132.15v184A84.62,84.62,0,0,1,1681.43,1158.15Z"/><path class="cls-3" d="M746.11,1178.6v205.51c-267-33.65-457.65-122.12-457.65-226v-195h.42C301.23,1062.41,488,1146.1,746.11,1178.6Z"/><path class="cls-3" d="M1385.19,1149.49V1355c-75.9,18.43-162.94,31.76-257,38.55V1188C1222.24,1181.23,1309.29,1167.91,1385.19,1149.49Z"/><path class="cls-4" d="M1543.32,1096.48v205.44c-44.22,20.44-97.64,38.36-158.13,53.06V1149.49C1445.68,1134.82,1499.09,1116.9,1543.32,1096.48Z"/><path class="cls-5" d="M1548.22,1005.85l73.14,44.8a339.73,339.73,0,0,1-37.52,24.93l-73.22-44.85c-77.43,42.49-208.91,74.59-366.21,87.73l94.87,58.11q-34.48,4.67-70.69,8.09l-100.3-61.43q-40.86,1.73-83.35,1.74c-90.36,0-176.06-6.07-252.93-16.94l133.11,81.53C543.31,1170.31,297.2,1074.86,288.46,959c2.36-31.32,22.07-61.15,55.94-88.38l53.54,32.79c25-35,82.91-66.29,163.46-90.65l-42.62-26.11q27.54-8.55,57.65-16.09l43.5,26.64c101.16-23.58,227.71-37.59,365-37.59q43.84,0,86.08,1.86l-59.42-36.39q42.06.54,82.77,2.78l64.53,39.53c49.72,4.56,96.72,11,140.08,19.15l-77.39-47.41c262.8,32.75,452.2,118.5,459.84,219.87-1.29,17.21-7.83,34-19.08,50.1l-79.66-48.8C1577.59,976.17,1565.81,991.44,1548.22,1005.85Z"/><path class="cls-6" d="M1585.58,942.3a57.56,57.56,0,0,1-2,14.84c-12.17-42.74-80.43-81-184-108.94-46.56-12.56-100.25-23-159.19-30.86-30.17-4-61.71-7.34-94.37-9.9-51.28-4-105.31-6.17-161.13-6.17-116.27,0-224.83,9.33-316.79,25.48q-33,5.82-63.1,12.75c-85.19,19.68-150.91,45.83-187.71,75.8-16.31,13.27-26.93,27.3-31.07,41.84a57.12,57.12,0,0,1-2-14.84c0-13.34,4.7-26.35,13.63-38.88,25-35,82.91-66.29,163.46-90.65q27.57-8.34,58.53-15.56c101.16-23.58,227.71-37.59,365-37.59q43.84,0,86.08,1.86c30.07,1.32,59.43,3.3,87.88,5.92,49.72,4.56,96.72,11,140.08,19.15C1470.92,818.68,1585.58,876.42,1585.58,942.3Z"/><path class="cls-7" d="M1583.62,957.14c-.28,1.06-.59,2.12-.93,3.17-5.1,15.86-16.88,31.13-34.47,45.54a244.89,244.89,0,0,1-37.6,24.88c-77.43,42.49-208.91,74.59-366.21,87.73q-37.15,3.11-76.12,4.77-40.86,1.73-83.35,1.74c-90.36,0-176.06-6.07-252.93-16.94C540.65,1081,404,1024.16,386.27,957.14c4.14-14.54,14.76-28.57,31.07-41.84,36.8-30,102.52-56.12,187.71-75.8q30-6.93,63.1-12.75c92-16.15,200.52-25.48,316.79-25.48,55.82,0,109.85,2.14,161.13,6.17,32.66,2.56,64.19,5.88,94.36,9.9h0c58.93,7.83,112.63,18.3,159.18,30.86h0C1503.19,876.12,1571.45,914.4,1583.62,957.14Z"/><path class="cls-8" d="M1681.68,965.39c0,132.82-311.94,240.48-696.74,240.48S288.21,1098.21,288.21,965.39c0-2.13.09-4.26.25-6.38,9.79,129.87,317.88,234.1,696.48,234.1s686.7-104.23,696.49-234.1C1681.59,961.13,1681.68,963.26,1681.68,965.39Z"/><path class="cls-8" d="M1299,786.55c-43.36-8.11-90.36-14.59-140.08-19.15l-64.53-39.53c43.9,2.39,86.44,6.19,127.22,11.27Z"/><path class="cls-8" d="M1662.35,1009.11c-10,14.39-23.83,28.28-41,41.54l-73.14-44.8c17.59-14.41,29.37-29.68,34.47-45.54Z"/><path class="cls-5" d="M790.53,901.71l-10.27,0-18.2,23.94q-2.68,3.54-4.94,6.95l119.16,73q16,.47,33.92.45h1.64l-5.13,18.18,62.82,38.48h29.34l2.41-32Z"/><path class="cls-6" d="M1012.66,928q19.13,2,28.25,5.85c4.88,2.07,8.19,4.8,9.89,8.2a13.31,13.31,0,0,0,2.91-9.25l-1.57-33.51c-.28-6-4.06-10.41-11.23-13.45q-9.12-3.89-28.25-5.85l-5.58,74,3.64-.27Z"/><path class="cls-6" d="M946.16,808c-5.87,1.46-9.44,3.73-10.71,6.87l-5,12.4c-1.52,3.77.38,6.76,5.8,8.91q7.08,2.82,22.47,3.89l9.76-34.57Q953.68,806.12,946.16,808Z"/><path class="cls-6" d="M847.37,858.74c-9-3.49-13.68-8-14.36-13.39l0,0v45.44c-.4,4.06,1.24,7.66,5,10.77l62.56-.22L889,929.92c-3.33,8.25-1.81,14.32,4.77,18a32,32,0,0,0,6.33,2.52l.44-1.11h-1.42l1.42-.14v-32q15.71,1.9,35.37,3.62L949.14,874C896.43,869.82,862.73,864.72,847.37,858.74Z"/><path class="cls-6" d="M1046.3,815.43c-.14-3.59-2.72-6.11-7.69-7.63q-6.33-1.93-20.31-2.56l-3,39.53c51.95,4.19,88.21,9.24,108.06,15.23a102.25,102.25,0,0,1,15,5.79v-39l-91.67.48Z"/><path class="cls-6" d="M911.84,1006.08H910.2c-78.38.09-128.65-7-149.93-20.48-8.54-5.42-13.11-12.33-14-20.52l-.17-.09v46h0c.27,9.14,4.87,16.77,14.14,22.66,20.18,12.82,66.45,19.82,138,20.43Z"/><path class="cls-6" d="M1181.52,944.26c0,16-9.4,29.22-29,39-27.77,13.85-78,21.62-149.34,22.64l-4.29,56.85h-103v48h103l4.29-56.85c71.34-1,121.57-8.79,149.34-22.64,19.14-9.53,28.52-22.38,29-37.81h0v-49.2Z"/><path class="cls-8" d="M1071,761.48q-42.16-1.85-86.08-1.86c-137.3,0-263.85,14-365,37.59l-43.5-26.64c114.78-28.72,255.92-45.66,408.51-45.66q13.39,0,26.66.18Z"/><path class="cls-8" d="M1583.84,1075.58c-78.69,45.58-199.82,81.41-344.56,101l-94.87-58.11c157.3-13.14,288.78-45.24,366.21-87.73Z"/><path class="cls-8" d="M1177.49,924.81l-12.89-32.92c-5.89-15-19.75-25.42-41.22-31.89-19.85-6-56.11-11-108.05-15.23l3-39.53c9.3.42,16.08,1.27,20.3,2.56,5,1.52,7.55,4,7.69,7.62l.46,11.82,91.67-.48-3.94-10.14c-4.74-12.17-15.27-19.58-31.54-23-15.23-3.22-43-4.81-83.4-4.86l.83-11-4.25,0-35.39.22-4.52,0-3.11,11c-37.88.78-65.72,3.1-83.83,7.06-19.48,4.25-33.39,11.71-41.76,23l-10,13.43c-8.41,11.33-5.48,20.25,9.84,26.2s49,11.08,101.76,15.2l-22.66,80.29q-24-1.43-32.72-6.31c-6.58-3.68-8.1-9.75-4.77-18l11.55-28.6-110,.39,210.75,129.08,1.88-24.9c71.34-1,121.57-8.79,149.35-22.63C1179.63,969.73,1187.19,949.58,1177.49,924.81ZM958.71,840q-15.37-1.06-22.47-3.89c-5.42-2.16-7.32-5.15-5.8-8.92l5-12.39c1.27-3.14,4.84-5.41,10.71-6.86q7.53-1.87,22.31-2.51ZM1042.28,948q-10.54,4.38-35.2,6l5.58-74q19.13,2,28.25,5.85c7.17,3,10.95,7.49,11.23,13.45l1.56,33.51C1054,939.56,1050.24,944.66,1042.28,948Z"/><path class="cls-8" d="M561.4,812.77c-80.55,24.36-138.5,55.63-163.46,90.65L344.4,870.63c40.08-32.24,100-60.83,174.38-84Z"/><path class="cls-8" d="M1168.59,1184.66c-58.51,5.51-120.08,8.45-183.65,8.45-40.85,0-80.89-1.21-119.82-3.55L732,1108C808.88,1118.9,894.58,1125,984.94,1125q42.43,0,83.35-1.74Z"/><path class="cls-8" d="M876.28,1005.63c-59.13-1.75-98-8.56-116-20-18.19-11.55-18.43-29.82-3.15-53Z"/><polygon class="cls-8" points="969.53 1062.74 895.84 1062.74 906.71 1024.26 969.53 1062.74"/><path class="cls-2" d="M1128.24,969.11v205.51c-46.24,3.35-94.17,5.1-143.3,5.1a1919.61,1919.61,0,0,1-238.83-14.51V959.69C820.6,969.09,901,974.2,984.94,974.2,1034.07,974.2,1082,972.45,1128.24,969.11Z"/><path class="cls-2" d="M1681.43,939.24c0,53.9-51.37,103.66-138.11,143.77V877.57c80.57-37.2,130.67-82.72,137.53-132.15v184A84.58,84.58,0,0,1,1681.43,939.24Z"/><path class="cls-3" d="M746.11,959.69v205.52c-267-33.65-457.65-122.13-457.65-226v-195h.42C301.23,843.5,488,927.19,746.11,959.69Z"/><path class="cls-3" d="M1385.19,930.58v205.49c-75.9,18.43-162.94,31.77-257,38.55V969.11C1222.24,962.32,1309.29,949,1385.19,930.58Z"/><path class="cls-4" d="M1543.32,877.57V1083c-44.22,20.44-97.64,38.37-158.13,53.06V930.58C1445.68,915.91,1499.09,898,1543.32,877.57Z"/><path class="cls-5" d="M1548.22,787l73.14,44.79a339.73,339.73,0,0,1-37.52,24.93l-73.22-44.84c-77.43,42.49-208.91,74.59-366.21,87.72l94.87,58.11q-34.48,4.68-70.69,8.09l-100.3-61.43q-40.86,1.73-83.35,1.75c-90.36,0-176.06-6.07-252.93-16.94l133.11,81.52C543.31,951.4,297.2,856,288.46,740.1c2.36-31.32,22.07-61.15,55.94-88.38l53.54,32.79c25-35,82.91-66.28,163.46-90.65l-42.62-26.1q27.54-8.57,57.65-16.09l43.5,26.64c101.16-23.58,227.71-37.6,365-37.6q43.84,0,86.08,1.86l-59.42-36.39q42.06.54,82.77,2.78l64.53,39.53c49.72,4.57,96.72,11,140.08,19.15l-77.39-47.4c262.8,32.74,452.2,118.49,459.84,219.86-1.29,17.22-7.83,34-19.08,50.1l-79.66-48.79C1577.59,757.27,1565.81,772.54,1548.22,787Z"/><path class="cls-6" d="M1585.58,723.39a57.56,57.56,0,0,1-2,14.84c-12.17-42.74-80.43-81-184-108.94-46.56-12.56-100.25-23-159.19-30.85-30.17-4-61.71-7.34-94.37-9.9-51.28-4-105.31-6.18-161.13-6.18-116.27,0-224.83,9.33-316.79,25.49q-33,5.8-63.1,12.75c-85.19,19.67-150.91,45.83-187.71,75.79-16.31,13.28-26.93,27.3-31.07,41.84a57.12,57.12,0,0,1-2-14.84c0-13.34,4.7-26.35,13.63-38.88,25-35,82.91-66.28,163.46-90.65q27.57-8.33,58.53-15.55c101.16-23.58,227.71-37.6,365-37.6q43.84,0,86.08,1.86c30.07,1.32,59.43,3.31,87.88,5.92,49.72,4.57,96.72,11,140.08,19.15C1470.92,599.78,1585.58,657.51,1585.58,723.39Z"/><path class="cls-7" d="M1583.62,738.23c-.28,1.07-.59,2.12-.93,3.18-5.1,15.86-16.88,31.13-34.47,45.54a246.37,246.37,0,0,1-37.6,24.88c-77.43,42.49-208.91,74.59-366.21,87.72q-37.15,3.12-76.12,4.77-40.86,1.73-83.35,1.75c-90.36,0-176.06-6.07-252.93-16.94-191.36-27.07-328-83.87-345.74-150.9,4.14-14.54,14.76-28.56,31.07-41.84,36.8-30,102.52-56.12,187.71-75.79q30-6.93,63.1-12.75c92-16.16,200.52-25.49,316.79-25.49,55.82,0,109.85,2.15,161.13,6.18,32.66,2.56,64.19,5.88,94.36,9.9h0c58.93,7.83,112.63,18.29,159.18,30.85h0C1503.19,657.21,1571.45,695.49,1583.62,738.23Z"/><path class="cls-8" d="M1681.68,746.49C1681.68,879.3,1369.74,987,984.94,987S288.21,879.3,288.21,746.49c0-2.14.09-4.26.25-6.39C298.25,870,606.34,974.2,984.94,974.2S1671.64,870,1681.43,740.1C1681.59,742.23,1681.68,744.35,1681.68,746.49Z"/><path class="cls-8" d="M1299,567.64c-43.36-8.1-90.36-14.58-140.08-19.15L1094.37,509c43.9,2.39,86.44,6.2,127.22,11.28Z"/><path class="cls-8" d="M1662.35,790.2c-10,14.4-23.83,28.28-41,41.54L1548.22,787c17.59-14.41,29.37-29.68,34.47-45.54Z"/><path class="cls-5" d="M790.53,682.81l-10.27,0-18.2,23.94q-2.68,3.56-4.94,7l119.16,73q16,.46,33.92.45h1.64l-5.13,18.17,62.82,38.48h29.34l2.41-31.94Z"/><path class="cls-6" d="M1012.66,709.08q19.13,2,28.25,5.85c4.88,2.07,8.19,4.8,9.89,8.21a13.34,13.34,0,0,0,2.91-9.25l-1.57-33.52c-.28-6-4.06-10.4-11.23-13.45q-9.12-3.88-28.25-5.85l-5.58,74c1.24-.08,2.45-.17,3.64-.27Z"/><path class="cls-6" d="M946.16,589.07c-5.87,1.45-9.44,3.72-10.71,6.86l-5,12.4c-1.52,3.77.38,6.76,5.8,8.91q7.08,2.82,22.47,3.9l9.76-34.58Q953.68,587.21,946.16,589.07Z"/><path class="cls-6" d="M847.37,639.83c-9-3.48-13.68-8-14.36-13.39l0,0v45.44c-.4,4.06,1.24,7.66,5,10.78l62.56-.23L889,711c-3.33,8.25-1.81,14.33,4.77,18a31.41,31.41,0,0,0,6.33,2.52l.44-1.11h-1.42l1.42-.14v-32q15.71,1.92,35.37,3.63L949.14,655C896.43,650.91,862.73,645.81,847.37,639.83Z"/><path class="cls-6" d="M1046.3,596.52c-.14-3.58-2.72-6.11-7.69-7.62q-6.33-1.93-20.3-2.56l-3,39.53c51.95,4.19,88.21,9.24,108.06,15.22a101.13,101.13,0,0,1,15,5.8v-39l-91.67.47Z"/><path class="cls-6" d="M911.84,787.18H910.2c-78.38.1-128.65-6.95-149.93-20.47-8.54-5.43-13.11-12.33-14-20.53l-.17-.09v46h0c.27,9.14,4.87,16.78,14.14,22.67,20.18,12.82,66.45,19.82,138,20.42Z"/><path class="cls-6" d="M1181.52,725.36c0,16-9.4,29.21-29,39-27.77,13.85-78,21.61-149.34,22.63l-4.29,56.86h-103v48h103l4.29-56.85c71.34-1,121.57-8.79,149.34-22.64,19.14-9.53,28.52-22.37,29-37.81h0V725.35Z"/><path class="cls-8" d="M1071,542.57q-42.16-1.83-86.08-1.86c-137.3,0-263.85,14-365,37.6l-43.5-26.64C691.21,522.94,832.35,506,984.94,506q13.39,0,26.66.17Z"/><path class="cls-8" d="M1583.84,856.67c-78.69,45.58-199.82,81.41-344.56,101l-94.87-58.11c157.3-13.13,288.78-45.23,366.21-87.72Z"/><path class="cls-8" d="M1177.49,705.9,1164.6,673c-5.89-15-19.75-25.41-41.22-31.88-19.85-6-56.11-11-108.05-15.23l3-39.53c9.3.42,16.08,1.27,20.3,2.56,5,1.51,7.55,4,7.69,7.62l.46,11.81,91.67-.47-3.94-10.14c-4.74-12.17-15.27-19.59-31.54-23-15.23-3.21-43-4.8-83.4-4.86l.83-11-4.25,0-35.39.22-4.52,0-3.11,11c-37.88.79-65.72,3.11-83.83,7.06-19.48,4.25-33.39,11.71-41.76,23l-10,13.43c-8.41,11.32-5.48,20.24,9.84,26.2s49,11.07,101.76,15.2l-22.66,80.29q-24-1.44-32.72-6.32c-6.58-3.67-8.1-9.75-4.77-18l11.55-28.61-110,.4,210.75,129.08,1.88-24.91c71.34-1,121.57-8.79,149.35-22.63C1179.63,750.83,1187.19,730.67,1177.49,705.9ZM958.71,621.13q-15.37-1.07-22.47-3.88c-5.42-2.16-7.32-5.15-5.8-8.92l5-12.4c1.27-3.14,4.84-5.41,10.71-6.86q7.53-1.86,22.31-2.51Zm83.57,107.94q-10.54,4.36-35.2,6l5.58-74q19.13,2,28.25,5.84c7.17,3.05,10.95,7.5,11.23,13.45l1.56,33.51C1054,720.65,1050.24,725.76,1042.28,729.07Z"/><path class="cls-8" d="M561.4,593.86c-80.55,24.37-138.5,55.64-163.46,90.65L344.4,651.72c40.08-32.23,100-60.83,174.38-84Z"/><path class="cls-8" d="M1168.59,965.75c-58.51,5.51-120.08,8.45-183.65,8.45-40.85,0-80.89-1.21-119.82-3.55L732,889.13c76.87,10.87,162.57,16.94,252.93,16.94q42.43,0,83.35-1.75Z"/><path class="cls-8" d="M876.28,786.73c-59.13-1.76-98-8.56-116-20-18.19-11.54-18.43-29.82-3.15-53Z"/><polygon class="cls-8" points="969.53 843.83 895.84 843.83 906.71 805.36 969.53 843.83"/><path class="cls-2" d="M840,729V934.48c-46.24,3.34-94.17,5.09-143.3,5.09A1919.61,1919.61,0,0,1,457.9,925.06V719.54c74.49,9.4,154.93,14.51,238.83,14.51C745.86,734.05,793.79,732.3,840,729Z"/><path class="cls-2" d="M1393.22,699.09c0,53.91-51.37,103.67-138.12,143.77V637.43c80.58-37.2,130.68-82.72,137.54-132.15v184A84.58,84.58,0,0,1,1393.22,699.09Z"/><path class="cls-3" d="M457.9,719.54V925.06C190.88,891.41.25,802.94.25,699.09v-195H.67C13,603.36,199.79,687.05,457.9,719.54Z"/><path class="cls-3" d="M1097,690.44V895.93c-75.9,18.43-162.94,31.76-257,38.55V729C934,722.18,1021.07,708.86,1097,690.44Z"/><path class="cls-4" d="M1255.1,637.43V842.86c-44.21,20.44-97.63,38.37-158.12,53.07V690.44C1157.46,675.76,1210.88,657.85,1255.1,637.43Z"/><path class="cls-5" d="M1260,546.8l73.14,44.8a339.54,339.54,0,0,1-37.51,24.92l-73.22-44.84C1145,614.17,1013.5,646.27,856.2,659.41l94.87,58.11q-34.49,4.66-70.69,8.09l-100.3-61.43q-40.86,1.73-83.35,1.74c-90.36,0-176.06-6.07-252.93-16.94l133.1,81.53C255.1,711.26,9,615.81.25,500c2.36-31.32,22.07-61.15,55.94-88.39l53.54,32.8c25-35,82.91-66.29,163.46-90.65l-42.62-26.11q27.54-8.57,57.64-16.09l43.5,26.64c101.17-23.58,227.72-37.59,365-37.59q43.85,0,86.08,1.86L723.39,266q42.06.56,82.77,2.79l64.53,39.53c49.72,4.56,96.72,11,140.07,19.15l-77.39-47.41c262.81,32.75,452.2,118.5,459.85,219.87-1.3,17.21-7.84,34-19.08,50.1l-79.66-48.8C1289.37,517.12,1277.6,532.39,1260,546.8Z"/><path class="cls-6" d="M1297.37,483.25a57.56,57.56,0,0,1-2,14.84c-12.17-42.74-80.44-81-184-108.94-46.57-12.56-100.25-23-159.2-30.86-30.16-4-61.71-7.34-94.37-9.9-51.27-4-105.31-6.18-161.12-6.18-116.27,0-224.83,9.33-316.79,25.49-22,3.87-43.1,8.13-63.1,12.75-85.2,19.68-150.91,45.83-187.71,75.79-16.31,13.28-26.93,27.3-31.08,41.85a57.56,57.56,0,0,1-2-14.84c0-13.34,4.71-26.36,13.64-38.88,25-35,82.91-66.29,163.46-90.65,18.37-5.56,37.92-10.76,58.52-15.56,101.17-23.58,227.72-37.59,365-37.59q43.85,0,86.08,1.86c30.07,1.32,59.43,3.3,87.88,5.92,49.72,4.56,96.72,11,140.07,19.15C1182.71,359.63,1297.37,417.36,1297.37,483.25Z"/><path class="cls-7" d="M1295.41,498.09c-.28,1.06-.59,2.12-.93,3.17-5.11,15.86-16.88,31.13-34.48,45.54a245.75,245.75,0,0,1-37.59,24.88C1145,614.17,1013.5,646.27,856.2,659.41q-37.17,3.11-76.12,4.77-40.86,1.73-83.35,1.74c-90.36,0-176.06-6.07-252.93-16.94-191.36-27.06-328-83.87-345.75-150.89,4.15-14.55,14.77-28.57,31.08-41.85,36.8-30,102.51-56.11,187.71-75.79,20-4.62,41.08-8.88,63.1-12.75,92-16.16,200.52-25.49,316.79-25.49,55.81,0,109.85,2.15,161.12,6.18,32.66,2.56,64.2,5.88,94.37,9.9h0c58.94,7.83,112.63,18.3,159.19,30.86h0C1215,417.07,1283.24,455.35,1295.41,498.09Z"/><path class="cls-8" d="M1393.46,506.34c0,132.82-311.94,240.48-696.73,240.48S0,639.16,0,506.34q0-3.19.25-6.38C10,629.83,318.12,734.05,696.73,734.05S1383.42,629.83,1393.22,500Q1393.46,503.14,1393.46,506.34Z"/><path class="cls-8" d="M1010.76,327.5c-43.35-8.11-90.35-14.59-140.07-19.15l-64.53-39.53c43.9,2.39,86.44,6.19,127.21,11.27Z"/><path class="cls-8" d="M1374.14,550.06c-10,14.39-23.83,28.28-41,41.54L1260,546.8c17.6-14.41,29.37-29.68,34.48-45.54Z"/><path class="cls-5" d="M502.32,442.66l-10.27,0-18.2,23.94q-2.69,3.54-4.94,6.95l119.16,73Q604,547,622,547h1.64l-5.13,18.18,62.82,38.48h29.35l2.41-32Z"/><path class="cls-6" d="M724.45,468.93q19.11,2,28.25,5.85c4.88,2.08,8.19,4.8,9.89,8.21a13.26,13.26,0,0,0,2.9-9.25l-1.57-33.51c-.28-6-4-10.41-11.22-13.46q-9.12-3.87-28.25-5.84l-5.59,74,3.65-.27Z"/><path class="cls-6" d="M658,348.92c-5.87,1.46-9.45,3.73-10.71,6.86l-5,12.4c-1.52,3.77.38,6.76,5.8,8.92q7.07,2.81,22.47,3.89l9.76-34.57Q665.47,347.07,658,348.92Z"/><path class="cls-6" d="M559.16,399.69c-9-3.49-13.68-8-14.36-13.39l0,0v45.44c-.4,4,1.24,7.66,5,10.77l62.57-.22-11.55,28.6c-3.33,8.24-1.81,14.32,4.78,18a31.52,31.52,0,0,0,6.32,2.53l.45-1.11H610.9l1.42-.14V458.19q15.69,1.9,35.37,3.62l13.24-46.91C608.22,410.77,574.52,405.67,559.16,399.69Z"/><path class="cls-6" d="M758.08,356.37c-.14-3.58-2.72-6.1-7.69-7.62-4.21-1.29-11-2.14-20.3-2.56l-3,39.53c51.95,4.19,88.21,9.24,108,15.23a100.19,100.19,0,0,1,15.06,5.79v-39l-91.67.48Z"/><path class="cls-6" d="M623.63,547H622c-78.39.09-128.65-7-149.94-20.48-8.53-5.42-13.1-12.33-14-20.52l-.17-.1v46h0c.26,9.13,4.86,16.77,14.13,22.66,20.19,12.82,66.46,19.82,138,20.43Z"/><path class="cls-6" d="M893.31,485.21c0,16-9.4,29.21-29,39-27.78,13.85-78,21.62-149.34,22.64l-4.29,56.85h-103v48h103L715,594.84c71.33-1,121.56-8.78,149.34-22.63,19.13-9.54,28.52-22.38,29-37.81h0V485.2Z"/><path class="cls-8" d="M782.81,302.43q-42.16-1.85-86.08-1.86c-137.3,0-263.85,14-365,37.59l-43.5-26.64C403,282.79,544.13,265.86,696.73,265.86q13.39,0,26.66.17Z"/><path class="cls-8" d="M1295.63,616.52c-78.7,45.59-199.83,81.41-344.56,101L856.2,659.41c157.3-13.14,288.78-45.24,366.21-87.73Z"/><path class="cls-8" d="M889.28,465.76l-12.89-32.92c-5.9-15-19.76-25.42-41.23-31.89-19.84-6-56.11-11-108-15.23l3-39.53c9.31.42,16.09,1.27,20.3,2.56,5,1.52,7.56,4,7.7,7.62l.46,11.82,91.67-.48-4-10.14c-4.73-12.17-15.27-19.58-31.53-23-15.23-3.21-43-4.8-83.4-4.85l.83-11-4.25,0-35.4.23L688,319l-3.11,11c-37.89.78-65.72,3.1-83.83,7.06-19.48,4.25-33.39,11.71-41.77,23l-10,13.43c-8.4,11.33-5.47,20.25,9.84,26.2s49.06,11.08,101.77,15.2l-22.66,80.29q-24-1.43-32.72-6.32c-6.58-3.67-8.11-9.75-4.77-18l11.54-28.6-110,.39L713.07,571.74l1.88-24.9c71.34-1,121.56-8.79,149.34-22.64C891.41,510.68,899,490.53,889.28,465.76ZM670.5,381c-10.25-.71-17.76-2-22.47-3.89-5.42-2.16-7.33-5.15-5.8-8.92l5-12.39c1.26-3.14,4.84-5.41,10.71-6.86q7.53-1.87,22.31-2.52Zm83.57,107.93q-10.56,4.38-35.2,6l5.58-74q19.11,2,28.25,5.85c7.17,3,10.95,7.49,11.23,13.45l1.56,33.51C765.81,480.51,762,485.61,754.07,488.92Z"/><path class="cls-8" d="M273.19,353.72c-80.55,24.36-138.51,55.63-163.46,90.65l-53.54-32.8c40.08-32.23,100-60.82,174.38-84Z"/><path class="cls-8" d="M880.38,725.61c-58.51,5.5-120.09,8.44-183.65,8.44-40.86,0-80.9-1.21-119.83-3.54L443.8,649c76.87,10.87,162.57,16.94,252.93,16.94q42.42,0,83.35-1.74Z"/><path class="cls-8" d="M588.07,546.58c-59.13-1.75-98-8.56-116-20-18.19-11.55-18.44-29.82-3.15-53Z"/><polygon class="cls-8" points="681.31 603.68 607.63 603.68 618.49 565.21 681.31 603.68"/><path class="cls-2" d="M874.67,463.1V668.61c-46.24,3.35-94.17,5.1-143.3,5.1A1919.61,1919.61,0,0,1,492.54,659.2V453.68c74.49,9.4,154.93,14.51,238.83,14.51C780.5,468.19,828.43,466.44,874.67,463.1Z"/><path class="cls-2" d="M1427.86,433.23c0,53.91-51.37,103.66-138.11,143.77V371.57c80.57-37.2,130.67-82.72,137.53-132.15v184A84.58,84.58,0,0,1,1427.86,433.23Z"/><path class="cls-3" d="M492.54,453.68V659.2c-267-33.65-457.65-122.12-457.65-226v-195h.42C47.66,337.49,234.43,421.18,492.54,453.68Z"/><path class="cls-3" d="M1131.62,424.58V630.06c-75.9,18.44-162.94,31.77-256.95,38.55V463.1C968.67,456.32,1055.72,443,1131.62,424.58Z"/><path class="cls-4" d="M1289.75,371.57V577c-44.22,20.44-97.64,38.37-158.13,53.06V424.58C1192.11,409.9,1245.52,392,1289.75,371.57Z"/><path class="cls-5" d="M1294.65,280.94l73.14,44.79a339.73,339.73,0,0,1-37.52,24.93l-73.22-44.84c-77.43,42.49-208.91,74.59-366.21,87.73l94.87,58.11q-34.49,4.66-70.69,8.08l-100.3-61.43q-40.86,1.74-83.35,1.75c-90.36,0-176.06-6.07-252.93-16.94l133.11,81.52C289.74,445.4,43.63,350,34.89,234.1,37.25,202.78,57,173,90.83,145.71l53.54,32.8c25-35,82.91-66.29,163.46-90.65L265.21,61.75q27.54-8.56,57.65-16.09l43.5,26.64c101.16-23.58,227.71-37.6,365-37.6q43.85,0,86.08,1.87L758,.17Q800.09.73,840.8,3l64.53,39.53c49.72,4.56,96.72,11,140.08,19.15L968,14.23c262.8,32.75,452.2,118.49,459.84,219.87-1.29,17.21-7.83,34-19.08,50.09l-79.66-48.79C1324,251.26,1312.24,266.53,1294.65,280.94Z"/><path class="cls-6" d="M1332,217.39a57.56,57.56,0,0,1-2,14.84c-12.17-42.75-80.43-81-184-108.94-46.56-12.56-100.25-23-159.19-30.86-30.17-4-61.71-7.34-94.37-9.9-51.28-4-105.31-6.18-161.13-6.18-116.27,0-224.83,9.33-316.79,25.49q-33,5.8-63.1,12.75c-85.19,19.67-150.91,45.83-187.71,75.79-16.31,13.28-26.93,27.3-31.07,41.85a57.12,57.12,0,0,1-2-14.84c0-13.34,4.7-26.36,13.63-38.88,25-35,82.91-66.29,163.46-90.65q27.57-8.34,58.53-15.56c101.16-23.58,227.71-37.6,365-37.6q43.85,0,86.08,1.87c30.07,1.31,59.43,3.3,87.88,5.92,49.72,4.56,96.72,11,140.08,19.15C1217.35,93.77,1332,151.5,1332,217.39Z"/><path class="cls-7" d="M1330.05,232.23c-.28,1.06-.59,2.11-.93,3.17-5.1,15.86-16.88,31.13-34.47,45.54a246.37,246.37,0,0,1-37.6,24.88c-77.43,42.49-208.91,74.59-366.21,87.73q-37.15,3.1-76.12,4.76-40.86,1.74-83.35,1.75c-90.36,0-176.06-6.07-252.93-16.94-191.36-27.06-328-83.87-345.74-150.89,4.14-14.55,14.76-28.57,31.07-41.85,36.8-30,102.52-56.12,187.71-75.79q30-6.93,63.1-12.75c92-16.16,200.52-25.49,316.79-25.49,55.82,0,109.85,2.15,161.13,6.18,32.66,2.56,64.19,5.88,94.36,9.9h0c58.93,7.83,112.63,18.3,159.18,30.86h0C1249.62,151.21,1317.88,189.48,1330.05,232.23Z"/><path class="cls-8" d="M1428.11,240.48c0,132.81-311.94,240.48-696.74,240.48S34.64,373.29,34.64,240.48c0-2.13.09-4.26.25-6.38C44.68,364,352.77,468.19,731.37,468.19S1418.07,364,1427.86,234.1C1428,236.22,1428.11,238.35,1428.11,240.48Z"/><path class="cls-8" d="M1045.41,61.64c-43.36-8.11-90.36-14.59-140.08-19.15L840.8,3C884.7,5.34,927.24,9.15,968,14.23Z"/><path class="cls-8" d="M1408.78,284.19c-10,14.4-23.83,28.28-41,41.54l-73.14-44.79c17.59-14.41,29.37-29.68,34.47-45.54Z"/><path class="cls-5" d="M537,176.8l-10.27,0-18.2,23.95q-2.69,3.54-4.94,6.95l119.16,73q16,.46,33.92.45h1.64l-5.13,18.18L716,337.82H745.3l2.41-31.94Z"/><path class="cls-6" d="M759.09,203.07q19.13,2,28.25,5.85c4.88,2.08,8.19,4.8,9.89,8.21a13.31,13.31,0,0,0,2.91-9.25l-1.57-33.51c-.28-6-4.06-10.41-11.23-13.46q-9.12-3.87-28.25-5.85l-5.58,74,3.64-.26Z"/><path class="cls-6" d="M692.59,83.06c-5.87,1.46-9.44,3.73-10.71,6.86l-5,12.4c-1.52,3.77.38,6.76,5.8,8.92q7.08,2.81,22.47,3.89l9.77-34.57Q700.11,81.2,692.59,83.06Z"/><path class="cls-6" d="M593.8,133.83c-9-3.49-13.68-8-14.36-13.4l0,0v45.45c-.4,4,1.24,7.66,5,10.77l62.56-.22L635.42,205c-3.33,8.25-1.81,14.33,4.77,18a30.84,30.84,0,0,0,6.33,2.52l.44-1.11h-1.42l1.42-.14V192.33q15.7,1.9,35.37,3.62L695.57,149C642.86,144.9,609.16,139.81,593.8,133.83Z"/><path class="cls-6" d="M792.73,90.51c-.14-3.58-2.72-6.1-7.69-7.62q-6.33-1.94-20.3-2.56l-3,39.53c52,4.19,88.21,9.24,108.06,15.23a100.05,100.05,0,0,1,15.05,5.79v-39l-91.67.47Z"/><path class="cls-6" d="M658.27,281.17h-1.64c-78.38.1-128.65-6.95-149.93-20.47-8.54-5.42-13.11-12.33-14-20.52l-.17-.1v46h0c.27,9.13,4.87,16.77,14.14,22.66,20.18,12.82,66.45,19.82,138,20.43Z"/><path class="cls-6" d="M928,219.35c0,16-9.4,29.21-29,39-27.77,13.85-78,21.62-149.34,22.63l-4.29,56.86h-103v48h103L749.59,329c71.34-1,121.57-8.78,149.34-22.63,19.14-9.54,28.52-22.38,29-37.81h0v-49.2Z"/><path class="cls-8" d="M817.45,36.57q-42.16-1.84-86.08-1.87c-137.3,0-263.85,14-365,37.6l-43.5-26.64C437.64,16.93,578.78,0,731.37,0Q744.76,0,758,.17Z"/><path class="cls-8" d="M1330.27,350.66c-78.69,45.59-199.82,81.41-344.56,101l-94.87-58.11c157.3-13.14,288.78-45.24,366.21-87.73Z"/><path class="cls-8" d="M923.92,199.89,911,167c-5.89-15-19.75-25.42-41.22-31.89-19.85-6-56.11-11-108-15.23l3-39.53c9.3.42,16.08,1.27,20.3,2.56,5,1.52,7.55,4,7.69,7.62l.46,11.82,91.67-.48-3.94-10.14c-4.74-12.17-15.27-19.58-31.54-23-15.23-3.21-43-4.8-83.4-4.86l.83-11-4.25,0-35.39.22-4.52,0-3.11,11c-37.88.78-65.72,3.1-83.83,7-19.48,4.25-33.39,11.72-41.76,23l-10,13.43c-8.4,11.32-5.48,20.24,9.84,26.2s49.05,11.08,101.76,15.2l-22.66,80.29q-24-1.44-32.72-6.32c-6.58-3.67-8.1-9.75-4.77-18L647,176.41l-110,.39L747.71,305.88,749.59,281c71.34-1,121.57-8.78,149.35-22.63C926.06,244.82,933.62,224.67,923.92,199.89ZM705.14,115.13q-15.37-1.06-22.47-3.89c-5.42-2.16-7.32-5.15-5.8-8.92l5-12.4q1.9-4.69,10.71-6.86,7.53-1.86,22.31-2.51Zm83.57,107.93q-10.55,4.38-35.2,6l5.59-74q19.11,2,28.24,5.85c7.17,3,10.95,7.49,11.23,13.44l1.56,33.51C800.45,214.64,796.67,219.75,788.71,223.06Z"/><path class="cls-8" d="M307.83,87.86c-80.55,24.36-138.5,55.63-163.46,90.65l-53.54-32.8c40.08-32.23,100-60.83,174.38-84Z"/><path class="cls-8" d="M915,459.74c-58.51,5.51-120.08,8.45-183.65,8.45-40.85,0-80.89-1.21-119.82-3.55L478.44,383.12C555.31,394,641,400.06,731.37,400.06q42.43,0,83.35-1.75Z"/><path class="cls-8" d="M622.71,280.72c-59.13-1.76-98-8.56-116-20s-18.43-29.82-3.15-53Z"/><polygon class="cls-8" points="715.96 337.82 642.27 337.82 653.14 299.35 715.96 337.82"/><path class="cls-2" d="M1977.82,1165.12l-159.57,129.51c-31.74-33.8-63.3-69.91-94.26-108.05A1920.08,1920.08,0,0,1,1584.74,992l159.58-129.51c39.65,63.76,86.37,129.43,139.24,194.58C1914.52,1095.2,1946.09,1131.31,1977.82,1165.12Z"/><path class="cls-2" d="M2349.63,1575.81c-41.86,34-112.86,25.44-198.67-16.64l159.51-129.46c79.66,39.12,146.58,49.33,189.28,23.51l-142.86,116A87.91,87.91,0,0,1,2349.63,1575.81Z"/><path class="cls-3" d="M1744.32,862.48,1584.74,992c-142.14-228.53-193.58-432.3-113-497.74l151.42-122.9.27.32C1554.17,443.83,1606.89,641.59,1744.32,862.48Z"/><path class="cls-3" d="M2169.66,1340.34l-159.55,129.5c-62.14-47.32-127.34-106.5-191.86-175.21l159.57-129.51C2042.33,1233.83,2107.52,1293,2169.66,1340.34Z"/><path class="cls-4" d="M2310.47,1429.71,2151,1559.17c-43.74-21.45-91.32-51.62-140.85-89.33l159.55-129.5C2219.17,1378.06,2266.74,1408.24,2310.47,1429.71Z"/><path class="cls-5" d="M2383.92,1376.4l11.32,85a340.57,340.57,0,0,1-43-13.42l-11.33-85.11c-81.78-33.34-189.57-115.2-298.9-229.06l14.67,110.29q-25.35-23.83-50.83-49.8l-15.51-116.59q-27.09-30.63-53.88-63.61C1879.52,944,1830.22,873.6,1790.22,807.06l20.58,154.72c-187.85-262-268.84-513.23-184.4-593,25.81-17.91,61.39-21.4,103.88-12.27l8.28,62.24c42.92-2.69,103.72,22.6,173.4,69.79L1905.37,439q24,16,48.82,34.61l6.73,50.57c82.06,63.69,172.69,153.11,259.22,259.72q27.63,34,52.8,68l-9.19-69.07q26.09,33,50,66l10,75c27.79,41.48,52.38,82.06,73.41,120.83l-12-90c140.2,224.69,193,425.78,119.08,495.6-14.18,9.84-31.31,15.33-50.91,16.76l-12.32-92.6C2425.48,1380.5,2406.2,1381,2383.92,1376.4Z"/><path class="cls-6" d="M2456.82,1365.36a57.61,57.61,0,0,1-12.76,7.83c25.51-36.38,12.21-113.51-31.37-211.51-19.59-44.07-45.3-92.35-76.36-143.05-15.89-26-33.19-52.54-51.79-79.51-29.18-42.35-61.57-85.66-96.74-129-73.27-90.27-148.93-168.68-219.43-229.9q-25.32-22-49.66-41c-69-53.75-130.69-88.29-177.15-98-20.58-4.29-38.17-3.7-52.07,2.25a58.06,58.06,0,0,1,10.29-10.88c10.36-8.4,23.42-12.95,38.78-13.91,42.92-2.69,103.72,22.6,173.4,69.79q23.83,16.14,49,35.64c82.06,63.69,172.69,153.11,259.22,259.72q27.63,34,52.8,68,26.89,36.25,50.78,72c27.79,41.48,52.38,82.06,73.41,120.83C2480.54,1198.43,2508,1323.84,2456.82,1365.36Z"/><path class="cls-7" d="M2444.06,1373.19c-1,.45-2,.88-3,1.28-15.53,6-34.81,6.51-57.09,1.93a245.8,245.8,0,0,1-43-13.51c-81.78-33.34-189.57-115.2-298.9-229.06q-25.83-26.88-51.67-56.1-27.09-30.63-53.88-63.61C1879.52,944,1830.22,873.6,1790.22,807.06c-99.58-165.63-141.6-307.54-100.73-363.54,13.9-5.95,31.49-6.54,52.07-2.25,46.46,9.7,108.18,44.24,177.15,98q24.29,18.93,49.66,41c70.5,61.22,146.16,139.63,219.43,229.9,35.17,43.34,67.56,86.65,96.74,129,18.6,27,35.89,53.55,51.78,79.5h0c31.06,50.69,56.77,99,76.36,143h0C2456.27,1259.68,2469.57,1336.81,2444.06,1373.19Z"/><path class="cls-8" d="M2499.44,1454.52c-103.12,83.7-383.3-90.65-625.79-389.42s-355.48-608.81-252.36-692.51c1.66-1.35,3.36-2.62,5.11-3.83-94.66,89.44,18.57,394.34,257.16,688.3s513.68,467.49,620.68,393.25Q2501.93,1452.52,2499.44,1454.52Z"/><path class="cls-8" d="M2397.13,1044.68c-21-38.77-45.62-79.35-73.41-120.83l-10-75c25.81,35.6,49.66,71,71.41,105.88Z"/><path class="cls-8" d="M2453.33,1467.07c-17.51,1.28-37-.68-58.09-5.65l-11.32-85c22.28,4.58,41.56,4.1,57.09-1.93Z"/><path class="cls-5" d="M1987.29,722.48l-6.49-8-30.06,1q-4.46.15-8.51.55l18.42,138.52q9.69,12.69,21,26.61l1,1.28-17.35,7.47,9.72,73,18.49,22.79,26.33-18.26Z"/><path class="cls-6" d="M2106.88,911.51q10.5,16.08,13.26,25.62,2.21,7.64-.14,12.85a13.28,13.28,0,0,0,9-3.58l25-22.34c4.46-4,5.53-9.7,3.38-17.19q-2.74-9.52-13.26-25.62l-61,42.31c.85.91,1.68,1.8,2.51,2.66Z"/><path class="cls-6" d="M2158.15,784.24c-4.83-3.64-8.84-5-12.08-4l-12.78,3.92c-3.89,1.2-5,4.56-3.27,10.12q2.28,7.28,11.14,19.91l33-14.21Q2164.34,788.91,2158.15,784.24Z"/><path class="cls-6" d="M2056.48,739.53c-2.94-9.16-2.42-15.66,1.35-19.59v0l-35.28,28.64c-3.4,2.24-5.17,5.79-5.22,10.66l39.6,48.44-29.48,9.06c-8.5,2.61-12.26,7.62-11,15a31.4,31.4,0,0,0,2,6.49l1.15-.35-.9-1.1,1,1,24.81-20.14q8.4,13.4,19.47,29.74l44.78-19.28C2078.79,784.6,2061.52,755.22,2056.48,739.53Z"/><path class="cls-6" d="M2215.47,866.68c2.7-2.36,3-5.95,1.07-10.77q-2.48-6.13-10.8-17.38l-32.58,22.6c29.49,43,48.42,74.31,56.28,93.49a101,101,0,0,1,5,15.34l30.3-24.6-58.14-70.87Z"/><path class="cls-6" d="M1982.7,882.44l-1-1.27c-49.48-60.8-75.68-104.27-78.59-129.32-1.17-10,1.31-18,7.12-23.79l0-.19-35.68,29v0c-6.93,6-10,14.35-8.69,25.26,2.77,23.75,26.49,64.09,71.13,120Z"/><path class="cls-6" d="M2200.65,1052.87c-12.4,10-28.6,11.11-48.56,2-28.25-12.84-65.94-46.94-111.68-101.69l-46.85,32.5L1987.3,978l-52.44-64.61-.23-.28-6-7.4h0L1891.36,936h0l6.23,7.67,52.44,64.62,2.55,3.14,3.7,4.56,46.85-32.49c45.74,54.74,83.43,88.85,111.69,101.68,19.46,8.85,35.35,8,47.63-1.31l0,0,38.2-31Z"/><path class="cls-8" d="M2272.94,851.89q-25.14-33.9-52.8-68c-86.53-106.61-177.16-196-259.22-259.72l-6.73-50.57c94.64,71,196.73,169.94,292.89,288.42q8.45,10.4,16.67,20.81Z"/><path class="cls-8" d="M2352.24,1448c-85-32.38-189.14-103.85-295.56-203.88L2042,1133.83c109.33,113.86,217.12,195.72,298.9,229.06Z"/><path class="cls-8" d="M2213.22,1037.48l17.44-30.75c8-14.06,7.28-31.36-1.22-52.11-7.86-19.18-26.8-50.52-56.27-93.49l32.57-22.6q8.31,11.25,10.8,17.38c2,4.82,1.63,8.41-1.06,10.77l-8.89,7.81,58.14,70.88,5.39-9.46c6.46-11.34,5.58-24.19-2-39-7.11-13.84-23.35-36.38-48.79-67.82l9.05-6.27-2.69-3.29-22.48-27.34-2.87-3.49-10.52,4.53c-24.48-28.92-43.83-49.07-58.31-60.64-15.57-12.44-30.13-18.54-44.17-17.93l-16.72.71c-14.09.62-19.17,8.51-14.14,24.15s22.31,45.07,52.33,88.6l-76.62,33q-14-19.51-15.72-29.39c-1.29-7.42,2.47-12.43,11-15l29.48-9.06-69.63-85.16,32.6,245,20.52-14.24c45.74,54.75,83.43,88.85,111.68,101.69C2179.68,1067.45,2200.1,1060.62,2213.22,1037.48Zm-72-223.29q-8.86-12.6-11.15-19.9c-1.74-5.56-.62-8.93,3.27-10.12l12.78-3.92c3.24-1,7.25.35,12.08,4q6.2,4.66,16,15.74ZM2110,947.1q-10-5.45-26.85-23.54l61-42.31q10.51,16.1,13.27,25.62c2.14,7.49,1.07,13.22-3.37,17.19l-25,22.34C2124,950.91,2117.61,951.19,2110,947.1Z"/><path class="cls-8" d="M1912,488.52c-69.68-47.19-130.48-72.48-173.4-69.79l-8.28-62.24c50.29,10.81,110.23,39.29,175.09,82.49Z"/><path class="cls-8" d="M2005.85,1194.32c-41.14-42-82.23-87.91-122.29-137.26-25.75-31.72-50-63.58-72.76-95.28l-20.58-154.72c40,66.54,89.3,136.9,146.24,207.06q26.73,32.94,53.88,63.61Z"/><path class="cls-8" d="M1960.65,854.55c-35.91-47-55.1-81.47-57.57-102.7-2.49-21.39,11.54-33.1,39.15-35.82Z"/><polygon class="cls-8" points="1975.07 962.93 1928.63 905.72 1965.36 889.91 1975.07 962.93"/><ellipse class="cls-9" cx="192.46" cy="359.45" rx="88.01" ry="122.35"/><ellipse class="cls-9" cx="111.95" cy="250.57" rx="49.02" ry="68.14"/><ellipse class="cls-9" cx="1736.27" cy="714.07" rx="82.38" ry="114.52"/><ellipse class="cls-9" cx="1656.83" cy="821.46" rx="44.45" ry="61.8"/><ellipse class="cls-9" cx="517.29" cy="1136.07" rx="82.38" ry="114.52"/></g></g></svg>