<svg xmlns="http://www.w3.org/2000/svg" viewBox="0 0 949.27 699.41"><defs><style>.cls-1{isolation:isolate;}.cls-2,.cls-3{fill:#4bb16a;}.cls-3,.cls-6{mix-blend-mode:multiply;}.cls-4{fill:#d2ecf8;}.cls-5{fill:#b7dab6;}.cls-7{fill:#fdde83;}.cls-8{fill:#1c602c;}.cls-9{fill:#fff;}.cls-10{fill:#dadada;}</style></defs><title>Bank</title><g class="cls-1"><g id="Layer_2" data-name="Layer 2"><g id="Capa_1" data-name="Capa 1"><rect class="cls-2" x="32.38" y="61.95" width="826.48" height="510.67" rx="34.55" transform="translate(-48 81.52) rotate(-9.92)"/><path class="cls-3" d="M832.87,456.88c-45.42,12.64-91.49,22.32-138,30.05-65.85,11-132.31,18.93-199.12,20-67.73,1.13-136.75-5.1-201.19-27.05-63.44-21.61-121.34-60.39-159.74-116-27.43-39.72-46.94-84-61-130-6.69-22-11.4-44.45-16.87-66.75-3.22-13.12-6.28-26.31-8.31-39.64L28.6,131A34.56,34.56,0,0,0,.52,171L76.6,606a34.55,34.55,0,0,0,40,28.08l746-130.49a34.55,34.55,0,0,0,28.09-40l-4-23Q860,449.33,832.87,456.88Z"/><circle class="cls-4" cx="603.28" cy="165.35" r="73.6" transform="translate(402.84 757.9) rotate(-86.64)"/><circle class="cls-5" cx="714.29" cy="145.94" r="73.6" transform="translate(551.08 856.48) rotate(-88.61)"/><g class="cls-6"><path class="cls-4" d="M613.17,191.5c-30.27-9.25-59.28-25.15-79.55-49.94a73.61,73.61,0,0,0,133.62,60.21A256.67,256.67,0,0,1,613.17,191.5Z"/><path class="cls-5" d="M666.24,201.68a73.59,73.59,0,0,0,109.87-15.82C741.74,199.92,703.51,204.84,666.24,201.68Z"/></g><path class="cls-7" d="M263.4,194.1l-3.31-18.93c-1.95-11.15-11.1-18.86-20.45-17.23l-71.87,12.57-3.84.67L92.06,183.75c-9.34,1.64-15.34,12-13.39,23.15L82,225.83l26.7-4.67,12.24,70-26.71,4.67,3.46,19.78c1.95,11.15,11.11,18.86,20.45,17.23L190,320.23l3.84-.68L265.71,307c9.35-1.63,15.34-12,13.39-23.14l-3.46-19.78-26.71,4.67-12.23-70ZM140.91,287.62l-9.82,1.72-12.24-70,9.83-1.72Zm21.63-3.78-11.47,2-12.24-70,11.47-2ZM218.79,274l-11.47,2-12.23-70,11.47-2Zm20-3.49L229,272.23l-12.24-70,9.83-1.72Z"/><rect class="cls-8" x="101.54" y="323.35" width="711.07" height="55.26" transform="translate(-53.64 84) rotate(-9.92)"/><rect class="cls-8" x="490.43" y="410.28" width="109.88" height="50.21" transform="translate(-66.86 100.47) rotate(-9.92)"/><rect class="cls-8" x="125.5" y="456.46" width="177.82" height="14.21" transform="translate(-76.66 43.87) rotate(-9.92)"/><rect class="cls-8" x="131.58" y="491.21" width="177.82" height="14.21" transform="translate(-82.56 45.44) rotate(-9.92)"/><rect class="cls-8" x="137.66" y="525.96" width="177.82" height="14.21" transform="translate(-88.45 47.01) rotate(-9.92)"/><rect class="cls-8" x="497.41" y="449.15" width="336.68" height="14.21" transform="translate(-68.65 121.52) rotate(-9.92)"/><rect class="cls-8" x="619.45" y="387.71" width="109.88" height="50.21" transform="translate(-61.04 122.36) rotate(-9.92)"/><rect class="cls-8" x="739.34" y="368.84" width="85.87" height="50.21" transform="translate(-56.17 140.67) rotate(-9.92)"/><path class="cls-9" d="M37.75,156.3a23,23,0,0,1-14.43,24.27c.21-.08.78.14,1,.18l1.19.23c.76.16,1.51.33,2.26.53A25.92,25.92,0,0,1,32.14,183,21.27,21.27,0,0,1,43.07,194.1a17.9,17.9,0,0,1,.6,1.79,77.13,77.13,0,0,1,2.14,7.74c-.53-3.16-.33-5.5-.25-9.57a17.52,17.52,0,0,1,4.25-11.8,32,32,0,0,1,9.75-8A23,23,0,0,1,37.75,156.3Z"/><path class="cls-9" d="M850.58,431.61a23,23,0,0,1-14.42,24.27,3.25,3.25,0,0,1,1,.18l1.19.23c.76.16,1.52.33,2.27.53a27.71,27.71,0,0,1,4.35,1.53,21.26,21.26,0,0,1,10.94,11.06,17.9,17.9,0,0,1,.6,1.79,76.53,76.53,0,0,1,2.13,7.75c-.52-3.17-.33-5.51-.24-9.57a17.49,17.49,0,0,1,4.24-11.81,32.24,32.24,0,0,1,9.75-8A23,23,0,0,1,850.58,431.61Z"/><path class="cls-9" d="M56.33,232.52A11.67,11.67,0,0,1,49,244.84c.1,0,.39.07.51.09l.6.12c.39.08.77.16,1.15.26a13.18,13.18,0,0,1,2.21.78A10.82,10.82,0,0,1,59,251.7a7.45,7.45,0,0,1,.3.91c.36,1.31.86,2.59,1.09,3.93a24.37,24.37,0,0,1-.13-4.86,8.93,8.93,0,0,1,2.16-6,16.22,16.22,0,0,1,4.94-4.07A11.64,11.64,0,0,1,56.33,232.52Z"/><path class="cls-9" d="M735.92,235.82a11.65,11.65,0,0,1-7.32,12.32c.11,0,.4.07.51.09s.41.07.61.12c.38.08.77.16,1.15.26a13.5,13.5,0,0,1,2.21.78,10.77,10.77,0,0,1,5.54,5.61c.12.3.22.6.31.91a38.06,38.06,0,0,1,1.08,3.93,23.75,23.75,0,0,1-.12-4.86,8.85,8.85,0,0,1,2.15-6,16.38,16.38,0,0,1,5-4.07A11.67,11.67,0,0,1,735.92,235.82Z"/><path class="cls-9" d="M838.76,374.26a11.67,11.67,0,0,1-7.32,12.32c.1,0,.39.07.51.09l.6.12c.39.08.77.16,1.15.26a13.18,13.18,0,0,1,2.21.78,10.78,10.78,0,0,1,5.55,5.61,7.45,7.45,0,0,1,.3.91c.36,1.3.86,2.59,1.09,3.93a24.4,24.4,0,0,1-.13-4.86,8.91,8.91,0,0,1,2.16-6,16.22,16.22,0,0,1,4.94-4.07A11.65,11.65,0,0,1,838.76,374.26Z"/><ellipse class="cls-10" cx="485.66" cy="684.74" rx="463.62" ry="14.68"/></g></g></g></svg>