<svg xmlns="http://www.w3.org/2000/svg" viewBox="0 0 1697.05 1292.08"><defs><style>.cls-1{isolation:isolate;}.cls-2{fill:#f8aa9a;mix-blend-mode:multiply;}.cls-3{fill:#95cac8;}.cls-4{fill:#759c9a;}.cls-5{fill:#e8e8e8;}.cls-6{fill:#73b8c8;}.cls-7{fill:#a6a9a9;}.cls-8{fill:#c3c1c0;}.cls-9{fill:#202c37;}.cls-10{fill:#fff;}.cls-11{fill:#cfcfcf;}.cls-12{fill:#fdb849;}.cls-13{fill:#82c885;}.cls-14{fill:#55bb6f;}.cls-15{fill:#f9c294;}.cls-16{fill:#c2c2c2;}.cls-17{fill:#d1d1d1;}.cls-18{fill:#7d7770;}</style></defs><title>kycimg</title><g class="cls-1"><g id="Layer_2" data-name="Layer 2"><g id="Capa_1" data-name="Capa 1"><path class="cls-2" d="M734.61,708.91a6,6,0,0,1-3.9.64,25.06,25.06,0,0,0,2.09-10V677l4.11,7.63C741.8,693.71,745.69,702.93,734.61,708.91Zm21.24-83.59a4.07,4.07,0,1,1-7.17,3.86L732.8,599.7V582.45Z"/><rect class="cls-3" x="960.9" y="11.95" width="576.4" height="755.92" transform="translate(496.15 1460.11) rotate(-72.21)"/><polygon class="cls-4" points="1161.03 664.31 1122.23 651.87 1298.36 103.04 1337.16 115.5 1161.03 664.31"/><polygon class="cls-5" points="1500.86 751.05 1192.82 652.19 1355.97 143.86 1664 242.71 1500.86 751.05"/><polygon class="cls-6" points="1563.26 292.25 1409.07 242.77 1416.29 220.27 1570.48 269.75 1563.26 292.25"/><rect class="cls-6" x="1469.07" y="164.7" width="11.81" height="275.33" transform="translate(736.38 1614.41) rotate(-72.21)"/><polygon class="cls-6" points="1595.22 378.18 1333.07 294.04 1336.67 282.8 1598.83 366.93 1595.22 378.18"/><rect class="cls-6" x="1451.02" y="220.94" width="11.81" height="275.32" transform="translate(670.28 1636.26) rotate(-72.21)"/><rect class="cls-6" x="1442" y="249.06" width="11.81" height="275.32" transform="translate(637.25 1647.21) rotate(-72.21)"/><rect class="cls-6" x="1432.97" y="277.18" width="11.81" height="275.33" transform="translate(604.21 1658.14) rotate(-72.21)"/><polygon class="cls-6" points="1559.13 490.65 1296.97 406.51 1300.58 395.27 1562.74 479.4 1559.13 490.65"/><polygon class="cls-6" points="1550.1 518.77 1287.95 434.64 1291.56 423.39 1553.71 507.52 1550.1 518.77"/><polygon class="cls-6" points="1541.08 546.89 1278.93 462.75 1282.53 451.51 1544.69 535.64 1541.08 546.89"/><rect class="cls-6" x="1396.88" y="389.65" width="11.81" height="275.33" transform="matrix(0.31, -0.95, 0.95, 0.31, 472.04, 1701.87)"/><rect class="cls-6" x="1387.85" y="417.77" width="11.81" height="275.33" transform="translate(439 1712.8) rotate(-72.21)"/><rect class="cls-6" x="1378.83" y="445.88" width="11.82" height="275.33" transform="translate(405.95 1723.72) rotate(-72.21)"/><rect class="cls-6" x="1369.81" y="474" width="11.81" height="275.33" transform="translate(372.94 1734.68) rotate(-72.21)"/><rect class="cls-6" x="1360.78" y="502.12" width="11.81" height="275.33" transform="translate(339.88 1745.6) rotate(-72.21)"/><rect class="cls-6" x="1351.76" y="530.24" width="11.81" height="275.33" transform="translate(306.84 1756.54) rotate(-72.21)"/><rect class="cls-7" x="1212.43" y="389.13" width="206.69" height="44.35" transform="translate(522.06 1538.45) rotate(-72.21)"/><rect class="cls-8" x="1292.1" y="277.54" width="15.1" height="98.41" transform="translate(591.03 1464.15) rotate(-72.19)"/><rect class="cls-8" x="1245.18" y="423.74" width="15.09" height="98.41" transform="matrix(0.31, -0.95, 0.95, 0.31, 419, 1520.75)"/><path class="cls-9" d="M1005,317.33H839.88a51.05,51.05,0,1,0-102.1,0H572.65a32.84,32.84,0,0,0-32.85,32.83v662.09a32.84,32.84,0,0,0,32.85,32.83H1005a32.83,32.83,0,0,0,32.83-32.83V350.16A32.83,32.83,0,0,0,1005,317.33Z"/><polygon class="cls-10" points="589.33 375.36 589.33 987.05 887.31 987.05 887.31 895.81 988.32 895.81 988.32 375.36 589.33 375.36"/><polygon class="cls-11" points="887.31 895.81 887.31 987.05 988.32 895.81 887.31 895.81"/><rect class="cls-12" x="623.18" y="426.03" width="85.81" height="85.8"/><rect class="cls-12" x="725.29" y="426.03" width="229.19" height="15.2"/><rect class="cls-12" x="725.29" y="461.33" width="229.19" height="15.21"/><rect class="cls-12" x="725.29" y="496.63" width="229.19" height="15.2"/><rect class="cls-12" x="623.18" y="583.53" width="85.81" height="85.81"/><rect class="cls-12" x="725.29" y="583.53" width="229.19" height="15.2"/><rect class="cls-12" x="725.29" y="618.84" width="229.19" height="15.2"/><rect class="cls-12" x="725.29" y="654.13" width="229.19" height="15.21"/><rect class="cls-12" x="623.18" y="741.03" width="85.81" height="85.81"/><rect class="cls-12" x="725.29" y="741.03" width="229.19" height="15.21"/><rect class="cls-12" x="725.29" y="776.34" width="229.19" height="15.21"/><rect class="cls-12" x="725.29" y="811.63" width="229.19" height="15.21"/><path class="cls-12" d="M808.39,317.33a19.56,19.56,0,1,1-19.56-19.55A19.56,19.56,0,0,1,808.39,317.33Z"/><polygon class="cls-13" points="257.73 1292.08 441.62 897.18 229.82 798.6 0 1292.08 257.73 1292.08"/><polygon class="cls-14" points="257.73 1292.08 441.62 897.18 332.05 846.2 124.4 1292.08 257.73 1292.08"/><path class="cls-15" d="M293.07,798S281.49,617.13,324.6,588.74s124-109.32,159.79-114.58,104.09-29.44,118.79,8.41-27.32,47.31-27.32,47.31,33.64-14.72,35.75,12.61-52.58,102-145.08,163S347.72,834.75,347.72,834.75Z"/><path class="cls-16" d="M269.89,663.46a12.48,12.48,0,0,0,16.42,6.47l51-22.19a12.47,12.47,0,1,0-9.94-22.87l-51,22.18A12.49,12.49,0,0,0,269.89,663.46Z"/><path class="cls-16" d="M320.58,599.07l9.12,21L391,593.39l-4.91-11.3,89.72-39a10.55,10.55,0,0,0-8.43-19.35L326.06,585.17A10.58,10.58,0,0,0,320.58,599.07Z"/><rect class="cls-5" x="287.28" y="526.26" width="472.59" height="53.89" transform="translate(-177.16 254.64) rotate(-23.5)"/><polygon class="cls-5" points="786.87 434.37 790.08 441.77 751.02 483.73 729.53 434.31 786.87 434.37"/><rect class="cls-17" x="282.08" y="527.34" width="472.58" height="27.84" transform="translate(-172.8 251.51) rotate(-23.49)"/><polygon class="cls-18" points="516.39 526.94 537.88 576.37 530.74 579.47 509.26 530.05 516.39 526.94"/><polygon class="cls-18" points="535.75 518.53 557.24 567.95 550.11 571.05 528.63 521.63 535.75 518.53"/><polygon class="cls-18" points="555.11 510.11 576.6 559.54 569.47 562.64 547.98 513.22 555.11 510.11"/><polygon class="cls-17" points="740.63 459.83 788.83 438.89 786.87 434.37 729.53 434.31 740.63 459.83"/><path class="cls-15" d="M415,857.88s63.07-77.79,63.07-138.77,11.57-88.32,47.31-120.91,71.49-72.53,49.4-96.71-90.41,36.8-132.46,77.79-92.52,97.66-92.52,97.66l-2.1,157.81Z"/><polygon class="cls-10" points="451.09 910.3 217.15 801.34 241.39 749.28 475.36 858.24 451.09 910.3"/><polygon class="cls-13" points="1436.11 1292.08 1346.14 1125.5 1151.99 1230.36 1185.32 1292.08 1436.11 1292.08"/><polygon class="cls-14" points="1310.71 1292.08 1249.06 1177.93 1151.99 1230.36 1185.32 1292.08 1310.71 1292.08"/><path class="cls-15" d="M955.87,944.76c21.65-11.7,41.49,26.88,52.64,47.51s21.9,37.47,31.7,32.18c14.44-7.81,9.38-19.81,3-31.61l-19.47-36.07-14.23-26.33L954.07,827.78A24,24,0,1,1,996.3,805l62.25,115.59a5.31,5.31,0,1,0,9.34-5l-41.64-77.43a24,24,0,0,1,42.22-22.8l48.41,89.76a5.3,5.3,0,0,0,9.36-5l.1,0-39-72.28A24,24,0,1,1,1129.51,805l49.75,92.12a5.31,5.31,0,1,0,9.35-5.05l-.07-.12-39.65-73.43a24,24,0,1,1,42.22-22.8l83.66,154.89c35.31,65.38-18.18,59.34-.25,92.54,12.25,22.67,26.44,47,26.44,47l-148.62,80.28c-29.53-54.66-37.65-79.59-88.71-85.32s-66.88-25.16-92.51-72.61S934.21,956.46,955.87,944.76Z"/><rect class="cls-10" x="1115.46" y="1106.62" width="233.36" height="79.97" transform="translate(-396.85 723.24) rotate(-28.37)"/></g></g></g></svg>