<svg xmlns="http://www.w3.org/2000/svg" xmlns:xlink="http://www.w3.org/1999/xlink" viewBox="0 0 1368.51 826.86"><defs><style>.cls-1{mask:url(#mask);filter:url(#luminosity-noclip-3);}.cls-2,.cls-4{mix-blend-mode:multiply;}.cls-2{fill:url(#linear-gradient);}.cls-3{mask:url(#mask-2);filter:url(#luminosity-noclip-4);}.cls-4{fill:url(#linear-gradient-2);}.cls-5{fill:#ffd736;}.cls-12,.cls-14,.cls-15,.cls-6{opacity:0.55;}.cls-15,.cls-7{fill:#fff;}.cls-8,.cls-9{fill:#66142e;}.cls-16,.cls-9{opacity:0.3;}.cls-10{fill:#ffbd00;}.cls-11{mask:url(#mask-3);}.cls-12{fill:url(#linear-gradient-3);}.cls-13{mask:url(#mask-4);}.cls-14{fill:url(#linear-gradient-4);}.cls-17{fill:#764b43;}.cls-18{filter:url(#luminosity-noclip-2);}.cls-19{filter:url(#luminosity-noclip);}</style><filter id="luminosity-noclip" x="382.86" y="-8964.33" width="352.67" height="32766" filterUnits="userSpaceOnUse" color-interpolation-filters="sRGB"><feFlood flood-color="#fff" result="bg"/><feBlend in="SourceGraphic" in2="bg"/></filter><mask id="mask" x="382.86" y="-8964.33" width="352.67" height="32766" maskUnits="userSpaceOnUse"><g class="cls-19"/></mask><linearGradient id="linear-gradient" x1="676.12" y1="272.21" x2="420.58" y2="669.41" gradientUnits="userSpaceOnUse"><stop offset="0" stop-color="#8c8c8c"/><stop offset="1"/></linearGradient><filter id="luminosity-noclip-2" x="553.19" y="-8964.33" width="285.96" height="32766" filterUnits="userSpaceOnUse" color-interpolation-filters="sRGB"><feFlood flood-color="#fff" result="bg"/><feBlend in="SourceGraphic" in2="bg"/></filter><mask id="mask-2" x="553.19" y="-8964.33" width="285.96" height="32766" maskUnits="userSpaceOnUse"><g class="cls-18"/></mask><linearGradient id="linear-gradient-2" x1="836.74" y1="375.55" x2="581.2" y2="772.75" xlink:href="#linear-gradient"/><filter id="luminosity-noclip-3" x="382.86" y="270.09" width="352.67" height="436.04" filterUnits="userSpaceOnUse" color-interpolation-filters="sRGB"><feFlood flood-color="#fff" result="bg"/><feBlend in="SourceGraphic" in2="bg"/></filter><mask id="mask-3" x="382.86" y="270.09" width="352.67" height="436.04" maskUnits="userSpaceOnUse"><g class="cls-1"><path class="cls-2" d="M735.53,306.45,463,706.13a243.51,243.51,0,0,1-80.17-104.67L608.79,270.09A240.83,240.83,0,0,1,735.53,306.45Z"/></g></mask><linearGradient id="linear-gradient-3" x1="676.12" y1="272.21" x2="420.58" y2="669.41" gradientUnits="userSpaceOnUse"><stop offset="0" stop-color="#fff"/><stop offset="1" stop-color="#fff"/></linearGradient><filter id="luminosity-noclip-4" x="553.19" y="375.15" width="285.96" height="379.31" filterUnits="userSpaceOnUse" color-interpolation-filters="sRGB"><feFlood flood-color="#fff" result="bg"/><feBlend in="SourceGraphic" in2="bg"/></filter><mask id="mask-4" x="553.19" y="375.15" width="285.96" height="379.31" maskUnits="userSpaceOnUse"><g class="cls-3"><path class="cls-4" d="M839.16,439.87l-214.08,314q-8.48.58-17.05.59a242.38,242.38,0,0,1-54.84-6.25L807.54,375.15A241.39,241.39,0,0,1,839.16,439.87Z"/></g></mask><linearGradient id="linear-gradient-4" x1="836.74" y1="375.55" x2="581.2" y2="772.75" xlink:href="#linear-gradient-3"/></defs><title>money</title><g id="Layer_2" data-name="Layer 2"><g id="Big_Side_Coin_2" data-name="Big Side Coin 2"><circle class="cls-5" cx="608.03" cy="512.28" r="305.32"/><g class="cls-6"><path class="cls-7" d="M830.73,303.45a304.29,304.29,0,0,0-208.5-82.3c-168.63,0-305.33,136.7-305.33,305.33A304.31,304.31,0,0,0,399.19,735a304.34,304.34,0,0,1-96.48-222.7C302.71,343.65,439.4,207,608,207A304.37,304.37,0,0,1,830.73,303.45Z"/></g><path class="cls-8" d="M608,826.86a314.59,314.59,0,1,1,222.44-92.14A312.53,312.53,0,0,1,608,826.86Zm0-610.65C444.78,216.21,312,349,312,512.28S444.78,808.34,608,808.34,904.09,675.53,904.09,512.28,771.28,216.21,608,216.21Z"/><path class="cls-9" d="M850.21,512.28c0,127.8-99.52,232.81-225.13,241.59q-8.48.58-17.05.59A242.19,242.19,0,0,1,365.84,512.28c0-133.54,108.65-242.19,242.19-242.19h.76a240.83,240.83,0,0,1,126.74,36.36A241.78,241.78,0,0,1,850.21,512.28Z"/><circle class="cls-10" cx="608.03" cy="512.28" r="206.76" transform="translate(-184.15 579.98) rotate(-45)"/><g class="cls-6"><path class="cls-7" d="M867.34,529.41c0,133.54-108.65,242.18-242.18,242.18A241.6,241.6,0,0,1,445.64,691.8,241.29,241.29,0,0,0,608,754.46c133.53,0,242.18-108.64,242.18-242.18a241.25,241.25,0,0,0-62.67-162.39A241.57,241.57,0,0,1,867.34,529.41Z"/></g><path class="cls-8" d="M689.8,561.84c0-33.56-19.78-55.46-61.81-71-30.74-11.66-44.16-18.37-44.16-33.56,0-12.36,11.31-23,34.62-23a113,113,0,0,1,49.8,11.31l12-43.45c-12.07-5.44-28.33-10.32-49.55-11.64V362.16H594.79v30.22c-41.24,7.77-65.36,35.24-65.36,69.49,0,34.62,25.79,56.52,65.35,70.3,28.61,10.24,39.92,18.72,39.92,33.55,0,15.55-13.07,25.79-37.8,25.79-23,0-45.21-7.42-59.69-14.84l-11,44.51c13.42,7.42,40.26,14.48,67.46,14.48h1.07v26.74h35.92V631.32C670.73,621,689.8,593.27,689.8,561.84Z"/><g class="cls-11"><path class="cls-12" d="M735.53,306.45,463,706.13a243.51,243.51,0,0,1-80.17-104.67L608.79,270.09A240.83,240.83,0,0,1,735.53,306.45Z"/></g><g class="cls-13"><path class="cls-14" d="M839.16,439.87l-214.08,314q-8.48.58-17.05.59a242.38,242.38,0,0,1-54.84-6.25L807.54,375.15A241.39,241.39,0,0,1,839.16,439.87Z"/></g><path class="cls-8" d="M608,763.72c-138.65,0-251.44-112.8-251.44-251.44S469.38,260.83,608,260.83s251.44,112.8,251.44,251.45S746.67,763.72,608,763.72Zm0-484.37c-128.44,0-232.93,104.49-232.93,232.93S479.59,745.2,608,745.2,841,640.71,841,512.28,736.46,279.35,608,279.35Z"/><rect class="cls-5" x="869.75" y="718.2" width="440.74" height="96.94" rx="18.52"/><rect class="cls-15" x="923.45" y="718.2" width="100" height="96.94"/><g class="cls-16"><rect class="cls-17" x="1158.02" y="718.2" width="118.67" height="99.4"/></g><path class="cls-8" d="M1292,824.4H888.27a27.81,27.81,0,0,1-27.78-27.78v-59.9a27.81,27.81,0,0,1,27.78-27.78H1292a27.81,27.81,0,0,1,27.78,27.78v59.9A27.81,27.81,0,0,1,1292,824.4Zm-403.7-96.94a9.27,9.27,0,0,0-9.26,9.26v59.9a9.27,9.27,0,0,0,9.26,9.26H1292a9.27,9.27,0,0,0,9.26-9.26v-59.9a9.27,9.27,0,0,0-9.26-9.26Z"/><rect class="cls-5" x="918.51" y="621.25" width="440.74" height="96.94" rx="18.52"/><rect class="cls-15" x="972.22" y="621.25" width="100" height="96.94"/><g class="cls-16"><rect class="cls-17" x="1206.79" y="621.25" width="118.67" height="99.4"/></g><path class="cls-8" d="M1340.74,727.46H937a27.82,27.82,0,0,1-27.78-27.78V639.77A27.81,27.81,0,0,1,937,612h403.71a27.8,27.8,0,0,1,27.77,27.77v59.91A27.81,27.81,0,0,1,1340.74,727.46ZM937,630.51a9.28,9.28,0,0,0-9.26,9.26v59.91a9.27,9.27,0,0,0,9.26,9.26h403.71a9.27,9.27,0,0,0,9.26-9.26V639.77a9.28,9.28,0,0,0-9.26-9.26Z"/><path class="cls-5" d="M1329,420.71,974.58,614a18.51,18.51,0,0,1-25.12-7.39L920.78,554a18.51,18.51,0,0,1,7.39-25.12L1282.61,335.6a18.51,18.51,0,0,1,25.12,7.39l28.68,52.6A18.51,18.51,0,0,1,1329,420.71Z"/><rect class="cls-15" x="976.17" y="482.17" width="100" height="96.94" transform="translate(-128.8 556.02) rotate(-28.6)"/><g class="cls-16"><rect class="cls-17" x="1181.55" y="365.25" width="118.67" height="99.4" transform="translate(-47.21 644.7) rotate(-28.6)"/></g><path class="cls-8" d="M965.75,625.51a28.07,28.07,0,0,1-7.88-1.14A27.63,27.63,0,0,1,941.33,611l-28.68-52.6a27.77,27.77,0,0,1,11.09-37.68l354.43-193.27a27.78,27.78,0,0,1,37.69,11.09l28.68,52.6a27.8,27.8,0,0,1-11.09,37.68h0L979,622.11A27.66,27.66,0,0,1,965.75,625.51Zm325.71-282.92a9.24,9.24,0,0,0-4.42,1.14L932.6,537a9.26,9.26,0,0,0-3.69,12.57l28.68,52.59a9.26,9.26,0,0,0,12.56,3.7l354.43-193.27a9.26,9.26,0,0,0,3.7-12.56l-28.68-52.6a9.2,9.2,0,0,0-5.51-4.45A9.5,9.5,0,0,0,1291.46,342.59Z"/><path class="cls-5" d="M11.21,742.67,277.5,207.56a18.51,18.51,0,0,1,24.83-8.33l91.83,45.7a18.51,18.51,0,0,1,8.33,24.83L136.21,804.87a18.51,18.51,0,0,1-24.83,8.33L19.54,767.5A18.53,18.53,0,0,1,11.21,742.67Z"/><rect class="cls-15" x="209.7" y="285.98" width="144.02" height="139.62" transform="translate(725.74 262.09) rotate(116.46)"/><g class="cls-16"><rect class="cls-17" x="39.76" y="600.46" width="170.91" height="139.62" transform="translate(-530.65 483.76) rotate(-63.54)"/></g><path class="cls-8" d="M119.6,824.41a27.73,27.73,0,0,1-12.35-2.92l-91.83-45.7a27.78,27.78,0,0,1-12.5-37.24L269.21,203.43a27.81,27.81,0,0,1,37.24-12.49l91.84,45.7a27.77,27.77,0,0,1,12.49,37.24L144.5,809a27.83,27.83,0,0,1-24.9,15.41ZM294.09,206.55a9.26,9.26,0,0,0-8.3,5.13L19.5,746.8a9.25,9.25,0,0,0,4.17,12.41l91.83,45.7a9.27,9.27,0,0,0,12.42-4.16L394.2,265.63A9.26,9.26,0,0,0,390,253.22l-91.84-45.7A9.18,9.18,0,0,0,294.09,206.55Z"/><path class="cls-5" d="M643,11.87l513.7,305.56a18.51,18.51,0,0,1,6.45,25.38L1110.67,431a18.51,18.51,0,0,1-25.38,6.45L571.59,131.87a18.53,18.53,0,0,1-6.45-25.39l52.44-88.16A18.51,18.51,0,0,1,643,11.87Z"/><rect class="cls-15" x="936.52" y="240.73" width="144.02" height="139.62" transform="translate(1716.56 1093.01) rotate(-149.26)"/><g class="cls-16"><rect class="cls-17" x="636.83" y="45.52" width="139.62" height="170.91" transform="translate(232.83 671.34) rotate(-59.26)"/></g><path class="cls-8" d="M1094.71,449.3a27.58,27.58,0,0,1-14.15-3.92L566.86,139.82a27.76,27.76,0,0,1-9.68-38.07l52.44-88.16A27.8,27.8,0,0,1,647.7,3.91l513.7,305.56a27.77,27.77,0,0,1,9.67,38.07l-52.44,88.17a27.62,27.62,0,0,1-17,12.72A28,28,0,0,1,1094.71,449.3ZM633.51,18.53a9.44,9.44,0,0,0-2.29.28,9.19,9.19,0,0,0-5.68,4.25L573.1,111.22a9.25,9.25,0,0,0,3.22,12.69L1090,429.46a9.25,9.25,0,0,0,12.69-3.22l52.44-88.16a9.25,9.25,0,0,0-3.22-12.69L638.23,19.83A9.22,9.22,0,0,0,633.51,18.53Z"/></g></g></svg>