<svg xmlns="http://www.w3.org/2000/svg" xmlns:xlink="http://www.w3.org/1999/xlink" viewBox="0 0 1729.49 1874.28"><defs><style>.cls-1{mask:url(#mask);filter:url(#luminosity-noclip-2);}.cls-2{mix-blend-mode:multiply;fill:url(#linear-gradient);}.cls-3{opacity:0.15;}.cls-10,.cls-11,.cls-12,.cls-13,.cls-14,.cls-15,.cls-16,.cls-17,.cls-18,.cls-19,.cls-20,.cls-21,.cls-22,.cls-23,.cls-24,.cls-25,.cls-26,.cls-27,.cls-28,.cls-4,.cls-5,.cls-6,.cls-7,.cls-8,.cls-9{fill:#190c00;}.cls-4{opacity:0;}.cls-5{opacity:0.04;}.cls-6{opacity:0.08;}.cls-7{opacity:0.13;}.cls-8{opacity:0.17;}.cls-9{opacity:0.21;}.cls-10{opacity:0.25;}.cls-11{opacity:0.29;}.cls-12{opacity:0.33;}.cls-13{opacity:0.38;}.cls-14{opacity:0.42;}.cls-15{opacity:0.46;}.cls-16{opacity:0.5;}.cls-17{opacity:0.54;}.cls-18{opacity:0.58;}.cls-19{opacity:0.63;}.cls-20{opacity:0.67;}.cls-21{opacity:0.71;}.cls-22{opacity:0.75;}.cls-23{opacity:0.79;}.cls-24{opacity:0.83;}.cls-25{opacity:0.88;}.cls-26{opacity:0.92;}.cls-27{opacity:0.96;}.cls-29{fill:url(#linear-gradient-2);}.cls-30{fill:url(#linear-gradient-3);}.cls-31{fill:url(#linear-gradient-4);}.cls-32{fill:url(#linear-gradient-5);}.cls-33{fill:url(#linear-gradient-6);}.cls-34{fill:url(#linear-gradient-7);}.cls-35{fill:url(#linear-gradient-8);}.cls-36{fill:url(#linear-gradient-9);}.cls-37{fill:url(#linear-gradient-10);}.cls-38{fill:url(#linear-gradient-11);}.cls-39{fill:url(#linear-gradient-12);}.cls-40{fill:url(#linear-gradient-13);}.cls-41{fill:url(#linear-gradient-14);}.cls-42{fill:url(#linear-gradient-15);}.cls-43{fill:url(#linear-gradient-16);}.cls-44{fill:url(#linear-gradient-17);}.cls-45{fill:url(#linear-gradient-18);}.cls-46{fill:url(#linear-gradient-19);}.cls-47{fill:url(#linear-gradient-20);}.cls-48{fill:url(#linear-gradient-21);}.cls-49{fill:url(#linear-gradient-22);}.cls-50{fill:url(#linear-gradient-23);}.cls-51{fill:url(#linear-gradient-24);}.cls-52{fill:url(#linear-gradient-25);}.cls-53{fill:url(#linear-gradient-26);}.cls-54{fill:url(#linear-gradient-27);}.cls-55{fill:url(#linear-gradient-28);}.cls-56{mask:url(#mask-2);}.cls-57{opacity:0.76;fill:url(#linear-gradient-29);}.cls-58{fill:url(#linear-gradient-30);}.cls-59{fill:url(#linear-gradient-31);}.cls-60{opacity:0.7;fill:url(#linear-gradient-32);}.cls-61{fill:url(#linear-gradient-33);}.cls-62{fill:url(#linear-gradient-34);}.cls-63{fill:url(#linear-gradient-35);}.cls-64{fill:url(#linear-gradient-36);}.cls-65{fill:url(#linear-gradient-37);}.cls-66{fill:url(#linear-gradient-38);}.cls-67{fill:url(#linear-gradient-39);}.cls-68{fill:url(#linear-gradient-40);}.cls-69{fill:url(#linear-gradient-41);}.cls-70{fill:url(#linear-gradient-42);}.cls-71{fill:url(#linear-gradient-43);}.cls-72{fill:url(#linear-gradient-44);}.cls-73{filter:url(#luminosity-noclip);}</style><filter id="luminosity-noclip" x="757.18" y="-9129.14" width="447.67" height="32766" filterUnits="userSpaceOnUse" color-interpolation-filters="sRGB"><feFlood flood-color="#fff" result="bg"/><feBlend in="SourceGraphic" in2="bg"/></filter><mask id="mask" x="757.18" y="-9129.14" width="447.67" height="32766" maskUnits="userSpaceOnUse"><g class="cls-73"/></mask><linearGradient id="linear-gradient" x1="981.02" y1="699.13" x2="981.02" y2="1249.85" gradientUnits="userSpaceOnUse"><stop offset="0"/><stop offset="1" stop-color="#fff"/></linearGradient><linearGradient id="linear-gradient-2" x1="503.62" y1="984.15" x2="976.88" y2="984.15" gradientUnits="userSpaceOnUse"><stop offset="0" stop-color="#ebebeb"/><stop offset="1" stop-color="#d1d0cf"/></linearGradient><linearGradient id="linear-gradient-3" x1="503.62" y1="908.11" x2="976.88" y2="908.11" gradientUnits="userSpaceOnUse"><stop offset="0" stop-color="#ebebeb"/><stop offset="1" stop-color="#fbfafb"/></linearGradient><linearGradient id="linear-gradient-4" x1="503.62" y1="1012.64" x2="686" y2="1012.64" xlink:href="#linear-gradient-2"/><linearGradient id="linear-gradient-5" x1="978.15" y1="938.37" x2="1367.62" y2="938.37" gradientUnits="userSpaceOnUse"><stop offset="0" stop-color="#4c6fbf"/><stop offset="1" stop-color="#8ca3d8"/></linearGradient><linearGradient id="linear-gradient-6" x1="978.28" y1="862.33" x2="1367.62" y2="862.33" gradientUnits="userSpaceOnUse"><stop offset="0" stop-color="#879cd8"/><stop offset="1" stop-color="#a3a9ef"/></linearGradient><linearGradient id="linear-gradient-7" x1="1195.6" y1="942.48" x2="1367.62" y2="942.48" xlink:href="#linear-gradient-5"/><linearGradient id="linear-gradient-8" x1="1204.85" y1="1131.59" x2="1609.27" y2="1131.59" xlink:href="#linear-gradient-2"/><linearGradient id="linear-gradient-9" x1="1204.85" y1="1055.55" x2="1609.27" y2="1055.55" xlink:href="#linear-gradient-3"/><linearGradient id="linear-gradient-10" x1="1361.5" y1="1246.23" x2="1609.27" y2="1246.23" xlink:href="#linear-gradient-2"/><linearGradient id="linear-gradient-11" x1="166.12" y1="1090.45" x2="666.02" y2="1090.45" gradientUnits="userSpaceOnUse"><stop offset="0" stop-color="#d67822"/><stop offset="1" stop-color="#ff8409"/></linearGradient><linearGradient id="linear-gradient-12" x1="166.12" y1="994.1" x2="666.02" y2="994.1" gradientUnits="userSpaceOnUse"><stop offset="0" stop-color="#ffac06"/><stop offset="1" stop-color="#ff8409"/></linearGradient><linearGradient id="linear-gradient-13" x1="571.7" y1="1153.36" x2="193.96" y2="1294.46" xlink:href="#linear-gradient-11"/><linearGradient id="linear-gradient-14" x1="666.02" y1="1284.25" x2="1296.01" y2="1284.25" xlink:href="#linear-gradient-5"/><linearGradient id="linear-gradient-15" x1="666.02" y1="1318.23" x2="1295.16" y2="1318.23" xlink:href="#linear-gradient-5"/><linearGradient id="linear-gradient-16" x1="666.02" y1="1208.21" x2="1296.01" y2="1208.21" xlink:href="#linear-gradient-6"/><linearGradient id="linear-gradient-17" x1="757.18" y1="1208.21" x2="1204.85" y2="1208.21" xlink:href="#linear-gradient-5"/><linearGradient id="linear-gradient-18" x1="1241.29" y1="1431.52" x2="1729.49" y2="1431.52" xlink:href="#linear-gradient-11"/><linearGradient id="linear-gradient-19" x1="1719.64" y1="1351.68" x2="1177.54" y2="1264.63" xlink:href="#linear-gradient-12"/><linearGradient id="linear-gradient-20" x1="1241.29" y1="1508.15" x2="1517.12" y2="1508.15" xlink:href="#linear-gradient-11"/><linearGradient id="linear-gradient-21" x1="313.69" y1="1448.4" x2="693.54" y2="1448.4" xlink:href="#linear-gradient-2"/><linearGradient id="linear-gradient-22" x1="313.69" y1="1409.12" x2="693.54" y2="1409.12" xlink:href="#linear-gradient-3"/><linearGradient id="linear-gradient-23" x1="530.78" y1="1539.9" x2="693.54" y2="1539.9" xlink:href="#linear-gradient-2"/><linearGradient id="linear-gradient-24" x1="388.37" y1="1701.09" x2="917.66" y2="1701.09" xlink:href="#linear-gradient-5"/><linearGradient id="linear-gradient-25" x1="388.37" y1="1594.81" x2="917.66" y2="1594.81" xlink:href="#linear-gradient-6"/><linearGradient id="linear-gradient-26" x1="849.57" y1="1688.39" x2="917.66" y2="1688.39" xlink:href="#linear-gradient-5"/><linearGradient id="linear-gradient-27" x1="1613.2" y1="1463.79" x2="901.41" y2="1708.04" xlink:href="#linear-gradient-2"/><linearGradient id="linear-gradient-28" x1="884.64" y1="1545.54" x2="1461.26" y2="1545.54" xlink:href="#linear-gradient-3"/><filter id="luminosity-noclip-2" x="757.18" y="695.13" width="447.67" height="660.19" filterUnits="userSpaceOnUse" color-interpolation-filters="sRGB"><feFlood flood-color="#fff" result="bg"/><feBlend in="SourceGraphic" in2="bg"/></filter><mask id="mask-2" x="757.18" y="695.13" width="447.67" height="660.19" maskUnits="userSpaceOnUse"><g class="cls-1"><path class="cls-2" d="M757.18,695.13v513.09c0,.77,0,1.51.05,2.28,1,43.45,30.67,82.34,77.14,108.84,30.42,17.37,68,29.4,109.47,34a338,338,0,0,0,37.19,2c66.75,0,126.68-19.21,167.7-49.68,34.94-26,56.12-60.07,56.12-97.42V695.13Z"/></g></mask><linearGradient id="linear-gradient-29" x1="981.02" y1="699.13" x2="981.02" y2="1249.85" gradientUnits="userSpaceOnUse"><stop offset="0" stop-color="#2cc7f1"/><stop offset="1" stop-color="#1ddfff"/></linearGradient><linearGradient id="linear-gradient-30" x1="1716.72" y1="1369.85" x2="1174.62" y2="1282.8" gradientUnits="userSpaceOnUse"><stop offset="0" stop-color="#ffac06"/><stop offset="1" stop-color="#fff"/></linearGradient><linearGradient id="linear-gradient-31" x1="1363.15" y1="1159.86" x2="1357.69" y2="1158.99" xlink:href="#linear-gradient-30"/><linearGradient id="linear-gradient-32" x1="388.37" y1="1635.01" x2="917.66" y2="1635.01" gradientUnits="userSpaceOnUse"><stop offset="0" stop-color="#879cd8"/><stop offset="1" stop-color="#fff"/></linearGradient><linearGradient id="linear-gradient-33" x1="166.17" y1="1075.42" x2="666.02" y2="1075.42" xlink:href="#linear-gradient-30"/><linearGradient id="linear-gradient-34" x1="1080.11" y1="691.47" x2="1267.92" y2="691.47" xlink:href="#linear-gradient-2"/><linearGradient id="linear-gradient-35" x1="700.17" y1="377.12" x2="1267.92" y2="377.12" gradientUnits="userSpaceOnUse"><stop offset="0" stop-color="#ebebeb"/><stop offset="1" stop-color="#fff"/></linearGradient><linearGradient id="linear-gradient-36" x1="699.32" y1="605.73" x2="1145.97" y2="605.73" xlink:href="#linear-gradient-2"/><linearGradient id="linear-gradient-37" x1="851.78" y1="224.55" x2="976.13" y2="224.55" gradientTransform="matrix(1, 0.7, 0, 1, 0, -242.78)" xlink:href="#linear-gradient-5"/><linearGradient id="linear-gradient-38" x1="838.38" y1="185.39" x2="909.68" y2="185.39" xlink:href="#linear-gradient-5"/><linearGradient id="linear-gradient-39" x1="848.77" y1="241.58" x2="1168.76" y2="241.58" xlink:href="#linear-gradient-5"/><linearGradient id="linear-gradient-40" x1="799.32" y1="251.24" x2="1135.51" y2="251.24" xlink:href="#linear-gradient-6"/><linearGradient id="linear-gradient-41" x1="700.16" y1="595.07" x2="1145.97" y2="595.07" xlink:href="#linear-gradient-35"/><linearGradient id="linear-gradient-42" x1="836.34" y1="206.86" x2="852.5" y2="206.86" gradientUnits="userSpaceOnUse"><stop offset="0" stop-color="#fff"/><stop offset="1" stop-color="#a3a9ef"/></linearGradient><linearGradient id="linear-gradient-43" x1="817.77" y1="251.24" x2="1135.04" y2="251.24" xlink:href="#linear-gradient-42"/><linearGradient id="linear-gradient-44" x1="978.28" y1="903.91" x2="1367.62" y2="903.91" xlink:href="#linear-gradient-32"/></defs><title>security</title><g id="Layer_2" data-name="Layer 2"><g id="Layer_4" data-name="Layer 4"><g class="cls-3"><ellipse class="cls-4" cx="1080.11" cy="1563.55" rx="473.9" ry="265.49"/><ellipse class="cls-5" cx="1080.11" cy="1563.55" rx="464.79" ry="260.39"/><ellipse class="cls-6" cx="1080.11" cy="1563.55" rx="455.67" ry="255.28"/><ellipse class="cls-7" cx="1080.11" cy="1563.55" rx="446.56" ry="250.17"/><ellipse class="cls-8" cx="1080.11" cy="1563.55" rx="437.44" ry="245.07"/><ellipse class="cls-9" cx="1080.11" cy="1563.55" rx="428.32" ry="239.96"/><ellipse class="cls-10" cx="1080.11" cy="1563.55" rx="419.21" ry="234.85"/><ellipse class="cls-11" cx="1080.11" cy="1563.55" rx="410.09" ry="229.74"/><ellipse class="cls-12" cx="1080.11" cy="1563.55" rx="400.98" ry="224.64"/><ellipse class="cls-13" cx="1080.11" cy="1563.55" rx="391.86" ry="219.53"/><ellipse class="cls-14" cx="1080.11" cy="1563.55" rx="382.75" ry="214.42"/><ellipse class="cls-15" cx="1080.11" cy="1563.55" rx="373.63" ry="209.32"/><ellipse class="cls-16" cx="1080.11" cy="1563.55" rx="364.52" ry="204.21"/><ellipse class="cls-17" cx="1080.11" cy="1563.55" rx="355.4" ry="199.1"/><ellipse class="cls-18" cx="1080.11" cy="1563.55" rx="346.28" ry="194"/><ellipse class="cls-19" cx="1080.11" cy="1563.55" rx="337.17" ry="188.89"/><ellipse class="cls-20" cx="1080.11" cy="1563.55" rx="328.05" ry="183.78"/><ellipse class="cls-21" cx="1080.11" cy="1563.55" rx="318.94" ry="178.68"/><ellipse class="cls-22" cx="1080.11" cy="1563.55" rx="309.82" ry="173.57"/><ellipse class="cls-23" cx="1080.11" cy="1563.55" rx="300.71" ry="168.46"/><ellipse class="cls-24" cx="1080.11" cy="1563.55" rx="291.59" ry="163.36"/><ellipse class="cls-25" cx="1080.11" cy="1563.55" rx="282.48" ry="158.25"/><ellipse class="cls-26" cx="1080.11" cy="1563.55" rx="273.36" ry="153.14"/><ellipse class="cls-27" cx="1080.11" cy="1563.55" rx="264.25" ry="148.04"/><ellipse class="cls-28" cx="1080.11" cy="1563.55" rx="255.13" ry="142.93"/></g><g class="cls-3"><ellipse class="cls-4" cx="473.9" cy="1284.25" rx="473.9" ry="265.49"/><ellipse class="cls-5" cx="473.9" cy="1284.25" rx="464.79" ry="260.39"/><ellipse class="cls-6" cx="473.9" cy="1284.25" rx="455.67" ry="255.28"/><ellipse class="cls-7" cx="473.9" cy="1284.25" rx="446.56" ry="250.17"/><ellipse class="cls-8" cx="473.9" cy="1284.25" rx="437.44" ry="245.07"/><ellipse class="cls-9" cx="473.9" cy="1284.25" rx="428.32" ry="239.96"/><ellipse class="cls-10" cx="473.9" cy="1284.25" rx="419.21" ry="234.85"/><ellipse class="cls-11" cx="473.9" cy="1284.25" rx="410.09" ry="229.74"/><ellipse class="cls-12" cx="473.9" cy="1284.25" rx="400.98" ry="224.64"/><ellipse class="cls-13" cx="473.9" cy="1284.25" rx="391.86" ry="219.53"/><ellipse class="cls-14" cx="473.9" cy="1284.25" rx="382.75" ry="214.42"/><ellipse class="cls-15" cx="473.9" cy="1284.25" rx="373.63" ry="209.32"/><ellipse class="cls-16" cx="473.9" cy="1284.25" rx="364.52" ry="204.21"/><ellipse class="cls-17" cx="473.9" cy="1284.25" rx="355.4" ry="199.1"/><ellipse class="cls-18" cx="473.9" cy="1284.25" rx="346.28" ry="194"/><ellipse class="cls-19" cx="473.9" cy="1284.25" rx="337.17" ry="188.89"/><ellipse class="cls-20" cx="473.9" cy="1284.25" rx="328.05" ry="183.78"/><ellipse class="cls-21" cx="473.9" cy="1284.25" rx="318.94" ry="178.68"/><ellipse class="cls-22" cx="473.9" cy="1284.25" rx="309.82" ry="173.57"/><ellipse class="cls-23" cx="473.9" cy="1284.25" rx="300.71" ry="168.46"/><ellipse class="cls-24" cx="473.9" cy="1284.25" rx="291.59" ry="163.36"/><ellipse class="cls-25" cx="473.9" cy="1284.25" rx="282.48" ry="158.25"/><ellipse class="cls-26" cx="473.9" cy="1284.25" rx="273.36" ry="153.14"/><ellipse class="cls-27" cx="473.9" cy="1284.25" rx="264.25" ry="148.04"/><ellipse class="cls-28" cx="473.9" cy="1284.25" rx="255.13" ry="142.93"/></g><path class="cls-29" d="M976.88,862.34c-1.26,50.26-2.75,107.57-4.2,163.19-2.15,0-4.34,0-6.49,0-110.74,0-210.46,31-280.19,80.56L503.62,995.27c115.08-81.83,279.71-133,462.57-133C969.78,862.25,973.33,862.25,976.88,862.34Z"/><path class="cls-30" d="M976.88,786.31c-1.26,50.25-2.75,107.56-4.2,163.19-2.15,0-4.34,0-6.49,0-110.74,0-210.46,31-280.19,80.57L503.62,919.23c115.08-81.83,279.71-133,462.57-133C969.78,786.21,973.33,786.21,976.88,786.31Z"/><polygon class="cls-31" points="503.62 919.23 503.62 995.27 686 1106.05 686 1030.02 503.62 919.23"/><path class="cls-32" d="M1367.62,902.49l-26.25,23.78L1195.6,1058.49c-61.23-29.28-136.19-46.8-217.32-47.69.48-18.38-.48-57.59,0-76,1-37.35,3.36-53.51,4.21-87.15.28-10.09.51-19.9.79-29.38C1126.81,819.78,1259.36,850.84,1367.62,902.49Z"/><path class="cls-33" d="M1367.62,826.46l-26.25,23.77L1195.6,982.46c-61.23-29.29-136.19-46.8-217.32-47.69,1.45-55.63,3-112.93,4.21-163.19.28-10.09.51-19.9.79-29.38C1126.81,743.74,1259.36,774.8,1367.62,826.46Z"/><polygon class="cls-34" points="1367.62 826.46 1367.62 902.5 1195.6 1058.49 1195.6 982.46 1367.62 826.46"/><path class="cls-35" d="M1609.27,1278.34v0l-247.77,11.77c-8.22-76-68-142.68-156.65-184.9v-76L1350.62,973C1496.85,1042.75,1595.64,1152.79,1609.27,1278.34Z"/><path class="cls-36" d="M1609.27,1202.3v0l-247.77,11.77c-8.22-76-68-142.69-156.65-184.91L1350.62,897C1496.85,966.72,1595.64,1076.75,1609.27,1202.3Z"/><polygon class="cls-37" points="1361.5 1214.12 1361.5 1290.15 1609.27 1278.38 1609.27 1202.3 1361.5 1214.12"/><path class="cls-38" d="M537.58,1276.8c0,1.66,0,3.26.12,4.92l-314.76,3.19-56.7.6c-.06-2.9-.12-5.8-.12-8.71,0-147.25,86.18-281.25,227.16-381.4l41.61,25.34,231.13,44v96.36C586.29,1117.77,537.58,1193.59,537.58,1276.8Z"/><path class="cls-39" d="M537.58,1180.45c0,1.66,0,3.25.12,4.91l-314.76,3.2-56.7.59c-.06-2.9-.12-5.8-.12-8.7,0-147.26,86.18-281.26,227.16-381.4l41.61,25.33L666,964.77C586.29,1021.41,537.58,1097.23,537.58,1180.45Z"/><polygon class="cls-40" points="166.24 1189.15 166.24 1285.51 537.7 1281.72 537.7 1185.36 166.24 1189.15"/><path class="cls-41" d="M1296,1284.26c0,52.56-29.81,100.57-79,137.09-57.73,42.88-142.07,69.92-236,69.92a474.16,474.16,0,0,1-52.32-2.86c-58.35-6.4-111.26-23.33-154.06-47.77-65.4-37.3-107.2-92-108.55-153.17-.08-1.08-.08-2.12-.08-3.21,0-54.21,31.74-103.61,83.68-140.52,57.57-40.91,139.9-66.52,231.33-66.52,1.78,0,3.59,0,5.37,0,67,.74,128.87,15.2,179.43,39.38,73.15,34.85,122.55,89.88,129.33,152.66A128.47,128.47,0,0,1,1296,1284.26Z"/><path class="cls-42" d="M666,1205.78v78.48S768.34,1391,771.56,1391s285.52,39.72,285.52,39.72l238.08-161.38v-61.07Z"/><path class="cls-43" d="M1296,1208.23c0,52.56-29.81,100.57-79,137.09-57.73,42.88-142.07,69.91-236,69.91a474.19,474.19,0,0,1-52.32-2.85c-58.35-6.4-111.26-23.33-154.06-47.78-65.4-37.29-107.2-92-108.55-153.17-.08-1.08-.08-2.12-.08-3.2,0-54.22,31.74-103.62,83.68-140.52,57.57-40.92,139.9-66.52,231.33-66.52,1.78,0,3.59,0,5.37,0,67,.74,128.87,15.2,179.43,39.38,73.15,34.86,122.55,89.89,129.33,152.67A128.22,128.22,0,0,1,1296,1208.23Z"/><path class="cls-44" d="M1204.85,1208.22c0,37.35-21.18,71.47-56.12,97.42-41,30.47-101,49.68-167.7,49.68a338,338,0,0,1-37.19-2c-41.46-4.55-79.05-16.58-109.47-34-46.47-26.5-76.18-65.38-77.14-108.84-.05-.77-.05-1.51-.05-2.28,0-38.53,22.55-73.63,59.46-99.85,40.91-29.08,99.42-47.27,164.39-47.27,1.26,0,2.55,0,3.81,0,47.6.52,91.58,10.79,127.5,28,52,24.78,87.09,63.88,91.91,108.49A91.75,91.75,0,0,1,1204.85,1208.22Z"/><path class="cls-45" d="M1729.49,1267.3c0,141.35-80.24,270.43-212.37,368.67L1475,1611.51,1241.29,1475.8c74.78-55.54,120.11-128.56,120.11-208.5a195.65,195.65,0,0,0-1.29-22.75l311.14-14.78v-.06l56.07-2.64A383.74,383.74,0,0,1,1729.49,1267.3Z"/><path class="cls-46" d="M1729.49,1171.82c0,141.35-80.24,270.43-212.37,368.67L1475,1516l-233.72-135.71c74.78-55.54,120.11-128.56,120.11-208.5a195.65,195.65,0,0,0-1.29-22.75l311.14-14.78v-.06l56.07-2.64A383.74,383.74,0,0,1,1729.49,1171.82Z"/><polygon class="cls-47" points="1241.29 1380.32 1241.29 1475.8 1517.12 1635.97 1517.12 1540.49 1241.29 1380.32"/><path class="cls-48" d="M693.54,1516.24,530.78,1639.59C400,1565,316.49,1455.52,313.69,1333.25v-76l248.38,73.52C563.7,1404.8,614.33,1471.08,693.54,1516.24Z"/><path class="cls-49" d="M693.54,1440.2,530.78,1563.55C400,1488.92,316.49,1379.49,313.69,1257.21l248.38-2.52C563.7,1328.76,614.33,1395,693.54,1440.2Z"/><polygon class="cls-50" points="530.78 1563.55 530.78 1639.59 693.54 1516.24 693.54 1440.2 530.78 1563.55"/><path class="cls-51" d="M917.66,1608.78,860,1833.8l-10.38,40.48c-174.69-19.13-333.12-69.92-461.2-143V1625l268.5-97.13C729.33,1569.29,818.89,1598,917.66,1608.78Z"/><path class="cls-52" d="M917.66,1502.51l-57.71,225L849.57,1768c-174.69-19.13-333.12-69.91-461.2-143l41-31,227.5-172.4C729.33,1463,818.89,1491.67,917.66,1502.51Z"/><polygon class="cls-53" points="917.66 1502.51 917.66 1613.67 849.57 1874.28 849.57 1768 917.66 1502.51"/><path class="cls-54" d="M1461.26,1605.69c-115.4,85.8-284.06,139.84-471.95,139.84a958.54,958.54,0,0,1-104.67-5.7v-76l41.29-85a574.17,574.17,0,0,0,63.38,3.46c113.77,0,215.91-32.75,285.83-84.68l186.12,32Z"/><path class="cls-55" d="M1461.26,1529.66c-115.4,85.8-284.06,139.83-471.95,139.83a961.07,961.07,0,0,1-104.67-5.69l41.29-161a574.17,574.17,0,0,0,63.38,3.46c113.77,0,215.91-32.74,285.83-84.68Z"/><g class="cls-56"><path class="cls-57" d="M757.18,695.13v513.09c0,.77,0,1.51.05,2.28,1,43.45,30.67,82.34,77.14,108.84,30.42,17.37,68,29.4,109.47,34a338,338,0,0,0,37.19,2c66.75,0,126.68-19.21,167.7-49.68,34.94-26,56.12-60.07,56.12-97.42V695.13Z"/></g><path class="cls-58" d="M1517.12,1535.82,1475,1511.37l-230.22-133.68-3.5,2.63L1475,1516l42.11,24.46c132.13-98.24,212.37-227.32,212.37-368.67,0-.87,0-1.74,0-2.61C1728.69,1309.75,1648.61,1438.06,1517.12,1535.82Z"/><path class="cls-59" d="M1361.4,1167.16c0-6.06-.27-12.12-.82-18.12l-.47,0a193.82,193.82,0,0,1,1.27,20.91C1361.39,1169,1361.4,1168.1,1361.4,1167.16Z"/><path class="cls-60" d="M913.49,1502,857,1722.41l-10.38,40.47C674.43,1744,518.07,1694.42,391,1623.06l-2.62,2c128.08,73,286.51,123.83,461.2,143L860,1727.53l57.71-225Z"/><path class="cls-61" d="M666,964.77,661,961.7c-79.13,56.56-127.44,132.09-127.44,215,0,1.66,0,3.26.12,4.91l-314.76,3.2-52.71.55c0,1.28.05,2.55.07,3.83l56.7-.59,314.76-3.2c-.12-1.66-.12-3.25-.12-4.91C537.58,1097.23,586.29,1021.41,666,964.77Z"/><path class="cls-62" d="M1146,541.25l-.85,228.32c0,8.47-.45,16.61-1.17,24.47-.06.7-.14,1.39-.21,2.1q-1.1,10.8-3,20.8c-.17.89-.35,1.77-.53,2.64-1.33,6.46-2.94,12.63-4.79,18.55-.34,1.1-.72,2.17-1.08,3.26a165,165,0,0,1-6.2,15.89c-.26.57-.48,1.2-.75,1.77a139.16,139.16,0,0,1-8.95,16.23c-.42.66-.91,1.22-1.34,1.86a119.83,119.83,0,0,1-8.68,11.48c-1.1,1.3-2.26,2.52-3.41,3.75a111.81,111.81,0,0,1-8.36,8.1c-1.21,1-2.38,2.13-3.62,3.12a107.91,107.91,0,0,1-12.88,9l122-70.87a107.91,107.91,0,0,0,12.88-9c1.24-1,2.41-2.07,3.61-3.11a114.11,114.11,0,0,0,8.37-8.11c1.15-1.24,2.3-2.46,3.41-3.75a123.23,123.23,0,0,0,8.68-11.48c.43-.64.92-1.2,1.34-1.85.09-.15.21-.28.3-.43a138.91,138.91,0,0,0,8.41-15.24c.09-.18.16-.39.24-.57.27-.57.49-1.19.75-1.77,1.53-3.36,3-6.75,4.36-10.34.66-1.79,1.22-3.7,1.84-5.55.36-1.08.74-2.15,1.08-3.26s.68-1.92,1-2.93q1.64-5.54,3-11.38c.31-1.38.56-2.83.85-4.23.18-.88.36-1.76.53-2.65.26-1.35.57-2.65.81-4q.9-5.22,1.59-10.66c.25-2,.43-4.07.63-6.11.07-.71.16-1.4.22-2.1s.19-1.67.26-2.53q.42-5.16.65-10.52c.15-3.53.24-7.13.26-10.78v-.64l.85-228.32Z"/><polygon class="cls-63" points="822.12 213 700.17 283.87 1145.97 541.25 1267.92 470.38 822.12 213"/><path class="cls-64" d="M1146,541.25l-.85,228.32c-.4,141.49-100.49,198.53-223.63,127.43S698.92,653.68,699.32,512.19l.85-228.32Z"/><path class="cls-65" d="M976.13,627.57c0-34.34-27.84-81.6-62.17-105.56s-62.18-15.56-62.18,18.78c0,26.85,17.12,61.45,41,86.79v53.61c0,11.67,9.55,27.88,21.23,36s21.22,5.27,21.22-6.41V657.2C959,665.14,976.13,654.42,976.13,627.57Z"/><path class="cls-66" d="M874.62,114.18l.3-1.53q1.17-5.58,2.77-10.69c.2-.65.42-1.27.63-1.9A94.45,94.45,0,0,1,882,90.77c.13-.28.23-.59.37-.87a80.18,80.18,0,0,1,5.13-9.29,69.23,69.23,0,0,1,8.93-11c.78-.8,1.58-1.57,2.4-2.32a62.35,62.35,0,0,1,10.89-8.3L876.43,78.26a62,62,0,0,0-10.89,8.3c-.82.76-1.62,1.52-2.4,2.32a69,69,0,0,0-8.93,11.05c-.05.07-.11.12-.15.19a81.53,81.53,0,0,0-4.86,8.81,2.52,2.52,0,0,0-.12.29c-.14.28-.25.6-.38.89-.91,2-1.8,4-2.59,6.15-.38,1-.69,2.09-1,3.12-.21.63-.43,1.26-.63,1.91s-.4,1.14-.58,1.74q-.95,3.19-1.71,6.57c-.18.77-.31,1.59-.48,2.37l-.3,1.53c-.16.8-.34,1.57-.48,2.38-.35,2-.66,4.06-.92,6.14-.14,1.14-.24,2.32-.36,3.48,0,.41-.09.8-.12,1.21s-.12,1-.16,1.49c-.16,2-.29,4-.37,6.05s-.14,4.1-.15,6.2v.37l-.43,151,33.25-19.32.43-151c0-4.89.26-9.58.68-14.11,0-.41.08-.8.12-1.21Q873.49,119.94,874.62,114.18Z"/><path class="cls-67" d="M1168.66,305.26q-.12-4-.38-8.09c-.08-1.24-.2-2.49-.3-3.73,0-.55-.08-1.09-.13-1.64-.07-.93-.13-1.84-.22-2.76q-.39-4.1-.91-8.2t-1.2-8.41a3.06,3.06,0,0,0,0-.32c0-.13,0-.25-.07-.38-.41-2.59-.85-5.18-1.34-7.77q-.82-4.36-1.78-8.75c-.23-1.06-.5-2.12-.74-3.19-.14-.62-.29-1.24-.43-1.86-.3-1.24-.56-2.49-.87-3.73-.74-3-1.52-5.93-2.34-8.9-.62-2.22-1.28-4.43-1.94-6.64-.12-.39-.22-.78-.34-1.16s-.2-.72-.31-1.07q-1.33-4.35-2.79-8.69c-1-2.86-2-5.72-3-8.57-.19-.55-.41-1.08-.61-1.63s-.35-.92-.52-1.39c-.65-1.74-1.28-3.47-2-5.2-1.07-2.73-2.16-5.45-3.29-8.17-.82-2-1.68-3.95-2.54-5.93-.15-.34-.29-.69-.44-1s-.31-.72-.46-1.07c-1.21-2.73-2.44-5.44-3.71-8.14q-2.09-4.46-4.29-8.88l-.7-1.34-.91-1.77c-1.19-2.32-2.37-4.66-3.61-7-1.55-2.9-3.21-5.74-4.83-8.61-.84-1.48-1.63-3-2.48-4.43-.34-.56-.64-1.15-1-1.73-1.42-2.42-3-4.74-4.47-7.13-2.3-3.73-4.57-7.46-7-11.11-.39-.58-.73-1.2-1.12-1.78q-4.87-7.26-10-14.27c-.19-.26-.36-.52-.54-.77L1095,110q-3.66-5-7.44-9.76c-2-2.54-4-5-6.07-7.51l-.27-.32-.13-.17c-2.13-2.56-4.29-5.1-6.48-7.58s-4.33-4.87-6.53-7.24c-.34-.36-.68-.7-1-1.07L1066,75.12c-1.57-1.66-3.13-3.33-4.72-5q-3.51-3.56-7.08-7c-.7-.67-1.43-1.32-2.14-2-.55-.53-1.11-1-1.66-1.56-1.19-1.1-2.37-2.23-3.57-3.31-2.46-2.22-5-4.4-7.46-6.51-1.06-.9-2.14-1.75-3.21-2.62l-1.72-1.41c-.84-.68-1.68-1.39-2.52-2.06q-3.64-2.88-7.35-5.6c-1.76-1.29-3.53-2.54-5.31-3.77-.34-.24-.67-.49-1-.72l-1-.68c-2.36-1.61-4.72-3.18-7.11-4.69s-4.7-2.94-7.07-4.33c-.55-.32-1.09-.65-1.64-1q-2.67-1.54-5.32-3-3.43-1.87-6.84-3.55c-1.5-.75-3-1.42-4.48-2.11l-1-.49-1.27-.6c-2.24-1-4.48-1.95-6.69-2.84S971.27,8.66,969,7.87l-1.21-.39-1.05-.35c-1.49-.5-3-1-4.45-1.45q-3.5-1-6.93-1.92c-1.14-.28-2.26-.5-3.39-.75l-1.42-.31c-.69-.15-1.38-.33-2.07-.47q-3.71-.72-7.34-1.2c-1.53-.21-3-.32-4.53-.46-.5-.06-1-.12-1.52-.16L933.71.26q-4-.27-7.89-.26c-1.17,0-2.3.12-3.45.17-.88,0-1.75.07-2.62.12S918,.34,917.1.42a92.24,92.24,0,0,0-9.69,1.4,1.52,1.52,0,0,1-.2.06c-.78.16-1.49.44-2.25.62a84,84,0,0,0-9.31,2.56c-.25.09-.48.25-.73.34a79.52,79.52,0,0,0-12.9,6L848.77,30.68a80.29,80.29,0,0,1,12.9-5.95,82.36,82.36,0,0,1,10-2.91c.76-.17,1.47-.46,2.25-.62a95.89,95.89,0,0,1,12.54-1.59c.87-.05,1.74-.08,2.62-.12a105.3,105.3,0,0,1,12.76.25c.5,0,1,.1,1.52.15A124,124,0,0,1,917.34,22l1.42.32a146.3,146.3,0,0,1,14.76,4.11c.36.13.71.23,1.06.35q7.84,2.7,15.93,6.37l1,.49c5.48,2.54,11,5.39,16.64,8.63S979.43,49.13,985,53c.34.23.67.48,1,.73q7.69,5.37,15.18,11.42l1.72,1.41q7.23,5.94,14.24,12.44c.55.53,1.11,1,1.67,1.56q7.11,6.7,13.93,13.93c.37.4.76.79,1.13,1.18q7.26,7.78,14.17,16.08l.23.27q7,8.46,13.6,17.39c.18.25.35.51.54.77,3.84,5.23,7.54,10.61,11.14,16.06,2.41,3.64,4.68,7.38,7,11.1,1.82,3,3.7,5.87,5.45,8.87.85,1.46,1.64,3,2.48,4.42,2.91,5.16,5.76,10.35,8.45,15.62.29.57.6,1.15.89,1.73q4.86,9.65,9.18,19.47c.14.32.27.65.41,1q4.2,9.63,7.82,19.38c.16.44.33.87.49,1.31q3.66,10,6.71,20c.12.39.22.78.34,1.16q2.88,9.64,5.14,19.27c.15.62.3,1.24.44,1.86,1.51,6.6,2.82,13.18,3.86,19.72,0,.12,0,.25.07.37,1,6.62,1.83,13.2,2.38,19.72.05.53.09,1.06.13,1.59.51,6.53.8,13,.78,19.38l-.43,151,33.25-19.33.43-151C1168.77,310.29,1168.73,307.78,1168.66,305.26Z"/><path class="cls-68" d="M968.18,42.29c92.57,53.45,167.63,183.46,167.33,289.83l-.43,151L1096,460.6l.43-151c.23-81.57-57.41-181.42-128.4-222.4s-129-7.92-129.24,73.65l-.43,151L799.32,289.3l.43-151C800.05,31.9,875.6-11.16,968.18,42.29Z"/><path class="cls-69" d="M700.17,283.87v1.86l444.4,256.57-.84,228.32c-.18,63.62-20.53,110.15-54,135.65,34.36-25.26,55.27-72.2,55.45-136.7l.85-228.32Z"/><path class="cls-70" d="M836.75,163.35l-.41,147.59,1.57.91.43-151c.06-24.1,5.17-44,14.16-58.94C842.53,117.12,836.83,137.87,836.75,163.35Z"/><path class="cls-71" d="M967.7,42.29c-65.2-37.65-122-27.41-149.93,19.1,28.49-44.34,84.35-53.52,148.35-16.57,92.58,53.45,167.64,183.46,167.34,289.83L1133,482.24l1.57.91.43-151C1135.34,225.75,1060.28,95.74,967.7,42.29Z"/><path class="cls-72" d="M1365.27,825.36l-24,21.7L1195.53,979.29c-61.19-29.27-136.09-46.78-217.16-47.69l-.09,3.17c81.13.89,156.09,18.4,217.32,47.69l145.77-132.23,26.25-23.77Z"/></g></g></svg>