<svg xmlns="http://www.w3.org/2000/svg" viewBox="0 0 1590.65 1088.64"><defs><style>.cls-1{fill:#f6e8dd;}.cls-2{fill:#fff;}.cls-3{fill:#ff9f0c;}.cls-4{fill:#ffc56e;}.cls-5{fill:#640533;}.cls-6{fill:#febba4;}.cls-7{fill:#3baabc;}.cls-8{fill:#49bfce;}.cls-9{fill:#f77f2a;}.cls-10{fill:#ffa17f;}.cls-11{fill:#61eef5;}</style></defs><title>support</title><g id="Layer_2" data-name="Layer 2"><g id="Layer_1-2" data-name="Layer 1"><path class="cls-1" d="M1539.23,606.39c-221.08,612.05-537.77,467.33-902.88,467.33S290,1166.49,39,829.92c-103.49-138.77,7.46-769,234-602.06,95.09,70.07,815.26-361.5,961-185.19C1511.1,378.1,1681.79,211.74,1539.23,606.39Z"/><rect class="cls-2" x="906.09" y="265.15" width="587.58" height="308.05" rx="80.3"/><path class="cls-2" d="M951.72,396.36c-11.64,7.77-99.92,60.45-155.12,93.32-10.26,6.1-4.89,21.87,7,20.49l193.78-22.53Z"/><path class="cls-1" d="M1419.51,366.06H1003.06a9.63,9.63,0,0,1,0-19.26h416.45a9.63,9.63,0,0,1,0,19.26Z"/><path class="cls-1" d="M1430.92,440.22H1008.77a9.63,9.63,0,1,1,0-19.26h422.15a9.63,9.63,0,0,1,0,19.26Z"/><path class="cls-1" d="M1430.92,508.67h-251a9.63,9.63,0,0,1,0-19.25h251a9.63,9.63,0,0,1,0,19.25Z"/><path class="cls-3" d="M191.59,981.53s31.11-312.42,163.26-376.8c94.53-46.05,186.79-32,269.74,3.36,68.62,29.23,139.27,303.74,139.27,303.74s29.14,86.56-20.5,106.6c-68.83,27.79-201.59,23.09-387.78,23.23C167.15,1041.81,191.59,981.53,191.59,981.53Z"/><path class="cls-4" d="M482,1044.44q-26.27,0-54.54-.11c-23-.07-46.93-.11-71.92-.11h-.67c-111.57,0-149.4-21.37-161.5-39.32-7.88-11.69-5.06-21.83-4.33-23.94,1.7-16.79,33.68-314.71,164.66-378.52,82.91-40.39,171.83-39.3,271.85,3.3,69,29.38,137.84,294.2,140.74,305.46,1.17,3.45,29.27,88.89-22,109.6C691.84,1042,603,1044.44,482,1044.44Zm-117.65-5.34q32.7,0,63.13.12c148.48.4,255.74.73,314.88-23.16,46.87-18.92,19.32-102.57,19-103.41-.76-2.91-71.17-273.81-137.86-302.21C525,568.44,437.47,567.33,356,607c-129.37,63-161.53,371.64-161.84,374.76a2.34,2.34,0,0,1-.17.68c-.14.38-3.44,9.15,3.79,19.74,11.51,16.84,48.14,36.9,157.14,36.9C358.08,1039.07,361.23,1039.1,364.39,1039.1Zm-172.8-57.57h0Z"/><path class="cls-5" d="M556.24,574c-4.75-35.83-10.82-84.78-10.82-101.41,0-27.33-71.06-27.33-71.06-27.33s-5.23,27.45-13.77,60C471,532.48,496.05,566.73,556.24,574Z"/><path class="cls-6" d="M460.59,505.21c-8.93,34-21.46,73.53-35.43,93.09-16.77,23.48,26.44,47,97.6,38.56,28.33-3.38,39.06-22.16,39.06-22.16s-2.52-17.65-5.58-40.72C496.05,566.73,471,532.48,460.59,505.21Z"/><path class="cls-6" d="M671.22,414.82c-32.58,112.79-62.66,130.33-118.5,132.47-70.9,2.71-128.47-63.64-128.47-142.13S481.77,263,552.72,263,693,339.41,671.22,414.82Z"/><path class="cls-5" d="M475.73,424.85s-3.44-37.35,13.44-72c27.33-56,44.2-43.33,44.2-43.33s62.32,14.64,102.76,52.63c82.71,77.7,157.9-57.65,120.3-100.25-36.63-41.52-97.74-7.52-115.29-22.56s-95.24-50.13-157.9-12.53C454,244.39,380.48,282,400.54,377.23c11.42,54.29,27.56,60.15,27.56,60.15s-7.51-45.12,12.54-50.13S475.73,424.85,475.73,424.85Z"/><path class="cls-5" d="M598.55,509.31h-.31c-29.61-1.82-47.64-12.37-66.52-38.88a5.1,5.1,0,0,1,8.31-5.93c17.26,24.23,32.11,33,58.83,34.61a5.11,5.11,0,0,1-.31,10.21Z"/><polygon class="cls-7" points="666.04 1066.08 1030.93 1066.08 1030.93 1008.68 666.04 1037.38 666.04 1066.08"/><polygon class="cls-7" points="1364.45 1066.08 884.57 1066.08 972.75 732.23 1440.34 760.14 1364.45 1066.08"/><polygon class="cls-8" points="1364.45 1066.08 903.25 1066.08 991.44 732.23 1440.34 760.14 1364.45 1066.08"/><path class="cls-6" d="M683.06,990s94.26-53.86,107.72-35.91,62.84,80.79,62.84,80.79l-22.44,4.49-31.42-35.91,4.49,35.91-130.16-9Z"/><path class="cls-9" d="M358,892.36s-10.25-102.5-10.25-114.8a282.9,282.9,0,0,1,2-28.7S380.52,878,384.62,884.16s28.7,8.2,28.7,8.2,145.55,30.75,177.32,41,45.1,18.45,45.1,18.45S487.12,921.06,461.5,917s-107.63-8.2-107.63-8.2l-57.39,21.52,65.59-36.9Z"/><path class="cls-4" d="M667.51,1042.51a2.45,2.45,0,0,1-.75-.12,2.57,2.57,0,0,1-1.69-3.2l15.55-49.93a2.66,2.66,0,0,1,.86-1.25,4,4,0,0,0,1-3.75c-.68-3.84-6.68-14.44-47.69-30.07a2.55,2.55,0,0,1,1.82-4.77c32.2,12.27,49.34,23.77,50.94,34.19a9.31,9.31,0,0,1-2.29,7.8L670,1040.71A2.55,2.55,0,0,1,667.51,1042.51Z"/><path class="cls-4" d="M497.08,644.38a98.17,98.17,0,0,1-10.93-.6c-31.6-3.51-65.38-16-65.38-40.47a2.56,2.56,0,0,1,5.11,0c0,21.13,32.77,32.28,60.84,35.39,27.56,3,55.16-6.64,67.1-17.33,4.19-3.74,6.4-7.5,6.4-10.86a2.55,2.55,0,0,1,5.1,0c0,4.86-2.79,9.92-8.09,14.66C546.07,635.17,522.3,644.38,497.08,644.38Z"/><path class="cls-4" d="M511.91,675.3c-42.48,0-79.38-19.4-98.74-51.88a2.56,2.56,0,1,1,4.39-2.62c18.43,30.93,53.69,49.39,94.35,49.39a2.56,2.56,0,0,1,0,5.11Z"/><path class="cls-10" d="M547.93,422.58a28.7,28.7,0,1,1-28.7-28.7A28.7,28.7,0,0,1,547.93,422.58Z"/><path class="cls-11" d="M1202.55,913.88A34.85,34.85,0,1,1,1167.7,879,34.85,34.85,0,0,1,1202.55,913.88Z"/><path class="cls-9" d="M656.34,744.18s20,121.41,20,134.78a186.27,186.27,0,0,1-2.23,26.73s-15.59-91.34-15.59-98S656.34,744.18,656.34,744.18Z"/><path class="cls-4" d="M643.6,1016.88h0c-42.12-.14-412.08-2.44-432.72-39.57-22.48-40.49,68.29-313.5,114.27-343.67,43.63-28.63,89.24-38.53,89.7-38.63a2.56,2.56,0,0,1,1.06,5c-.45.09-45.16,9.81-88,37.9C284.83,666.2,194.33,937,215.34,974.82c16.23,29.2,314.64,36.58,428.27,36.95a2.56,2.56,0,0,1,0,5.11Z"/><path class="cls-7" d="M471.54,406.94c-3.85,32.61-29.1,56.43-56.4,53.2s-46.32-32.27-42.47-64.87,29.1-56.43,56.4-53.2S475.39,374.34,471.54,406.94Z"/><path class="cls-8" d="M453.15,404.77c-3.85,32.61-25,56.91-47.21,54.29s-37.12-31.19-33.27-63.79,25-56.91,47.21-54.29S457,372.16,453.15,404.77Z"/><path class="cls-7" d="M419.47,379.88a9.53,9.53,0,0,1-2.71-.41,9.24,9.24,0,0,1-6.11-11.53c1.78-5.77,44.34-141.66,128-166.53,34.92-10.37,71.39,0,108.42,30.88a9.23,9.23,0,1,1-11.82,14.17c-32-26.66-62.68-35.88-91.33-27.37-74.16,22-115.21,153-115.61,154.27A9.24,9.24,0,0,1,419.47,379.88Z"/><path class="cls-8" d="M419.47,374.11a3.65,3.65,0,0,1-1-.15,3.47,3.47,0,0,1-2.29-4.32c1.73-5.66,43.41-138.7,124.1-162.71,33-9.77,67.63.23,103.1,29.79a3.46,3.46,0,0,1-4.43,5.32c-33.56-28-66-37.55-96.68-28.47C465.1,236.5,423.19,370.32,422.78,371.66A3.47,3.47,0,0,1,419.47,374.11Z"/><path class="cls-7" d="M614.56,579.3c-67.91,0-122.14-45.85-161.2-136.33-1.44-3.33-2.93-6.78-3.43-7.55l3.35-2.2,1.94-5.83c2.74.91,3.44,2.54,7.36,11.6,13.94,32.31,56.24,130.28,152,130.28h1.64l.12,10Z"/><path class="cls-7" d="M644.28,587.94H622.41a14.35,14.35,0,0,1-14.35-14.35h0a14.36,14.36,0,0,1,14.35-14.35h21.87a14.35,14.35,0,0,1,14.35,14.35h0A14.34,14.34,0,0,1,644.28,587.94Z"/><rect class="cls-8" x="619" y="566.76" width="32.8" height="12.3" rx="5.69"/></g></g></svg>