<svg xmlns="http://www.w3.org/2000/svg" viewBox="0 0 1158.88 1313.77"><defs><style>.cls-1{fill:#d46339;}.cls-2{fill:#ac5139;}.cls-3{fill:#d3613a;}.cls-4{fill:#813d2b;}.cls-5{fill:#d1bda1;}.cls-6{fill:#f7ba15;}.cls-7{fill:#feda1f;}.cls-8{fill:#f6d3c9;}.cls-9{fill:#fae9e5;}.cls-10{fill:#c4aba1;}.cls-11{fill:#4d4d4d;}.cls-12{fill:none;stroke:#f7ba15;stroke-miterlimit:10;}.cls-13{fill:#f1f1f2;}.cls-14{fill:#3b91c8;}.cls-15{fill:#3866af;}.cls-16{fill:#d0d2d3;}.cls-17{fill:#89bdde;}.cls-18{fill:#fff;}</style></defs><title>volume</title><g id="Layer_2" data-name="Layer 2"><g id="Layer_3" data-name="Layer 3"><path class="cls-1" d="M847.57,60.19c-4.24,10.35-8.81,21-13.64,31.94-21.11,47.55-47,98.8-70.31,141.72H627.28l-.08-.08c-2.53-3.12-5.05-6.26-7.52-9.46-31.81-40.79-58.92-86.76-80.82-133.39,5,1.43,10,2.84,15.08,4.13,31.63,8.2,65.15,13.28,96.5,6C688,92.27,718.59,64.45,755.5,53.14,784.53,44.27,819.92,47.64,847.57,60.19Z"/><path class="cls-2" d="M847.8,60.19c-.57,2.38-2.22,1.74-4.19,1.15-9-2.39-18-4.69-27-6.49C802,52,787.25,50.42,772.26,52.13c-47.35,5.45-85.08,44.18-131.87,53.11-21.47,4.1-42.61.48-63.88-4.1-10.78-2.3-21.59-4.88-32.51-6.79-6.15-1.1-8.28-9.69-5.22-15.1s9.24-8.2,15.1-10.33C587.65,56.65,624.2,54.6,659.23,46.57c21.44-4.91,42.32-12,63.68-17.29.62-.14,1.24-.31,1.86-.45,3.11-.75,6.26-1.46,9.4-2.07,17.85-3.71,36.13-5.56,54.15-3.12,21.81,2.92,43.31,12.72,57,29.92C846.87,55.47,848.36,57.83,847.8,60.19Z"/><path class="cls-2" d="M833.93,92.13c-21.11,47.55-47,98.8-70.31,141.72H639.49c-3.79-5.25-7.07-10.92-10.33-16.5-10.63-18.33-19.06-31.83-23.38-52.58,15.41,24.25,44.18,39.41,72.9,38.37s56.3-18.21,69.92-43.5a70.65,70.65,0,0,1-7.78,31.66C776.39,163.14,808.39,129.69,833.93,92.13Z"/><path class="cls-3" d="M1009.78,714.82c0,86.84-69.89,159.32-162.77,176a230.76,230.76,0,0,1-40.73,3.6h-216c-4.32,0-8.62-.11-12.88-.37h0c-47.13-2.58-89.91-19.34-122.92-45.5a190.87,190.87,0,0,1-26.38-25.26c-25.91-30.15-41.29-67.7-41.29-108.43,0,0,0-300.74,238.11-470.55,2.83-2.05,5.7-4.05,8.62-6H763.05a517.89,517.89,0,0,1,90.92,79C1009.78,488.13,1009.78,714.82,1009.78,714.82Z"/><path class="cls-1" d="M627.25,233.85h0a.09.09,0,0,1,0,.06Z"/><path class="cls-2" d="M1009.78,714.82c0,86.84-69.89,159.32-162.77,176a230.76,230.76,0,0,1-40.73,3.6h-216c-4.32,0-8.62-.11-12.88-.37h0c-47.13-2.58-89.91-19.34-122.92-45.5-29.47-63.15-28.49-140.93-13.5-210.26C442.11,712,490.64,782.89,559,810.7,543.1,792,532.3,767.08,533.14,742.55c56,44,139.47,67.7,210.27,60.18S881.53,759.11,927,704.32c3.53,21.73-3.46,44.21-14,63.52,50.22-43.76,65.09-107,58.24-173.27s-26.72-119.24-57.37-178.38c-16.81-32.42-37.28-65.4-59.9-98.94C1009.78,488.13,1009.78,714.82,1009.78,714.82Z"/><path class="cls-4" d="M753.65,524.51c-7.89-5-17.61-9.47-29.26-13.58C694.82,499.8,682.66,492.5,682.66,481c0-9.75,7.3-19.51,29.91-19.51,25.06,0,41,8,50.08,11.86l10.09-39.32c-11.47-5.59-27.12-10.44-50.45-11.48V391.93H688.21V425c-1.76.35-3.48.73-5.14,1.14-34.08,8.44-53.66,31.64-53.66,60.79a57.46,57.46,0,0,0,2,15.41C638.1,526.27,661,540.12,692,550.6c16.27,5.48,26.68,10.82,32.16,17.37a19.27,19.27,0,0,1,4.72,12.89c0,12.61-11.1,20.06-27.92,21.33-1.75.17-3.58.24-5.48.24-22.6,0-43.14-7.3-57.76-15.3l-10.44,40.7c10.89,6.27,28.09,11.65,46.84,13.93,4.06.51,8.2.86,12.33,1v33.05h34.09v-35.5a92.27,92.27,0,0,0,26.22-8.44c22.13-11.24,34.5-30.6,35.6-52.56.07-1.1.11-2.24.11-3.34C782.5,553.5,773.88,537.3,753.65,524.51Z"/><path class="cls-5" d="M625.84,239.52c-6.34,15.41-27.17,39.59-36,47.63-145,131.34-188.91,355-190.84,448.28-.63,30.6,14.23,58.57,23.29,87.82C396.35,793.1,381,755.55,381,714.82,381,714.82,387.73,409.34,625.84,239.52Z"/><path class="cls-4" d="M771.13,22.46A127.39,127.39,0,0,1,788,23.55c21.81,2.94,43.33,12.72,57,29.94,1.53,1.91,3,4.25,2.45,6.62a2.19,2.19,0,0,1-.81,1.4q-6.12,14.9-13.05,30.54c-19.47,43.86-43,90.85-64.84,131.57A12.58,12.58,0,0,1,773.94,246a518.8,518.8,0,0,1,79.74,71.13c155.81,170.89,155.81,397.58,155.81,397.58,0,86.84-69.89,159.32-162.77,176A230.76,230.76,0,0,1,806,894.3H590q-6.48,0-12.89-.37h0c-47.13-2.58-89.91-19.34-122.92-45.5-41.54-32.87-67.67-80.59-67.67-133.69,0,0,0-296.19,232.77-466.68a12.55,12.55,0,0,1,0-24.12c-31.71-40.73-58.83-86.55-80.69-133.1l.29.08a11.82,11.82,0,0,1-.37-11.74c3.08-5.42,9.24-8.2,15.09-10.33C587.36,56.56,623.9,54.53,658.94,46.5c21.45-4.91,42.32-12.06,63.69-17.31,15.88-3.9,32.21-6.73,48.5-6.73m0-22.46c-16.22,0-33.33,2.35-53.85,7.38-10.28,2.53-20.4,5.46-30.18,8.29-11.43,3.31-22.22,6.44-33.18,9-12.2,2.79-24.59,4.82-37.7,7-23.1,3.78-47,7.68-70.31,16.16-5.81,2.11-19.4,7.06-26.95,20.35A34.06,34.06,0,0,0,517.28,98a20,20,0,0,0,1,2.42c21,44.67,45.17,85.79,72.07,122.49a34.62,34.62,0,0,0-2.6,13.13,34,34,0,0,0,.79,7.3,553.28,553.28,0,0,0-122.8,137.6c-30,47.47-54.13,100.59-71.61,157.88C364.36,636.22,364,711.57,364,714.73c0,57.85,27.77,113,76.2,151.31,37.48,29.7,85.65,47.57,135.62,50.31H576c4.45.26,9.15.39,14,.39H806a254.93,254.93,0,0,0,44.69-3.94c50-9,95.73-33.27,128.65-68.42,33.93-36.23,52.62-82.28,52.62-129.65,0-2.43-.23-60.35-20.15-140.15C993.41,500.89,953.92,393.77,870.27,302a542.51,542.51,0,0,0-68.93-63.55c.06-.82.09-1.65.09-2.48a34.9,34.9,0,0,0-4.59-17.3c21.28-40.44,41.38-81.63,57.32-117.54,4.31-9.73,8.45-19.38,12.33-28.75a25.45,25.45,0,0,0,2.85-7.07c1.46-6.1,1.48-15.54-6.72-25.84C846.2,18.87,820.77,5.3,791,1.3A149.65,149.65,0,0,0,771.13,0Z"/><path class="cls-5" d="M619.68,224.31c-31.81-40.79-58.92-86.76-80.82-133.39,5,1.43,10,2.84,15.08,4.13,3.37,6.6,7.07,13.08,10.5,19.62q26.94,51.24,53.83,102.45C619.45,219.34,620.6,222.09,619.68,224.31Z"/><path class="cls-5" d="M847.8,60.19c-.57,2.38-2.22,1.74-4.19,1.15-9-2.39-18-4.69-27-6.49q-1.73-1.85-3.54-3.62C799.77,38.4,781.64,31.5,763.33,28.66a181.08,181.08,0,0,0-29.16-1.9c17.85-3.71,36.13-5.56,54.15-3.12,21.81,2.92,43.31,12.72,57,29.92C846.87,55.47,848.36,57.83,847.8,60.19Z"/><path class="cls-6" d="M766.63,248.72H623.1a12.64,12.64,0,0,1,0-25.27H766.63a12.64,12.64,0,0,1,0,25.27Z"/><path class="cls-7" d="M663.81,243.9l-29.2.36a4.46,4.46,0,0,1-3.29-.84c-.87-.86-.87-2.23-.82-3.46q.27-6.18.53-12.37c11.2.57,21.56-.32,32.75-1C665.39,231,665.41,239.5,663.81,243.9Z"/><path class="cls-7" d="M685.82,240.06a23.09,23.09,0,0,1-7.06,1.84,7.81,7.81,0,0,1-6.55-2.61c-1.49-1.93-1.43-5.1.53-6.56,4.19-3.12,8.55.63,13.25,2.89C686,237.49,686.35,238.27,685.82,240.06Z"/><path class="cls-8" d="M1124.92,847.52l-263.1,191.8C829.23,1061.2,751.06,1055,751.06,1055l-203.78-27.22c-26.35-2.56-96.75,46.76-96.75,46.76L283.45,820.3l171.16-105a120.39,120.39,0,0,1,94.86-9c16.3,5.27,46,15.34,80.65,27.21,59.31,20.32,133.08,45.9,178.9,61.7a60.68,60.68,0,0,1,20.12,103l235.75-142.15a54.72,54.72,0,0,1,60,91.41Z"/><path class="cls-9" d="M458.15,747.85a120.41,120.41,0,0,1,94.87-9c16.3,5.27,46,15.34,80.65,27.21,59.3,20.32,133.08,45.9,178.89,61.7a60.31,60.31,0,0,1,31.06,24.31,60.52,60.52,0,0,0-38.88-42c-45.82-15.8-119.59-41.39-178.89-61.7-34.65-11.87-64.36-21.94-80.65-27.21a120.41,120.41,0,0,0-94.87,8.95L279.17,835.21l10.53,16Z"/><path class="cls-9" d="M850.28,904.5a60.28,60.28,0,0,1-17.6,26.36l235.76-142.15A54.71,54.71,0,0,1,1142,804.8,54.66,54.66,0,0,0,1060.62,771L852.31,896.62A60.41,60.41,0,0,1,850.28,904.5Z"/><path class="cls-10" d="M1119.56,819.79,852.5,1014.48c-33.09,22.21-112.44,15.88-112.44,15.88l-206.84-27.62c-26.64-2.59-97.54,47-98.18,47.43l9.62,14.65s70.4-49.32,96.75-46.76l203.78,27.22s78.17,6.24,110.76-15.65l263.1-191.8a54.75,54.75,0,0,0,22.48-51.5A55.37,55.37,0,0,1,1119.56,819.79Z"/><path class="cls-11" d="M456.15,1085.76l-17.4-3.33L271.66,828.22l3.86-17.3L447.21,705.56a133.32,133.32,0,0,1,104.59-9.87c14.74,4.77,41.19,13.69,80.86,27.28,40.69,13.94,88.19,30.36,128.8,44.4l50.12,17.31a73,73,0,0,1,48.23,80.93l197.24-118.93a67.06,67.06,0,0,1,73.64,112L867.23,1050.71c-35.15,23.6-110.18,18.37-118.62,17.7l-.65-.07-203.52-27.17C530.83,1040,488.07,1063.4,456.15,1085.76ZM299.29,825.3l153.2,233.09c22.68-15,70.18-44.17,94.52-41.78l.44,0,203.44,27.17c20.81,1.61,78.66,2.24,102.4-13.49l263-191.73a42.37,42.37,0,0,0-46.46-70.8L834.05,910l-14.49-19.88a48.31,48.31,0,0,0-16-82.07c-14.39-5-31.54-10.89-50.13-17.32-40.6-14-88.08-30.44-128.75-44.37-39.53-13.55-65.84-22.43-80.44-27.15a108.57,108.57,0,0,0-84.89,7.89Zm561.06,215.16h0Z"/><line class="cls-12" x1="395.85" y1="1123.05" x2="392.21" y2="1122.08"/><path class="cls-13" d="M278,761.32h90.69a2.4,2.4,0,0,1,2.4,2.4v395.86a3.29,3.29,0,0,1-3.29,3.29H278a0,0,0,0,1,0,0V761.32A0,0,0,0,1,278,761.32Z" transform="matrix(0.85, -0.53, 0.53, 0.85, -463.46, 321.78)"/><polygon class="cls-14" points="418.32 1197.84 257.03 1297.05 16.72 916.37 178.01 817.17 418.32 1197.84"/><polygon class="cls-15" points="408.83 1194.83 261.52 1285.21 221.96 1222.55 369.27 1132.16 408.83 1194.83"/><rect class="cls-16" x="370.44" y="1065.06" width="74.53" height="74.53" transform="translate(-525.48 387.82) rotate(-32.26)"/><polygon class="cls-17" points="191.83 851.08 44.26 941.05 30.03 918.5 177.6 828.52 191.83 851.08"/><rect class="cls-18" x="179.51" y="800.24" width="91.55" height="26.24" transform="translate(-399.39 245.83) rotate(-32.26)"/><path class="cls-11" d="M443.84,1138.54l-55.26,34.89-227.28-360,64.34-40.62a41.26,41.26,0,0,1,56.87,12.86L460,1066.86A52,52,0,0,1,443.84,1138.54ZM396.13,1140l34.77-22a27.76,27.76,0,0,0,8.65-38.25L262,798.57a17,17,0,0,0-23.45-5.3l-43.84,27.67Z"/><path class="cls-11" d="M435,1201.62l-181.8,112.15L0,912.6,181.79,800.45ZM260.8,1280.33l140.8-86.27L174.23,833.88,33.43,920.15Z"/><path class="cls-10" d="M789.29,938.58A72.7,72.7,0,0,1,770,936L598,886.7A12.34,12.34,0,0,1,604.8,863L776.62,912.2A48.18,48.18,0,0,0,821,902c5.15-4.47,16-8.23,20.46-3.09S806.7,938.58,789.29,938.58Z"/><path class="cls-11" d="M789.29,925.57A73.1,73.1,0,0,1,770,923L598,873.7A12.35,12.35,0,0,1,604.8,850l171.82,49.23A48.17,48.17,0,0,0,821,889a12.35,12.35,0,0,1,16.22,18.62A73,73,0,0,1,789.29,925.57Z"/></g></g></svg>