<svg xmlns="http://www.w3.org/2000/svg" xmlns:xlink="http://www.w3.org/1999/xlink" viewBox="0 0 1773.99 1623.82"><defs><style>.cls-1,.cls-27{opacity:0.1;}.cls-10,.cls-11,.cls-12,.cls-13,.cls-14,.cls-15,.cls-16,.cls-17,.cls-18,.cls-19,.cls-2,.cls-20,.cls-21,.cls-22,.cls-23,.cls-24,.cls-25,.cls-26,.cls-3,.cls-4,.cls-5,.cls-6,.cls-7,.cls-8,.cls-9{fill:#000201;}.cls-2{opacity:0;}.cls-3{opacity:0.04;}.cls-4{opacity:0.08;}.cls-5{opacity:0.13;}.cls-6{opacity:0.17;}.cls-7{opacity:0.21;}.cls-8{opacity:0.25;}.cls-9{opacity:0.29;}.cls-10{opacity:0.33;}.cls-11{opacity:0.38;}.cls-12{opacity:0.42;}.cls-13{opacity:0.46;}.cls-14{opacity:0.5;}.cls-15{opacity:0.54;}.cls-16{opacity:0.58;}.cls-17{opacity:0.63;}.cls-18{opacity:0.67;}.cls-19{opacity:0.71;}.cls-20{opacity:0.75;}.cls-21{opacity:0.79;}.cls-22{opacity:0.83;}.cls-23{opacity:0.88;}.cls-24{opacity:0.92;}.cls-25{opacity:0.96;}.cls-27{fill:#24d9cc;}.cls-28{fill:url(#linear-gradient);}.cls-29{fill:url(#linear-gradient-2);}.cls-30{fill:#fff;}.cls-31{fill:url(#linear-gradient-3);}.cls-32{fill:url(#linear-gradient-4);}.cls-33{fill:url(#linear-gradient-5);}.cls-34{fill:url(#linear-gradient-6);}.cls-35{fill:url(#linear-gradient-7);}.cls-36{fill:#f8fffb;}.cls-37{fill:#73d7ff;}.cls-38{fill:#dbdbdd;}.cls-39{fill:#f8af92;}.cls-40{fill:url(#linear-gradient-8);}.cls-41{fill:url(#linear-gradient-9);}.cls-42{fill:#ffd4d4;}.cls-43{fill:url(#linear-gradient-10);}.cls-44{fill:#f34b6e;}.cls-45,.cls-46{opacity:0.2;}.cls-45{fill:url(#linear-gradient-11);}.cls-46{fill:url(#linear-gradient-12);}.cls-47{fill:url(#linear-gradient-13);}.cls-48{fill:#3d3b44;}.cls-49{fill:#b6ceff;}.cls-50{fill:#9bb8ea;}.cls-51{fill:url(#linear-gradient-14);}.cls-52{fill:url(#linear-gradient-15);}.cls-53{fill:url(#linear-gradient-16);}.cls-54,.cls-55,.cls-63,.cls-64{opacity:0.3;}.cls-54{fill:url(#linear-gradient-17);}.cls-55{fill:url(#linear-gradient-18);}.cls-56{fill:url(#linear-gradient-19);}.cls-57{fill:url(#linear-gradient-20);}.cls-58{fill:#efebea;}.cls-59{fill:#d88c71;}.cls-60{fill:none;stroke:#bbbdbf;stroke-miterlimit:10;stroke-width:5px;stroke-dasharray:14;}.cls-61{fill:url(#linear-gradient-21);}.cls-62{fill:url(#linear-gradient-22);}.cls-63{fill:url(#linear-gradient-23);}.cls-64{fill:url(#linear-gradient-24);}.cls-65{fill:url(#linear-gradient-25);}.cls-66{fill:url(#linear-gradient-26);}.cls-67{fill:url(#linear-gradient-27);}.cls-68{fill:url(#linear-gradient-28);}</style><linearGradient id="linear-gradient" x1="515.77" y1="1036.69" x2="704.14" y2="1036.69" gradientUnits="userSpaceOnUse"><stop offset="0" stop-color="#63ffcd"/><stop offset="1" stop-color="#00c3cc"/></linearGradient><linearGradient id="linear-gradient-2" x1="222.25" y1="868.72" x2="1553.74" y2="868.72" gradientUnits="userSpaceOnUse"><stop offset="0" stop-color="#6a3bc4"/><stop offset="1" stop-color="#8c58dd"/></linearGradient><linearGradient id="linear-gradient-3" x1="330.23" y1="755.22" x2="836.69" y2="755.22" xlink:href="#linear-gradient"/><linearGradient id="linear-gradient-4" x1="456.3" y1="787.95" x2="660.77" y2="656.51" xlink:href="#linear-gradient"/><linearGradient id="linear-gradient-5" x1="497.85" y1="852.57" x2="702.31" y2="721.14" xlink:href="#linear-gradient"/><linearGradient id="linear-gradient-6" x1="563.11" y1="950.22" x2="725.18" y2="950.22" xlink:href="#linear-gradient"/><linearGradient id="linear-gradient-7" x1="232.25" y1="403.13" x2="1543.74" y2="403.13" xlink:href="#linear-gradient"/><linearGradient id="linear-gradient-8" x1="337.3" y1="1331.07" x2="409.14" y2="1331.07" xlink:href="#linear-gradient-2"/><linearGradient id="linear-gradient-9" x1="379.44" y1="1328.98" x2="464.98" y2="1328.98" xlink:href="#linear-gradient-2"/><linearGradient id="linear-gradient-10" x1="439.3" y1="667.95" x2="538.24" y2="667.95" gradientTransform="translate(-114.01 260.54) rotate(-2.79)" gradientUnits="userSpaceOnUse"><stop offset="0" stop-color="#161632"/><stop offset="1" stop-color="#2d2d4f"/></linearGradient><linearGradient id="linear-gradient-11" x1="443.07" y1="1098.51" x2="467.14" y2="1098.51" gradientTransform="matrix(1, 0, 0, 1, 0, 0)" xlink:href="#linear-gradient-10"/><linearGradient id="linear-gradient-12" x1="286.74" y1="1070.48" x2="339.65" y2="1070.48" gradientTransform="matrix(1, 0, 0, 1, 0, 0)" xlink:href="#linear-gradient-10"/><linearGradient id="linear-gradient-13" x1="1493.34" y1="899.98" x2="1591.44" y2="899.98" gradientTransform="matrix(1, 0, 0, 1, 0, 0)" xlink:href="#linear-gradient-10"/><linearGradient id="linear-gradient-14" x1="1119.52" y1="1347.91" x2="1189.61" y2="1347.91" xlink:href="#linear-gradient-2"/><linearGradient id="linear-gradient-15" x1="1160.63" y1="1345.97" x2="1244.09" y2="1345.97" xlink:href="#linear-gradient-2"/><linearGradient id="linear-gradient-16" x1="1096.75" y1="1094.37" x2="1343.73" y2="1094.37" xlink:href="#linear-gradient"/><linearGradient id="linear-gradient-17" x1="1111.67" y1="1110.15" x2="1132.92" y2="1110.15" gradientTransform="matrix(1, 0, 0, 1, 0, 0)" xlink:href="#linear-gradient-10"/><linearGradient id="linear-gradient-18" x1="1223.69" y1="1116.96" x2="1249.58" y2="1116.96" gradientTransform="matrix(1, 0, 0, 1, 0, 0)" xlink:href="#linear-gradient-10"/><linearGradient id="linear-gradient-19" x1="1137.26" y1="913.85" x2="1236.55" y2="913.85" gradientTransform="matrix(1, 0, 0, 1, 0, 0)" xlink:href="#linear-gradient-10"/><linearGradient id="linear-gradient-20" x1="-1952.51" y1="407.55" x2="-1711.25" y2="407.55" gradientTransform="matrix(0.58, 0.01, -0.01, 0.58, 2607.67, 1106.82)" xlink:href="#linear-gradient-2"/><linearGradient id="linear-gradient-21" x1="712.02" y1="290.58" x2="990.69" y2="290.58" xlink:href="#linear-gradient"/><linearGradient id="linear-gradient-22" x1="1278.44" y1="37.31" x2="1372.06" y2="37.31" gradientTransform="matrix(1, 0, 0, 1, 0, 0)" xlink:href="#linear-gradient-10"/><linearGradient id="linear-gradient-23" x1="1318.25" y1="185.28" x2="1397.18" y2="185.28" gradientTransform="matrix(-1, 0, 0, 1, 2693.98, 0)" xlink:href="#linear-gradient-10"/><linearGradient id="linear-gradient-24" x1="1408.72" y1="191.22" x2="1432.85" y2="191.22" gradientTransform="matrix(-1, 0, 0, 1, 2693.98, 0)" xlink:href="#linear-gradient-10"/><linearGradient id="linear-gradient-25" x1="1304.18" y1="423.16" x2="1517.66" y2="423.16" gradientTransform="matrix(-1, 0, 0, 1, 2693.98, 0)" xlink:href="#linear-gradient-2"/><linearGradient id="linear-gradient-26" x1="1416.37" y1="355.8" x2="1517.66" y2="355.8" gradientTransform="matrix(-1, 0, 0, 1, 2693.98, 0)" xlink:href="#linear-gradient-2"/><linearGradient id="linear-gradient-27" x1="1364.57" y1="454.84" x2="1459.93" y2="454.84" gradientTransform="matrix(-1, 0, 0, 1, 2693.98, 0)" xlink:href="#linear-gradient-2"/><linearGradient id="linear-gradient-28" x1="1383.27" y1="231.95" x2="1592.52" y2="231.95" gradientTransform="matrix(-1, 0, 0, 1, 2693.98, 0)" gradientUnits="userSpaceOnUse"><stop offset="0" stop-color="#dad8ec"/><stop offset="1" stop-color="#a39dcd"/></linearGradient></defs><title>work</title><g id="Layer_2" data-name="Layer 2"><g id="Layer_2-2" data-name="Layer 2"><g class="cls-1"><ellipse class="cls-2" cx="1337.09" cy="1520.1" rx="436.9" ry="66.61"/><ellipse class="cls-3" cx="1337.09" cy="1520.1" rx="428.58" ry="65.35"/><ellipse class="cls-4" cx="1337.09" cy="1520.1" rx="420.26" ry="64.08"/><ellipse class="cls-5" cx="1337.09" cy="1520.1" rx="411.94" ry="62.81"/><ellipse class="cls-6" cx="1337.09" cy="1520.1" rx="403.62" ry="61.54"/><ellipse class="cls-7" cx="1337.09" cy="1520.1" rx="395.3" ry="60.27"/><ellipse class="cls-8" cx="1337.09" cy="1520.1" rx="386.98" ry="59"/><ellipse class="cls-9" cx="1337.09" cy="1520.1" rx="378.66" ry="57.73"/><ellipse class="cls-10" cx="1337.09" cy="1520.1" rx="370.34" ry="56.47"/><ellipse class="cls-11" cx="1337.09" cy="1520.1" rx="362.02" ry="55.2"/><ellipse class="cls-12" cx="1337.09" cy="1520.1" rx="353.7" ry="53.93"/><ellipse class="cls-13" cx="1337.09" cy="1520.1" rx="345.38" ry="52.66"/><ellipse class="cls-14" cx="1337.09" cy="1520.1" rx="337.06" ry="51.39"/><ellipse class="cls-15" cx="1337.09" cy="1520.1" rx="328.74" ry="50.12"/><ellipse class="cls-16" cx="1337.09" cy="1520.1" rx="320.42" ry="48.85"/><ellipse class="cls-17" cx="1337.09" cy="1520.1" rx="312.1" ry="47.59"/><ellipse class="cls-18" cx="1337.09" cy="1520.1" rx="303.78" ry="46.32"/><ellipse class="cls-19" cx="1337.09" cy="1520.1" rx="295.46" ry="45.05"/><ellipse class="cls-20" cx="1337.09" cy="1520.1" rx="287.14" ry="43.78"/><ellipse class="cls-21" cx="1337.09" cy="1520.1" rx="278.82" ry="42.51"/><ellipse class="cls-22" cx="1337.09" cy="1520.1" rx="270.5" ry="41.24"/><ellipse class="cls-23" cx="1337.09" cy="1520.1" rx="262.18" ry="39.97"/><ellipse class="cls-24" cx="1337.09" cy="1520.1" rx="253.86" ry="38.71"/><ellipse class="cls-25" cx="1337.09" cy="1520.1" rx="245.54" ry="37.44"/><ellipse class="cls-26" cx="1337.09" cy="1520.1" rx="237.22" ry="36.17"/></g><g class="cls-1"><ellipse class="cls-2" cx="436.9" cy="1557.2" rx="436.9" ry="66.61"/><ellipse class="cls-3" cx="436.9" cy="1557.2" rx="428.58" ry="65.35"/><ellipse class="cls-4" cx="436.9" cy="1557.2" rx="420.26" ry="64.08"/><ellipse class="cls-5" cx="436.9" cy="1557.2" rx="411.94" ry="62.81"/><ellipse class="cls-6" cx="436.9" cy="1557.2" rx="403.62" ry="61.54"/><ellipse class="cls-7" cx="436.9" cy="1557.2" rx="395.3" ry="60.27"/><ellipse class="cls-8" cx="436.9" cy="1557.2" rx="386.98" ry="59"/><ellipse class="cls-9" cx="436.9" cy="1557.2" rx="378.66" ry="57.73"/><ellipse class="cls-10" cx="436.9" cy="1557.2" rx="370.34" ry="56.47"/><ellipse class="cls-11" cx="436.9" cy="1557.2" rx="362.02" ry="55.2"/><ellipse class="cls-12" cx="436.9" cy="1557.2" rx="353.7" ry="53.93"/><ellipse class="cls-13" cx="436.9" cy="1557.2" rx="345.38" ry="52.66"/><ellipse class="cls-14" cx="436.9" cy="1557.2" rx="337.06" ry="51.39"/><ellipse class="cls-15" cx="436.9" cy="1557.2" rx="328.74" ry="50.12"/><ellipse class="cls-16" cx="436.9" cy="1557.2" rx="320.42" ry="48.85"/><ellipse class="cls-17" cx="436.9" cy="1557.2" rx="312.1" ry="47.59"/><ellipse class="cls-18" cx="436.9" cy="1557.2" rx="303.78" ry="46.32"/><ellipse class="cls-19" cx="436.9" cy="1557.2" rx="295.46" ry="45.05"/><ellipse class="cls-20" cx="436.9" cy="1557.2" rx="287.14" ry="43.78"/><ellipse class="cls-21" cx="436.9" cy="1557.2" rx="278.82" ry="42.51"/><ellipse class="cls-22" cx="436.9" cy="1557.2" rx="270.5" ry="41.24"/><ellipse class="cls-23" cx="436.9" cy="1557.2" rx="262.18" ry="39.97"/><ellipse class="cls-24" cx="436.9" cy="1557.2" rx="253.86" ry="38.71"/><ellipse class="cls-25" cx="436.9" cy="1557.2" rx="245.54" ry="37.44"/><ellipse class="cls-26" cx="436.9" cy="1557.2" rx="237.22" ry="36.17"/></g><path class="cls-27" d="M1491.18,168.72c314,220.37,354,1299.81-464.25,1324.63-460,14-1079.11-17-1019.25-412.15C42.79,849.49,419.61,786.37,629,460.33S1229.25-15.09,1491.18,168.72Z"/><path class="cls-28" d="M704.14,1036.69a12.1,12.1,0,0,1-12.1,12.1H527.88a12.11,12.11,0,0,1-12.11-12.1h0a12.11,12.11,0,0,1,12.11-12.11H692a12.11,12.11,0,0,1,12.1,12.11Z"/><path class="cls-29" d="M296.36,1396.72c-40.86,0-74.11-31.81-74.11-70.91V411.63c0-39.1,33.25-70.91,74.11-70.91H1479.62c40.87,0,74.12,31.81,74.12,70.91v914.18c0,39.1-33.25,70.91-74.12,70.91Z"/><path class="cls-30" d="M1543.74,411.63v914.18c0,33.67-28.71,60.91-64.12,60.91H296.36c-35.41,0-64.11-27.24-64.11-60.91V411.63c0-33.6,28.7-60.91,64.11-60.91H1479.62C1515,350.72,1543.74,378,1543.74,411.63Z"/><path class="cls-31" d="M583.46,502C443.6,502,330.23,615.36,330.23,755.22s113.37,253.23,253.23,253.23S836.69,895.07,836.69,755.22,723.31,502,583.46,502Zm0,445.17c-106,0-191.93-85.93-191.93-191.93s85.93-191.94,191.93-191.94,191.93,85.94,191.93,191.94S689.46,947.15,583.46,947.15Z"/><path class="cls-32" d="M484.64,798.77a85.69,85.69,0,0,0,15.65,0c10.89-.71,22-3.8,30.33-9.48a48,48,0,0,0,19.44-28.44l-.72-.24c-6.87,7.11-16.83,11.14-30.81,11.14-26.07,0-48.11-18.25-48.11-48.11,0-30.1,24.18-55.45,58.07-55.45,39.57,0,58.29,30.33,58.29,66.35,0,32-10.19,55.46-27,70.86C545.08,818.67,524.93,826,501,827a124.46,124.46,0,0,1-16.35,0Zm21.81-77.26c0,13.27,7.11,24.65,21.8,24.65,9.72,0,16.59-4.74,19.91-10.19,1.18-2.14,1.9-4.51,1.9-9,0-16.35-6.17-32.47-22.52-32.47C515.22,694.49,506.21,705.4,506.45,721.51Z"/><path class="cls-33" d="M718.53,747.1c0,47.64-19.2,80.34-58.54,80.34-39.81,0-57.35-35.78-57.59-79.39,0-44.55,19-79.86,58.78-79.86C702.41,668.19,718.53,704.92,718.53,747.1Zm-79.87.95c-.23,35.31,8.3,52.14,22.28,52.14s21.56-17.53,21.56-52.61c0-34.13-7.34-52.14-21.8-52.14C647.43,695.44,638.43,712.27,638.66,748.05Z"/><polygon class="cls-34" points="656.95 892 563.11 992.94 725.18 1008.45 656.95 892"/><path class="cls-35" d="M1543.74,411.63v43.91H232.25V411.63c0-33.6,28.7-60.91,64.11-60.91H1479.62C1515,350.72,1543.74,378,1543.74,411.63Z"/><path class="cls-36" d="M1423.56,1314.38h-416a57.17,57.17,0,0,1-57.17-57.17V546.85a57.17,57.17,0,0,1,57.17-57.17h416a57.17,57.17,0,0,1,57.17,57.17v710.36A57.17,57.17,0,0,1,1423.56,1314.38Z"/><rect class="cls-36" x="330.22" y="1056.77" width="557.78" height="257.61" rx="57.17"/><path class="cls-37" d="M1265.67,567.5a17,17,0,0,1-16.94,16.94H1018.88a16.94,16.94,0,0,1-16.94-16.94h0a16.94,16.94,0,0,1,16.94-17h229.85a17,17,0,0,1,16.94,17Z"/><path class="cls-37" d="M1380.17,651.25a16.94,16.94,0,0,1-16.94,16.94H1018.88a16.94,16.94,0,0,1-16.94-16.94h0a16.94,16.94,0,0,1,16.94-17h344.35a16.94,16.94,0,0,1,16.94,17Z"/><path class="cls-37" d="M1439.82,735a16.94,16.94,0,0,1-16.94,16.94h-404A16.93,16.93,0,0,1,1001.94,735h0a16.93,16.93,0,0,1,16.94-16.94h404A16.94,16.94,0,0,1,1439.82,735Z"/><path class="cls-38" d="M1413.85,818.75a17,17,0,0,1-16.94,16.94h-378a16.94,16.94,0,0,1-16.94-16.94h0a16.93,16.93,0,0,1,16.94-16.94h378a16.94,16.94,0,0,1,16.94,16.94Z"/><path class="cls-38" d="M1191.05,902.5a16.94,16.94,0,0,1-16.94,16.94H1018.88a16.93,16.93,0,0,1-16.94-16.94h0a16.93,16.93,0,0,1,16.94-16.94h155.23a16.94,16.94,0,0,1,16.94,16.94Z"/><path class="cls-38" d="M1439.82,986.25a16.94,16.94,0,0,1-16.94,16.94h-404a16.93,16.93,0,0,1-16.94-16.94h0a16.93,16.93,0,0,1,16.94-16.94h404a16.94,16.94,0,0,1,16.94,16.94Z"/><path class="cls-38" d="M1380.17,1070a16.94,16.94,0,0,1-16.94,17H1018.88a16.94,16.94,0,0,1-16.94-17h0a16.94,16.94,0,0,1,16.94-16.94h344.35a16.94,16.94,0,0,1,16.94,16.94Z"/><path class="cls-38" d="M1439.82,1153.75a17,17,0,0,1-16.94,17h-404a16.94,16.94,0,0,1-16.94-17h0a16.94,16.94,0,0,1,16.94-16.94h404a17,17,0,0,1,16.94,16.94Z"/><path class="cls-38" d="M1191.05,1237.5a17,17,0,0,1-16.94,17H1018.88a16.94,16.94,0,0,1-16.94-17h0a16.94,16.94,0,0,1,16.94-16.94h155.23a17,17,0,0,1,16.94,16.94Z"/><path class="cls-38" d="M742.76,1170.7a17,17,0,0,1-16.94,16.94H381.46a16.94,16.94,0,0,1-16.94-16.94h0a16.94,16.94,0,0,1,16.94-17H725.82a17,17,0,0,1,16.94,17Z"/><path class="cls-38" d="M802.4,1254.45a16.94,16.94,0,0,1-16.94,16.94h-404a16.94,16.94,0,0,1-16.94-16.94h0a16.94,16.94,0,0,1,16.94-17h404a16.94,16.94,0,0,1,16.94,17Z"/><path class="cls-39" d="M352.45,1486.1s-3.14,25.83,3.16,33.61,26.32-5.92,27.26-11.32.62-25.36.62-25.36Z"/><path class="cls-37" d="M351.5,1508.4c-2.52-.06-3.3,2.56-3.12,9.75s.35,15.14,2.48,16.34,86.67,3.07,86-.73-.34-15.9-11.49-16.19-22.92-4.78-26.8-7.91-9.17-7.33-11.76-4.61-12.79,7.74-20.7,7.53A34.2,34.2,0,0,1,351.5,1508.4Z"/><path class="cls-39" d="M420.11,1486.66s-3.16,26.67,3.12,34.69,26.33-6.13,27.28-11.71.63-26.18.63-26.18Z"/><path class="cls-37" d="M418.74,1513.86c-2.52-.06-3.31,2.56-3.12,9.76s.36,15.13,2.49,16.33,86.66,3.07,86-.73-.34-15.9-11.49-16.19-22.91-4.78-26.8-7.91-9.18-7.33-11.76-4.61-12.79,7.74-20.7,7.53A34.2,34.2,0,0,1,418.74,1513.86Z"/><path class="cls-40" d="M342.47,1161.42s-6.29,22.7-5,40.68,10.89,38.45,10.89,38.45l13.6,115s-13.34,11.93-12.33,61.17-1.27,77.79-1.27,77.79.82,8,17.79,5.8,20.7-7.53,20.7-7.53-5.28-69.19,10.19-117.26,11.69-197,11.69-197Z"/><path class="cls-41" d="M379.85,1178.51s-3.44,26.67,9.62,47.54,17.2,21.12,17.2,21.12l12.41,104.54s-12.29,25.3-9.94,61.44,6.46,77.76,6.46,77.76,7.48,9.7,21.3,3.64l13.82-6.06s.45-97.22,9.15-132.9,3.65-194.17,3.65-194.17Z"/><path class="cls-39" d="M592.54,1041.75s9-9,19.34-13.75,16-5.15,16-5.15a11.79,11.79,0,0,1-7.87,9c-7.12,2.69-14.19,7.25,1,5.49s35.3-13.52,34.2-7.21S643,1052.47,625,1056.76s-27.37,8.9-27.37,8.9S598.14,1045,592.54,1041.75Z"/><path class="cls-42" d="M447.58,885.49s1,6.31-1.13,11.1a17.27,17.27,0,0,0,.77,15.69c2.94,5.54,4.46,13.17-1,27.15s-7.94,24.15-11.18,26.31-8.15-4.35-12.9,3-3.09,12.2-3.09,12.2-7.3,8.06-20.68,8-18.93-4.32-20.45-7.4,2.87-37.21.62-42.15,8.75-40.27,14-43.2S447.58,885.49,447.58,885.49Z"/><path class="cls-43" d="M452.85,869.53c5.77,6-2.29,18.42-11.19,23.63s-7.78,11.91-8.61,19.11-.67,10.78-2.24,11.25-5.75-20-12.48-19.28-3.88,10.13-1.92,17.6,7.95,20.7-1.61,26.34-34.4,10.43-39.86-3.63-26.07-36.92-14.64-63.74S427.69,843.31,452.85,869.53Z"/><path class="cls-44" d="M345.45,973.33s-78.28,88.5-76.3,105.27,60.63,74.4,60.63,74.4a137.08,137.08,0,0,1,8.72-12c4.94-6.06,4.37-17.67,4.37-17.67s-27.72-43.7-26.93-51.46,17.61-20.49,17.61-20.49,13,75.27,10.39,94-9.24,37.1,22.26,39.05,99.95-2.12,99.09-19.74,1.85-105,1.85-105,25.4,19.87,39.47,22,90.13-12.3,90.13-12.3a31.7,31.7,0,0,0-.79-16.22c-2.76-9-4.53-15.32-4.53-15.32s-79.33,13.21-84.81,8.26-48.22-70.35-60-73.85S366.43,962.07,345.45,973.33Z"/><path class="cls-39" d="M332.77,1148.56s6.86,7.92,9.46,8,5.62-16.33,3.69-21.25-3.17-7.58-3.17-7.58Z"/><path class="cls-45" d="M467.14,1059.67s-8.26-16.51-12.35-28.32l-4.08-11.81s-.28,64.62-.83,102.83-6.81,54.89-6.81,54.89,21.16,2.5,21.61-9.51S467.14,1059.67,467.14,1059.67Z"/><path class="cls-46" d="M333.55,1051.33l6.1-28.48S318,1052,308.27,1065.66,286.74,1076,286.74,1076s16.67-5,22.92,4.73,30,37.43,30,37.43-24.08-36.33-23.56-44.52S333.55,1051.33,333.55,1051.33Z"/><path class="cls-39" d="M1503.43,882.71s-2.58,22.77,0,27,4.67,2.88,4.67,6.6-2.5,13.53-.18,20.06,6.32,23.31,14.28,23.88,9.67,0,9.67,0-2,16.21,0,17.06,15.92,4.55,23.6,1.42,17.62-8,17.62-8-9.94-23-5.68-34.11,13.07-21.61-1.43-30.42S1512.82,872.76,1503.43,882.71Z"/><path class="cls-47" d="M1493.64,888s-4,12.53,17.34,10.93,27.69.42,27.69,7.06,8.66,3.17,8.66,11,2.63,18.19,6.06,8,7.21-16.64,9.8-13.17.68,11.73-2.34,17.38,4.47,11.49,10.71,9.62S1588,925,1590.89,914.89s-6.48-22.43-6.48-22.43,3.59-24.88-17.18-30.36S1498.22,870.55,1493.64,888Z"/><polygon class="cls-30" points="1122.3 1219.2 1073.28 1242.67 1052.84 1234.65 1122.3 1201.79 1122.3 1219.2"/><path class="cls-48" d="M1116.25,1184.08s-8.11,2.32-8.5,8.89,0,22.85,0,22.85h-3.2l-2-25.65s1.41-7,10.72-9.72Z"/><polygon class="cls-49" points="1073.28 1242.67 1073.28 1340.25 1128.49 1313.56 1137.75 1218.35 1122.3 1219.2 1073.28 1242.67"/><polygon class="cls-50" points="1052.84 1234.65 1052.84 1331.54 1073.28 1340.25 1073.28 1242.67 1052.84 1234.65"/><path class="cls-39" d="M1134.31,1491.84s-3.07,24,3.07,31.2,25.68-5.5,26.6-10.51.6-23.54.6-23.54Z"/><path class="cls-37" d="M1133.37,1512.54c-2.45-.06-3.22,2.38-3,9s.34,14.06,2.42,15.16,84.55,2.86,83.93-.67-.33-14.76-11.2-15-22.36-4.44-26.15-7.34-8.95-6.8-11.48-4.28-12.47,7.18-20.19,7A34.71,34.71,0,0,1,1133.37,1512.54Z"/><path class="cls-39" d="M1200.31,1492.35s-3.08,24.76,3,32.21,25.68-5.69,26.61-10.87.62-24.3.62-24.3Z"/><path class="cls-37" d="M1199,1517.61c-2.45-.06-3.22,2.38-3,9.05s.34,14.06,2.42,15.16,84.55,2.86,83.93-.67-.33-14.76-11.2-15-22.36-4.44-26.15-7.34-9-6.81-11.48-4.28-12.47,7.18-20.19,7A34.61,34.61,0,0,1,1199,1517.61Z"/><path class="cls-51" d="M1124.57,1190.41s-6.14,21.07-4.88,37.76,10.62,35.7,10.62,35.7l13.27,106.8s-13,11.08-12,56.79-1.24,72.22-1.24,72.22.8,7.41,17.36,5.38,20.19-7,20.19-7-5.14-64.24,10-108.86,11.4-182.94,11.4-182.94Z"/><path class="cls-52" d="M1161,1206.27s-3.35,24.77,9.39,44.14,16.78,19.6,16.78,19.6l12.11,97.06s-12,23.49-9.7,57,6.3,72.19,6.3,72.19,7.3,9,20.78,3.38l13.49-5.62s.44-90.26,8.92-123.39,3.57-180.26,3.57-180.26Z"/><path class="cls-39" d="M1224.92,895.47s2.06,16.34,0,20.52,1.55,15.51,0,23.23-5.15,29.76-11.83,31.6-10.43,0-10.43,0l-2.93,13.06-42.22-4s2.57-31.06,0-37.71S1204.85,890.84,1224.92,895.47Z"/><path class="cls-53" d="M1116.77,995.47s16.45-19.16,49.9-19.16,69.74,12.73,76.54,28.92,31.78,87,40.82,93.29,59.68,30.62,59.68,30.62.41,18.14-2.42,21.82a25.9,25.9,0,0,1-6.8,6s-76.47-28.91-85-34.88,3.34,66.06-8.57,73.43-54.43,23.73-81.08,13.9-34-20.13-34-20.13-14.17-.57-19.28-26.08-14.74-68.1-6.8-103.18S1116.77,995.47,1116.77,995.47Z"/><path class="cls-54" d="M1120.18,1034.46s17.1,53.83,11.67,87.58a439.43,439.43,0,0,0-5.3,63.8s-2.14-44.23,0-60.1-14.88-21.2-14.88-21.2,14.18,7.78,14.18-10.17S1120.18,1034.46,1120.18,1034.46Z"/><path class="cls-55" d="M1249.51,1122s-17.44-20.5-21-48.58-4.82-35-4.82-35,0,53.6,7.57,78.19,9.68,78.83,9.68,78.83,6.47-15,7.73-37.31S1249.51,1122,1249.51,1122Z"/><path class="cls-56" d="M1210.68,909.18s12.9,5.62,21.87,1.64,1.46-19.52-8.91-26.78-38.62-15-60.39-11.92-13.48,17.62-13.48,17.62-15.14.15-12.11,21.46,10.77,29.44,11.34,34.53,33,15.29,37.9,8-7.58-30.31,1.23-30.06,6.62,18.4,11.6,18.91-4.58-17.19,2.92-18.91S1210.68,909.18,1210.68,909.18Z"/><path class="cls-30" d="M1529,966.48s-44.43,5.83-50.39,21.06-41,95.48-45,99.45-63.77,35-63.77,35,13.36,5.37,17.39,15.31,4,13.61,4,13.61,60.9-33.41,70.84-38.75,26.5-38.75,26.5-38.75-21.95,89.88-2.74,95.59,109.05,17.11,114.35-3.43-2.94-38.21-2.94-38.21,26.5,15.1,31.8-5.37,2-127.74-7.95-136.72-38.43-18.93-38.43-18.93-22.19,13.77-38.53,11.74S1529,966.48,1529,966.48Z"/><path class="cls-39" d="M1585.4,1482.62s-.36,17.86,2.67,19.61,19.94,5.77,21.88.37.25-14.74.25-14.74Z"/><path class="cls-37" d="M1583.43,1496s13.09,7.35,19.54,6.45,10.56-2.54,12.89.21,8.28,11.68,16.38,13.51,6.91,12,6.91,12-24.68-4.15-36.53-5.38-22.65-3.44-22.52-11.24A49.35,49.35,0,0,1,1583.43,1496Z"/><path class="cls-39" d="M1493.69,1469.68s-5.07,18.24-.36,20.7,17.9-1.52,21.49-7a16.59,16.59,0,0,0,2.23-11.6Z"/><path class="cls-37" d="M1490.8,1479.47c-4.07.61-3.46,4.69-11.31,7.61s-25.19,5.35-27,11.75-3.63,13.52,4.84,13.66,60.48-7.1,63.61-11.46,4.37-21,.41-23.75-2.48,6.41-15.4,8.9S1490.8,1479.47,1490.8,1479.47Z"/><path class="cls-57" d="M1478.64,1160.84s23.79,9,61.11,8.45,61-12.47,61-12.47,8.48,24.65,1.74,47.78-5,47.19-5.14,52.12,4.44,83.53,4.44,83.53l10.62,147.11a48.32,48.32,0,0,1-19.1,5.3l-10.56.52L1550.6,1313l-14.94-83.45-13.34,90.71,2.32,150.17s-22.91,8.76-27,6.58-8.24-5.08-8.24-5.08l-9.78-166.49Z"/><path class="cls-58" d="M1593.44,1027s3.09,30.14,9.27,42.9a74.94,74.94,0,0,0,16.62,21.64,249.44,249.44,0,0,1-25.89-12.75c-12.75-7.35-25.51-19.52-25.51-19.52s25.51,13.8,25.7,12.6S1593.44,1027,1593.44,1027Z"/><path class="cls-58" d="M1597.28,1127.41l-22.14-12.18s17.39,10.61,18.49,17.55,3.65,25.57,3.65,25.57h4.3S1603.09,1134.28,1597.28,1127.41Z"/><path class="cls-39" d="M1566.16,1063.63s-4.08,3.29-9.79,8.26a131.22,131.22,0,0,0-9.8,9.46s-24.89-21.63-29-35.5-4.89-29,0-24.49,18.31,35.93,24.26,29.59,2.43-5.1,1.53-11.63,0-8.17,0-8.17,4.82,9.39,9.31,13.47S1566.16,1063.63,1566.16,1063.63Z"/><path class="cls-58" d="M1488.61,1073.46l4.73-52.91s-23.4,61.28-29.95,68.77-18.24,5-18.24,5,6.08,4.77,0,12.73-53.88,43.86-53.88,43.86,70.64-36.73,75.36-42.5S1488.61,1073.46,1488.61,1073.46Z"/><path class="cls-59" d="M1373.74,1124a16.6,16.6,0,0,0-12.79,4,78.16,78.16,0,0,1-8.72,6.69s1.16,1.45,5.52,2a57,57,0,0,0,10.47,0,119,119,0,0,0-10.47,6.11c-5.81,3.78-13.08,7.85-12.5,9.88s-2.62,7.85,12.5,5.82,32.16-13.72,32.16-13.72S1386.24,1128.67,1373.74,1124Z"/><path class="cls-39" d="M1343.73,1131.4s14.9.53,16.64,0-4.95,1.23-4.22,5,17.3,3,22.24,5,11.81,14.31-2.9,15.45-38.4-1.7-38.4-1.7S1344,1138.33,1343.73,1131.4Z"/><path class="cls-60" d="M918.16,225.66v-65S928.49,120,881,113.56H303s-37,.14-43.11,57.84V530.59s-1.81,67.7,43.11,68.13h90.93"/><circle class="cls-44" cx="851.35" cy="356.14" r="197.77" transform="translate(-2.47 706.31) rotate(-45)"/><path class="cls-30" d="M1029,356.14A177.64,177.64,0,1,1,851.35,178.5,177.63,177.63,0,0,1,1029,356.14Z"/><path class="cls-61" d="M744.83,364.35c-.2-2.71-.34-5.44-.34-8.21a106.87,106.87,0,1,1,213.74,0c0,2.77-.15,5.5-.34,8.21h32.54c.16-2.71.26-5.45.26-8.21a139.34,139.34,0,1,0-278.67,0c0,2.76.1,5.5.26,8.21Z"/><path class="cls-44" d="M813.23,370.55,919,216.8,866.11,384.47S818.59,422.76,813.23,370.55Z"/><path class="cls-39" d="M1288.07,20.83s-2.46,21.72,0,25.79,4.46,2.75,4.46,6.29-2.39,12.91-.17,19.15,6,22.25,13.63,22.79,9.22,0,9.22,0-1.89,15.47,0,16.27,15.19,4.34,22.52,1.36,16.82-7.59,16.82-7.59-9.49-22-5.43-32.56,12.48-20.62-1.36-29S1297,11.33,1288.07,20.83Z"/><path class="cls-62" d="M1278.73,25.84s-3.82,12,16.55,10.42,26.42.41,26.42,6.74,8.26,3,8.26,10.46,2.51,17.35,5.78,7.62,6.88-15.88,9.36-12.58.65,11.2-2.24,16.59,4.27,11,10.23,9.18,15.69-13.1,18.44-22.74-6.18-21.4-6.18-21.4,3.43-23.75-16.39-29S1283.1,9.23,1278.73,25.84Z"/><path class="cls-49" d="M1354.91,98.82s38.34,19.6,45.51,27.26,5.73,114.74,0,125.75-13.87,11.95-13.87,11.95,10.52,26.51.48,32.14-69.81,18.06-95.15,9.45-21-28.68-20.09-33.47,5.27-43.5,5.27-43.5l-33,17.21-14.34-19.12s34.43-19.6,35.86-30.12,10.47-78.42,19.1-83.2,28.63-10.46,28.63-10.46S1338.57,107.42,1354.91,98.82Z"/><path class="cls-63" d="M1371.11,131.28s-4.61,8.76-4.15,25.38-5.61,69.7,0,73.86,8.81,6.46,8.81,6.46-12.09-7.39-20.82-4.61-58.12,6.92-58.12,6.92,56.23-8.77,58.12-18.93S1360,144.66,1371.11,131.28Z"/><path class="cls-64" d="M1285.25,145.74s-4.5,80.73-8.19,82.66l-15.93,8.31a101.18,101.18,0,0,0,12.06-24.65C1277.86,197.75,1285.25,145.74,1285.25,145.74Z"/><path class="cls-39" d="M1327.2,475.92s26.56,15.21,25.39,19.5-20.67,14-30.8,10.52-18.71-14.63-18.71-14.63Z"/><path class="cls-39" d="M1294.24,543.75s15.47,13.64,13.51,19.49-27.33,8.56-31.57,6.09S1265.27,555,1265.27,555Z"/><path class="cls-65" d="M1387,295.92s14.79,32-24,54.25S1241.62,399,1244.49,411.23s55.32,134.34,55.32,134.34-.71,10.77-19.4,12.21l-18.67,1.44s-83.2-140-79.32-157.63-.12-9.76-.12-9.76-18.27-25.87,9-50.65S1272,287.1,1272,287.1,1286.73,322.13,1387,295.92Z"/><path class="cls-66" d="M1277.61,319.76s-67.32,41.23-79.39,53.3-15.92,18.77-15.92,18.77l-6-12.72s25.54-15.8,50.65-31.58A536.2,536.2,0,0,1,1277.61,319.76Z"/><path class="cls-37" d="M1350.14,489s-4.79,10.25-18,10.25-24.35-3.56-24.8,8-2.68,32.1-9.36,43.24-11.15,19.62,0,18.73,63.3-58.41,65.09-66.43S1350.14,489,1350.14,489Z"/><path class="cls-37" d="M1312.24,555s-4.79,10.26-18,10.26-24.36-3.57-24.8,8-2.67,32.1-9.36,43.25-11.15,19.61,0,18.72,63.31-58.4,65.09-66.42S1312.24,555,1312.24,555Z"/><path class="cls-67" d="M1244.49,411.23,1323.75,465s12.72,14.05,0,23.41-18.73,10-18.73,10l-53.52-22.08S1217.42,417,1244.49,411.23Z"/><path class="cls-39" d="M1232.6,230.33s-8.65,2.49-14.09,6.38-24.87,10.51-24.87,10.51,8.86,7.1,11.72,8.82,18.3.86,20.59,0,16.67-12.36,16.67-12.36Z"/><polygon class="cls-68" points="1198.06 185.28 1101.46 185.29 1141.35 278.62 1310.71 278.62 1310.71 268.6 1236.13 268.6 1198.06 185.28"/><path class="cls-39" d="M1294.18,239.29s-20.18,4.59-28,7.93-16.3,7.22-19,11.88-6.21,9.5-1.94,9.5h23.46c3.57,0,13.81-.57,18.85-2.52s-3.88-5.43,6.6-6.6,14-2.45,14-2.45S1303.8,237,1294.18,239.29Z"/></g></g></svg>